<svg width="13" height="12" viewBox="0 0 13 12" fill="none" xmlns="http://www.w3.org/2000/svg">
<path d="M10.42 6.5C10.31 6.5 10.195 6.465 10.085 6.44C9.86224 6.39091 9.64334 6.32574 9.43 6.245C9.19805 6.16061 8.94308 6.16499 8.71416 6.2573C8.48524 6.3496 8.29854 6.52331 8.19 6.745L8.08 6.97C7.593 6.69908 7.14549 6.36261 6.75 5.97C6.35739 5.5745 6.02091 5.12699 5.75 4.63999L5.96 4.49999C6.18168 4.39145 6.35539 4.20476 6.4477 3.97584C6.54 3.74692 6.54439 3.49195 6.46 3.25999C6.38061 3.04621 6.31547 2.82739 6.265 2.605C6.24 2.495 6.22 2.38 6.205 2.265C6.14428 1.91281 5.95981 1.59387 5.68481 1.36561C5.40981 1.13736 5.06235 1.0148 4.705 1.02H3.205C2.98952 1.01797 2.77613 1.0624 2.57936 1.15026C2.38259 1.23812 2.20706 1.36734 2.06472 1.52914C1.92238 1.69093 1.81657 1.88149 1.7545 2.08785C1.69242 2.29421 1.67554 2.51152 1.705 2.725C1.97137 4.81969 2.92802 6.76593 4.42383 8.25631C5.91964 9.74669 7.86936 10.6962 9.965 10.955H10.155C10.5237 10.9555 10.8797 10.8203 11.155 10.575C11.3132 10.4335 11.4395 10.2601 11.5257 10.0662C11.6119 9.87222 11.656 9.66221 11.655 9.45V7.95C11.6489 7.60269 11.5224 7.26827 11.2972 7.00383C11.0719 6.73938 10.7619 6.56131 10.42 6.5V6.5ZM10.67 9.5C10.6699 9.57099 10.6547 9.64115 10.6254 9.70581C10.5961 9.77046 10.5533 9.82814 10.5 9.875C10.4443 9.9235 10.379 9.9597 10.3083 9.98124C10.2377 10.0028 10.1633 10.0092 10.09 10C8.21745 9.7599 6.47812 8.90324 5.14636 7.56514C3.8146 6.22704 2.96621 4.48366 2.735 2.61C2.72704 2.53675 2.73402 2.46266 2.7555 2.39219C2.77699 2.32172 2.81254 2.25634 2.86 2.2C2.90686 2.14666 2.96453 2.10392 3.02919 2.0746C3.09385 2.04529 3.16401 2.03008 3.235 2.03H4.735C4.85127 2.02741 4.96481 2.06543 5.05607 2.13753C5.14733 2.20963 5.21061 2.31128 5.235 2.425C5.255 2.56166 5.28 2.69666 5.31 2.83C5.36776 3.09357 5.44463 3.35258 5.54 3.605L4.84 3.93C4.78015 3.95746 4.72631 3.99647 4.68158 4.04479C4.63685 4.09312 4.6021 4.1498 4.57934 4.21159C4.55657 4.27338 4.54624 4.33906 4.54893 4.40486C4.55161 4.47065 4.56727 4.53527 4.595 4.59499C5.3146 6.13637 6.55362 7.3754 8.095 8.095C8.21673 8.145 8.35327 8.145 8.475 8.095C8.53736 8.07269 8.59466 8.03822 8.64359 7.99359C8.69251 7.94896 8.73208 7.89505 8.76 7.835L9.07 7.135C9.32848 7.22743 9.59229 7.30424 9.86 7.365C9.99333 7.395 10.1283 7.42 10.265 7.44C10.3787 7.46439 10.4804 7.52766 10.5525 7.61892C10.6246 7.71018 10.6626 7.82372 10.66 7.94L10.67 9.5Z" fill="#065666"/>
</svg>
