<svg width="13" height="13" viewBox="0 0 13 13" fill="none" xmlns="http://www.w3.org/2000/svg">
<path d="M9.94592 4.84025C9.91612 4.77173 9.86772 4.71294 9.80621 4.67052C9.74471 4.6281 9.67255 4.60376 9.59792 4.60025H7.76592L8.27392 2.70425C8.2901 2.64492 8.29238 2.58266 8.28059 2.5223C8.26879 2.46195 8.24324 2.40512 8.20592 2.35625C8.16824 2.3073 8.11975 2.26775 8.06423 2.24068C8.00871 2.21362 7.94768 2.19978 7.88592 2.20025H5.08592C4.99561 2.19715 4.90692 2.22473 4.83429 2.27848C4.76165 2.33222 4.70936 2.40898 4.68592 2.49625L3.61392 6.49625C3.59761 6.55667 3.59571 6.62008 3.60836 6.68137C3.62102 6.74266 3.64788 6.80013 3.68678 6.84915C3.72569 6.89817 3.77555 6.93738 3.83237 6.96362C3.88919 6.98987 3.95137 7.00241 4.01392 7.00025H5.55392L4.82992 9.69625C4.8062 9.78318 4.81253 9.87558 4.84788 9.95847C4.88323 10.0414 4.94554 10.1099 5.0247 10.1529C5.10387 10.196 5.19525 10.2111 5.28404 10.1957C5.37283 10.1803 5.45383 10.1354 5.51392 10.0682L9.87392 5.26825C9.92583 5.2114 9.96024 5.14078 9.97301 5.06486C9.98579 4.98894 9.97638 4.91095 9.94592 4.84025ZM6.02992 8.31225L6.46192 6.71225C6.47997 6.65205 6.48358 6.58845 6.47246 6.5266C6.46134 6.46475 6.4358 6.40639 6.39792 6.35625C6.35984 6.30676 6.3107 6.26687 6.25444 6.23979C6.19818 6.2127 6.13635 6.19916 6.07392 6.20025H4.53792L5.39392 3.00025H7.36592L6.85792 4.89625C6.84161 4.95667 6.83971 5.02008 6.85236 5.08137C6.86502 5.14266 6.89188 5.20013 6.93078 5.24915C6.96969 5.29817 7.01955 5.33738 7.07637 5.36362C7.13319 5.38987 7.19537 5.40241 7.25792 5.40025H8.68592L6.02992 8.31225Z" fill="white"/>
</svg>
