<svg width="13" height="13" viewBox="0 0 13 13" fill="none" xmlns="http://www.w3.org/2000/svg">
<path d="M10.5823 4.90027C10.545 4.81463 10.4845 4.74113 10.4076 4.68811C10.3308 4.63509 10.2406 4.60466 10.1473 4.60027H7.85727L8.49227 2.23027C8.51249 2.15611 8.51535 2.07828 8.5006 2.00284C8.48586 1.92739 8.45392 1.85636 8.40727 1.79527C8.36018 1.73409 8.29956 1.68465 8.23016 1.65082C8.16076 1.61699 8.08447 1.59968 8.00727 1.60027H4.50727C4.39439 1.5964 4.28352 1.63087 4.19273 1.69805C4.10194 1.76524 4.03657 1.86119 4.00727 1.97027L2.66727 6.97027C2.64688 7.0458 2.6445 7.12506 2.66032 7.20167C2.67614 7.27829 2.70972 7.35012 2.75835 7.4114C2.80698 7.47267 2.86932 7.52169 2.94034 7.55449C3.01136 7.58729 3.08909 7.60297 3.16727 7.60027H5.09227L4.18727 10.9703C4.15762 11.0789 4.16553 11.1944 4.20972 11.298C4.25391 11.4017 4.3318 11.4873 4.43075 11.5411C4.5297 11.5949 4.64393 11.6138 4.75492 11.5946C4.86591 11.5753 4.96716 11.5192 5.04227 11.4353L10.4923 5.43527C10.5572 5.36421 10.6002 5.27594 10.6161 5.18104C10.6321 5.08614 10.6203 4.98865 10.5823 4.90027ZM5.68727 9.24027L6.22727 7.24027C6.24983 7.16503 6.25434 7.08552 6.24044 7.00821C6.22654 6.9309 6.19462 6.85795 6.14727 6.79527C6.09967 6.73341 6.03825 6.68355 5.96792 6.64969C5.89759 6.61583 5.82031 6.5989 5.74227 6.60027H3.82227L4.89227 2.60027H7.35727L6.72227 4.97027C6.70188 5.0458 6.6995 5.12506 6.71532 5.20167C6.73114 5.27829 6.76472 5.35012 6.81335 5.4114C6.86198 5.47267 6.92432 5.52169 6.99534 5.55449C7.06636 5.58729 7.14409 5.60297 7.22227 5.60027H9.00727L5.68727 9.24027Z" fill="white"/>
</svg>
