<svg width="13" height="13" viewBox="0 0 13 13" fill="none" xmlns="http://www.w3.org/2000/svg">
<path d="M5.05002 4.5499C4.85002 4.3499 4.55002 4.3499 4.35002 4.5499C4.15002 4.7499 4.15002 5.0499 4.35002 5.2499L5.45002 6.3999L4.30002 7.5499C4.20002 7.6499 4.15002 7.7499 4.15002 7.8999C4.15002 8.1999 4.35002 8.3999 4.65002 8.3999C4.80002 8.3999 4.90002 8.3499 5.00002 8.2499L6.50002 6.7499C6.70002 6.5499 6.70002 6.2499 6.50002 6.0499L5.05002 4.5499ZM9.30002 6.0499L7.80002 4.5499C7.60002 4.3499 7.30002 4.3499 7.10002 4.5499C6.90002 4.7499 6.90002 5.0499 7.10002 5.2499L8.25002 6.3999L7.10002 7.5499C7.00002 7.6499 6.95002 7.7499 6.95002 7.8999C6.95002 8.1999 7.15002 8.3999 7.45002 8.3999C7.60002 8.3999 7.70002 8.3499 7.80002 8.2499L9.30002 6.7499C9.45002 6.5499 9.45002 6.2499 9.30002 6.0499Z" fill="#065666"/>
</svg>
