<svg width="13" height="13" viewBox="0 0 13 13" fill="none" xmlns="http://www.w3.org/2000/svg">
<path d="M9.94604 5.44022C9.91624 5.37171 9.86784 5.31291 9.80634 5.2705C9.74483 5.22808 9.67267 5.20373 9.59804 5.20022H7.76604L8.27404 3.30422C8.29022 3.24489 8.2925 3.18263 8.28071 3.12228C8.26891 3.06192 8.24336 3.0051 8.20604 2.95622C8.16837 2.90728 8.11987 2.86773 8.06435 2.84066C8.00883 2.8136 7.9478 2.79975 7.88604 2.80022H5.08604C4.99574 2.79713 4.90704 2.8247 4.83441 2.87845C4.76178 2.9322 4.70948 3.00896 4.68604 3.09622L3.61404 7.09622C3.59773 7.15665 3.59583 7.22005 3.60848 7.28134C3.62114 7.34264 3.648 7.4001 3.6869 7.44912C3.72581 7.49815 3.77568 7.53736 3.83249 7.5636C3.88931 7.58984 3.95149 7.60239 4.01404 7.60022H5.55404L4.83004 10.2962C4.80632 10.3832 4.81265 10.4756 4.848 10.5584C4.88335 10.6413 4.94566 10.7099 5.02482 10.7529C5.10399 10.796 5.19537 10.811 5.28416 10.7957C5.37296 10.7803 5.45396 10.7354 5.51404 10.6682L9.87404 5.86822C9.92596 5.81138 9.96036 5.74076 9.97314 5.66484C9.98591 5.58892 9.9765 5.51093 9.94604 5.44022ZM6.03004 8.91222L6.46204 7.31222C6.48009 7.25203 6.4837 7.18843 6.47258 7.12658C6.46146 7.06472 6.43592 7.00636 6.39804 6.95622C6.35996 6.90674 6.31082 6.86685 6.25456 6.83976C6.1983 6.81267 6.13647 6.79913 6.07404 6.80022H4.53804L5.39404 3.60022H7.36604L6.85804 5.49622C6.84173 5.55664 6.83983 5.62005 6.85248 5.68134C6.86514 5.74264 6.892 5.8001 6.9309 5.84912C6.96981 5.89815 7.01968 5.93736 7.07649 5.9636C7.13331 5.98984 7.19549 6.00239 7.25804 6.00022H8.68604L6.03004 8.91222Z" fill="white"/>
</svg>
