<svg width="13" height="13" viewBox="0 0 13 13" fill="none" xmlns="http://www.w3.org/2000/svg">
<path d="M10.1202 7.39978C10.0102 7.39978 9.8952 7.36478 9.7852 7.33978C9.56244 7.29069 9.34353 7.22552 9.1302 7.14478C8.89824 7.06039 8.64327 7.06477 8.41435 7.15708C8.18543 7.24938 7.99874 7.42309 7.8902 7.64478L7.7802 7.86978C7.2932 7.59886 6.84569 7.26239 6.4502 6.86978C6.05758 6.47428 5.72111 6.02677 5.4502 5.53978L5.6602 5.39978C5.88188 5.29123 6.05559 5.10454 6.14789 4.87562C6.2402 4.6467 6.24458 4.39173 6.1602 4.15978C6.08081 3.94599 6.01567 3.72717 5.9652 3.50478C5.9402 3.39478 5.9202 3.27978 5.9052 3.16478C5.84448 2.81259 5.66001 2.49365 5.38501 2.2654C5.11001 2.03714 4.76254 1.91458 4.4052 1.91978H2.9052C2.68971 1.91775 2.47632 1.96218 2.27955 2.05004C2.08278 2.1379 1.90725 2.26712 1.76491 2.42892C1.62257 2.59071 1.51676 2.78127 1.45469 2.98763C1.39262 3.19399 1.37574 3.4113 1.4052 3.62478C1.67157 5.71947 2.62821 7.66571 4.12402 9.15609C5.61983 10.6465 7.56955 11.596 9.6652 11.8548H9.8552C10.2239 11.8553 10.5799 11.72 10.8552 11.4748C11.0134 11.3333 11.1397 11.1599 11.2259 10.9659C11.3121 10.772 11.3562 10.562 11.3552 10.3498V8.84978C11.3491 8.50247 11.2226 8.16805 10.9974 7.90361C10.7721 7.63917 10.4621 7.46109 10.1202 7.39978V7.39978ZM10.3702 10.3998C10.3701 10.4708 10.3549 10.5409 10.3256 10.6056C10.2963 10.6702 10.2535 10.7279 10.2002 10.7748C10.1445 10.8233 10.0792 10.8595 10.0085 10.881C9.93788 10.9026 9.86349 10.909 9.7902 10.8998C7.91765 10.6597 6.17832 9.80302 4.84655 8.46492C3.51479 7.12682 2.6664 5.38344 2.4352 3.50978C2.42724 3.43653 2.43421 3.36244 2.4557 3.29197C2.47718 3.2215 2.51273 3.15612 2.5602 3.09978C2.60705 3.04644 2.66473 3.0037 2.72939 2.97438C2.79404 2.94507 2.8642 2.92987 2.9352 2.92978H4.4352C4.55147 2.92719 4.66501 2.96522 4.75627 3.03731C4.84753 3.10941 4.9108 3.21106 4.9352 3.32478C4.9552 3.46144 4.9802 3.59644 5.0102 3.72978C5.06796 3.99335 5.14483 4.25237 5.2402 4.50478L4.5402 4.82978C4.48035 4.85724 4.42651 4.89625 4.38178 4.94457C4.33704 4.9929 4.3023 5.04958 4.27953 5.11137C4.25677 5.17316 4.24643 5.23884 4.24912 5.30464C4.25181 5.37043 4.26747 5.43505 4.2952 5.49478C5.0148 7.03615 6.25382 8.27518 7.7952 8.99478C7.91693 9.04478 8.05347 9.04478 8.1752 8.99478C8.23755 8.97247 8.29486 8.938 8.34378 8.89337C8.39271 8.84874 8.43228 8.79483 8.4602 8.73478L8.7702 8.03478C9.02868 8.12721 9.29249 8.20402 9.5602 8.26478C9.69353 8.29478 9.82853 8.31978 9.9652 8.33978C10.0789 8.36417 10.1806 8.42744 10.2527 8.5187C10.3248 8.60996 10.3628 8.7235 10.3602 8.83978L10.3702 10.3998Z" fill="#1A365D"/>
</svg>
