<svg width="12" height="13" viewBox="0 0 12 13" fill="none" xmlns="http://www.w3.org/2000/svg">
<path d="M10.1824 4.90027C10.1451 4.81463 10.0846 4.74113 10.0078 4.68811C9.93088 4.63509 9.84069 4.60466 9.7474 4.60027H7.4574L8.0924 2.23027C8.11262 2.15611 8.11547 2.07828 8.10073 2.00284C8.08599 1.92739 8.05405 1.85636 8.0074 1.79527C7.96031 1.73409 7.89969 1.68465 7.83029 1.65082C7.76089 1.61699 7.6846 1.59968 7.6074 1.60027H4.1074C3.99452 1.5964 3.88365 1.63087 3.79286 1.69805C3.70207 1.76524 3.6367 1.86119 3.6074 1.97027L2.2674 6.97027C2.24701 7.0458 2.24463 7.12506 2.26045 7.20167C2.27627 7.27829 2.30984 7.35012 2.35848 7.4114C2.40711 7.47267 2.46944 7.52169 2.54047 7.55449C2.61149 7.58729 2.68921 7.60297 2.7674 7.60027H4.6924L3.7874 10.9703C3.75775 11.0789 3.76566 11.1944 3.80985 11.298C3.85404 11.4017 3.93192 11.4873 4.03088 11.5411C4.12983 11.5949 4.24406 11.6138 4.35505 11.5946C4.46604 11.5753 4.56729 11.5192 4.6424 11.4353L10.0924 5.43527C10.1573 5.36421 10.2003 5.27594 10.2163 5.18104C10.2322 5.08614 10.2205 4.98865 10.1824 4.90027ZM5.2874 9.24027L5.8274 7.24027C5.84996 7.16503 5.85447 7.08552 5.84057 7.00821C5.82667 6.9309 5.79475 6.85795 5.7474 6.79527C5.6998 6.73341 5.63837 6.68355 5.56805 6.64969C5.49772 6.61583 5.42044 6.5989 5.3424 6.60027H3.4224L4.4924 2.60027H6.9574L6.3224 4.97027C6.30201 5.0458 6.29963 5.12506 6.31545 5.20167C6.33127 5.27829 6.36484 5.35012 6.41348 5.4114C6.46211 5.47267 6.52444 5.52169 6.59546 5.55449C6.66649 5.58729 6.74421 5.60297 6.8224 5.60027H8.6074L5.2874 9.24027Z" fill="white"/>
</svg>
