<svg width="12" height="13" viewBox="0 0 12 13" fill="none" xmlns="http://www.w3.org/2000/svg">
<path d="M10.1822 4.90027C10.1449 4.81463 10.0844 4.74113 10.0075 4.68811C9.93064 4.63509 9.84044 4.60466 9.74715 4.60027H7.45715L8.09215 2.23027C8.11238 2.15611 8.11523 2.07828 8.10049 2.00284C8.08575 1.92739 8.05381 1.85636 8.00715 1.79527C7.96006 1.73409 7.89944 1.68465 7.83004 1.65082C7.76065 1.61699 7.68436 1.59968 7.60715 1.60027H4.10715C3.99427 1.5964 3.88341 1.63087 3.79262 1.69805C3.70182 1.76524 3.63645 1.86119 3.60715 1.97027L2.26715 6.97027C2.24677 7.0458 2.24439 7.12506 2.26021 7.20167C2.27602 7.27829 2.3096 7.35012 2.35823 7.4114C2.40687 7.47267 2.4692 7.52169 2.54022 7.55449C2.61124 7.58729 2.68897 7.60297 2.76715 7.60027H4.69215L3.78715 10.9703C3.7575 11.0789 3.76541 11.1944 3.80961 11.298C3.8538 11.4017 3.93168 11.4873 4.03063 11.5411C4.12959 11.5949 4.24382 11.6138 4.35481 11.5946C4.4658 11.5753 4.56705 11.5192 4.64215 11.4353L10.0922 5.43527C10.157 5.36421 10.2001 5.27594 10.216 5.18104C10.232 5.08614 10.2202 4.98865 10.1822 4.90027ZM5.28715 9.24027L5.82715 7.24027C5.84971 7.16503 5.85423 7.08552 5.84033 7.00821C5.82643 6.9309 5.79451 6.85795 5.74715 6.79527C5.69955 6.73341 5.63813 6.68355 5.5678 6.64969C5.49747 6.61583 5.4202 6.5989 5.34215 6.60027H3.42215L4.49215 2.60027H6.95715L6.32215 4.97027C6.30177 5.0458 6.29939 5.12506 6.31521 5.20167C6.33102 5.27829 6.3646 5.35012 6.41323 5.4114C6.46187 5.47267 6.5242 5.52169 6.59522 5.55449C6.66624 5.58729 6.74397 5.60297 6.82215 5.60027H8.60715L5.28715 9.24027Z" fill="white"/>
</svg>
