<svg width="13" height="13" viewBox="0 0 13 13" fill="none" xmlns="http://www.w3.org/2000/svg">
<path d="M10.3823 5.10039C10.3451 5.01475 10.2846 4.94125 10.2077 4.88823C10.1308 4.83521 10.0406 4.80478 9.94735 4.80039H7.65735L8.29235 2.43039C8.31257 2.35623 8.31543 2.2784 8.30068 2.20295C8.28594 2.12751 8.254 2.05648 8.20735 1.99539C8.16026 1.93421 8.09964 1.88477 8.03024 1.85094C7.96084 1.8171 7.88455 1.7998 7.80735 1.80039H4.30735C4.19447 1.79652 4.0836 1.83099 3.99281 1.89817C3.90202 1.96536 3.83665 2.06131 3.80735 2.17039L2.46735 7.17039C2.44696 7.24592 2.44458 7.32517 2.4604 7.40179C2.47622 7.4784 2.5098 7.55024 2.55843 7.61152C2.60706 7.67279 2.66939 7.7218 2.74042 7.75461C2.81144 7.78741 2.88917 7.80309 2.96735 7.80039H4.89235L3.98735 11.1704C3.9577 11.2791 3.96561 11.3946 4.0098 11.4982C4.05399 11.6018 4.13188 11.6874 4.23083 11.7412C4.32978 11.7951 4.44401 11.8139 4.555 11.7947C4.66599 11.7755 4.76724 11.7193 4.84235 11.6354L10.2923 5.63539C10.3572 5.56433 10.4003 5.47605 10.4162 5.38116C10.4322 5.28626 10.4204 5.18877 10.3823 5.10039ZM5.48735 9.44039L6.02735 7.44039C6.04991 7.36514 6.05442 7.28564 6.04052 7.20833C6.02662 7.13102 5.9947 7.05806 5.94735 6.99539C5.89975 6.93353 5.83832 6.88367 5.768 6.84981C5.69767 6.81595 5.62039 6.79902 5.54235 6.80039H3.62235L4.69235 2.80039H7.15735L6.52235 5.17039C6.50196 5.24592 6.49958 5.32517 6.5154 5.40179C6.53122 5.4784 6.5648 5.55024 6.61343 5.61152C6.66206 5.67279 6.72439 5.7218 6.79542 5.75461C6.86644 5.78741 6.94416 5.80309 7.02235 5.80039H8.80735L5.48735 9.44039Z" fill="white"/>
</svg>
