<svg width="13" height="13" viewBox="0 0 13 13" fill="none" xmlns="http://www.w3.org/2000/svg">
<path d="M5.0499 4.34995C4.8499 4.14995 4.5499 4.14995 4.3499 4.34995C4.1499 4.54995 4.1499 4.84995 4.3499 5.04995L5.4499 6.19995L4.2999 7.34995C4.1999 7.44995 4.1499 7.54995 4.1499 7.69995C4.1499 7.99995 4.3499 8.19995 4.6499 8.19995C4.7999 8.19995 4.8999 8.14995 4.9999 8.04995L6.4999 6.54995C6.6999 6.34995 6.6999 6.04995 6.4999 5.84995L5.0499 4.34995ZM9.2999 5.84995L7.7999 4.34995C7.5999 4.14995 7.2999 4.14995 7.0999 4.34995C6.8999 4.54995 6.8999 4.84995 7.0999 5.04995L8.2499 6.19995L7.0999 7.34995C6.9999 7.44995 6.9499 7.54995 6.9499 7.69995C6.9499 7.99995 7.1499 8.19995 7.4499 8.19995C7.5999 8.19995 7.6999 8.14995 7.7999 8.04995L9.2999 6.54995C9.4499 6.34995 9.4499 6.04995 9.2999 5.84995Z" fill="white"/>
</svg>
