<svg width="13" height="13" viewBox="0 0 13 13" fill="none" xmlns="http://www.w3.org/2000/svg">
<path d="M9.74572 5.04032C9.71592 4.97181 9.66752 4.91301 9.60602 4.87059C9.54451 4.82818 9.47235 4.80383 9.39772 4.80032H7.56572L8.07372 2.90432C8.0899 2.84499 8.09218 2.78273 8.08039 2.72237C8.0686 2.66202 8.04305 2.6052 8.00572 2.55632C7.96805 2.50738 7.91955 2.46782 7.86403 2.44076C7.80852 2.41369 7.74749 2.39985 7.68572 2.40032H4.88572C4.79542 2.39723 4.70673 2.4248 4.63409 2.47855C4.56146 2.5323 4.50916 2.60906 4.48572 2.69632L3.41372 6.69632C3.39741 6.75674 3.39551 6.82015 3.40817 6.88144C3.42082 6.94273 3.44768 7.0002 3.48659 7.04922C3.52549 7.09824 3.57536 7.13745 3.63218 7.1637C3.68899 7.18994 3.75118 7.20248 3.81372 7.20032H5.35372L4.62972 9.89632C4.606 9.98326 4.61233 10.0757 4.64768 10.1585C4.68304 10.2414 4.74534 10.31 4.82451 10.353C4.90367 10.3961 4.99505 10.4111 5.08384 10.3958C5.17264 10.3804 5.25364 10.3355 5.31372 10.2683L9.67372 5.46832C9.72564 5.41147 9.76005 5.34085 9.77282 5.26493C9.78559 5.18902 9.77618 5.11102 9.74572 5.04032ZM5.82972 8.51232L6.26172 6.91232C6.27977 6.85212 6.28338 6.78852 6.27226 6.72667C6.26114 6.66482 6.23561 6.60646 6.19772 6.55632C6.15964 6.50683 6.1105 6.46695 6.05424 6.43986C5.99798 6.41277 5.93616 6.39923 5.87372 6.40032H4.33772L5.19372 3.20032H7.16572L6.65772 5.09632C6.64141 5.15674 6.63951 5.22015 6.65217 5.28144C6.66482 5.34273 6.69168 5.4002 6.73059 5.44922C6.76949 5.49824 6.81936 5.53745 6.87618 5.5637C6.93299 5.58994 6.99518 5.60248 7.05772 5.60032H8.48572L5.82972 8.51232Z" fill="#A1AEBF"/>
</svg>
