<svg width="13" height="13" viewBox="0 0 13 13" fill="none" xmlns="http://www.w3.org/2000/svg">
<path d="M8.69996 5.38502C8.60627 5.29189 8.47955 5.23962 8.34746 5.23962C8.21536 5.23962 8.08864 5.29189 7.99496 5.38502L6.19996 7.15502L4.42996 5.38502C4.33627 5.29189 4.20955 5.23962 4.07746 5.23962C3.94536 5.23962 3.81864 5.29189 3.72496 5.38502C3.67809 5.4315 3.64089 5.4868 3.61551 5.54773C3.59013 5.60866 3.57706 5.67401 3.57706 5.74002C3.57706 5.80603 3.59013 5.87138 3.61551 5.93231C3.64089 5.99324 3.67809 6.04854 3.72496 6.09502L5.84496 8.21502C5.89144 8.26188 5.94674 8.29908 6.00767 8.32447C6.0686 8.34985 6.13395 8.36292 6.19996 8.36292C6.26596 8.36292 6.33131 8.34985 6.39224 8.32447C6.45317 8.29908 6.50847 8.26188 6.55496 8.21502L8.69996 6.09502C8.74682 6.04854 8.78402 5.99324 8.8094 5.93231C8.83479 5.87138 8.84786 5.80603 8.84786 5.74002C8.84786 5.67401 8.83479 5.60866 8.8094 5.54773C8.78402 5.4868 8.74682 5.4315 8.69996 5.38502Z" fill="white"/>
</svg>
