<svg width="12" height="12" viewBox="0 0 12 12" fill="none" xmlns="http://www.w3.org/2000/svg">
<path d="M4.24998 4.75022C4.04998 4.55022 3.74998 4.55022 3.54998 4.75022C3.34998 4.95022 3.34998 5.25022 3.54998 5.45022L4.64998 6.60022L3.49998 7.75022C3.39998 7.85022 3.34998 7.95022 3.34998 8.10022C3.34998 8.40022 3.54998 8.60022 3.84998 8.60022C3.99998 8.60022 4.09998 8.55022 4.19998 8.45022L5.69998 6.95022C5.89998 6.75022 5.89998 6.45022 5.69998 6.25022L4.24998 4.75022ZM8.49998 6.25022L6.99998 4.75022C6.79998 4.55022 6.49998 4.55022 6.29998 4.75022C6.09998 4.95022 6.09998 5.25022 6.29998 5.45022L7.44998 6.60022L6.29998 7.75022C6.19998 7.85022 6.14998 7.95022 6.14998 8.10022C6.14998 8.40022 6.34998 8.60022 6.64998 8.60022C6.79998 8.60022 6.89998 8.55022 6.99998 8.45022L8.49998 6.95022C8.64998 6.75022 8.64998 6.45022 8.49998 6.25022Z" fill="#065666"/>
</svg>
