<svg width="13" height="13" viewBox="0 0 13 13" fill="none" xmlns="http://www.w3.org/2000/svg">
<path d="M9.54583 5.24027C9.51603 5.17176 9.46763 5.11296 9.40613 5.07054C9.34462 5.02813 9.27246 5.00378 9.19783 5.00027H7.36583L7.87383 3.10427C7.89001 3.04494 7.89229 2.98268 7.8805 2.92232C7.86871 2.86197 7.84316 2.80515 7.80583 2.75627C7.76816 2.70733 7.71966 2.66777 7.66414 2.64071C7.60863 2.61364 7.5476 2.5998 7.48583 2.60027H4.68583C4.59553 2.59718 4.50684 2.62475 4.4342 2.6785C4.36157 2.73225 4.30927 2.80901 4.28583 2.89627L3.21383 6.89627C3.19752 6.95669 3.19562 7.0201 3.20827 7.08139C3.22093 7.14268 3.24779 7.20015 3.2867 7.24917C3.3256 7.2982 3.37547 7.3374 3.43229 7.36365C3.4891 7.38989 3.55129 7.40243 3.61383 7.40027H5.15383L4.42983 10.0963C4.40611 10.1832 4.41244 10.2756 4.44779 10.3585C4.48315 10.4414 4.54545 10.5099 4.62462 10.553C4.70378 10.596 4.79516 10.6111 4.88395 10.5957C4.97275 10.5803 5.05375 10.5354 5.11383 10.4683L9.47383 5.66827C9.52575 5.61143 9.56016 5.5408 9.57293 5.46489C9.5857 5.38897 9.57629 5.31098 9.54583 5.24027ZM5.62983 8.71227L6.06183 7.11227C6.07988 7.05208 6.08349 6.98848 6.07237 6.92662C6.06125 6.86477 6.03572 6.80641 5.99783 6.75627C5.95975 6.70678 5.91061 6.6669 5.85435 6.63981C5.79809 6.61272 5.73627 6.59918 5.67383 6.60027H4.13783L4.99383 3.40027H6.96583L6.45783 5.29627C6.44152 5.35669 6.43962 5.4201 6.45227 5.48139C6.46493 5.54268 6.49179 5.60015 6.5307 5.64917C6.5696 5.6982 6.61947 5.7374 6.67629 5.76365C6.7331 5.78989 6.79529 5.80243 6.85783 5.80027H8.28583L5.62983 8.71227Z" fill="white"/>
</svg>
