<svg width="12" height="13" viewBox="0 0 12 13" fill="none" xmlns="http://www.w3.org/2000/svg">
<path d="M10.1823 5.10033C10.1451 5.01469 10.0846 4.94119 10.0077 4.88817C9.93079 4.83515 9.8406 4.80472 9.74731 4.80033H7.45731L8.09231 2.43033C8.11253 2.35616 8.11538 2.27834 8.10064 2.20289C8.0859 2.12745 8.05396 2.05642 8.00731 1.99533C7.96021 1.93415 7.89959 1.88471 7.8302 1.85087C7.7608 1.81704 7.68451 1.79974 7.60731 1.80033H4.10731C3.99443 1.79646 3.88356 1.83093 3.79277 1.89811C3.70198 1.9653 3.63661 2.06125 3.60731 2.17033L2.26731 7.17033C2.24692 7.24586 2.24454 7.32511 2.26036 7.40173C2.27618 7.47834 2.30975 7.55018 2.35839 7.61146C2.40702 7.67273 2.46935 7.72174 2.54037 7.75455C2.61139 7.78735 2.68912 7.80303 2.76731 7.80033H4.69231L3.78731 11.1703C3.75766 11.279 3.76557 11.3945 3.80976 11.4981C3.85395 11.6017 3.93183 11.6874 4.03079 11.7412C4.12974 11.795 4.24397 11.8138 4.35496 11.7946C4.46595 11.7754 4.5672 11.7193 4.64231 11.6353L10.0923 5.63533C10.1572 5.56427 10.2002 5.47599 10.2162 5.38109C10.2321 5.2862 10.2204 5.18871 10.1823 5.10033ZM5.28731 9.44033L5.82731 7.44033C5.84987 7.36508 5.85438 7.28558 5.84048 7.20827C5.82658 7.13095 5.79466 7.058 5.74731 6.99533C5.69971 6.93347 5.63828 6.88361 5.56795 6.84975C5.49763 6.81589 5.42035 6.79896 5.34231 6.80033H3.42231L4.49231 2.80033H6.95731L6.32231 5.17033C6.30192 5.24586 6.29954 5.32511 6.31536 5.40173C6.33118 5.47834 6.36475 5.55018 6.41339 5.61145C6.46202 5.67273 6.52435 5.72174 6.59537 5.75455C6.66639 5.78735 6.74412 5.80303 6.82231 5.80033H8.60731L5.28731 9.44033Z" fill="white"/>
</svg>
