<svg width="13" height="13" viewBox="0 0 13 13" fill="none" xmlns="http://www.w3.org/2000/svg">
<path d="M4.55002 4.94996C4.35002 4.74996 4.05002 4.74996 3.85002 4.94996C3.65002 5.14996 3.65002 5.44996 3.85002 5.64996L4.95002 6.79996L3.80002 7.94996C3.70002 8.04996 3.65002 8.14996 3.65002 8.29996C3.65002 8.59996 3.85002 8.79996 4.15002 8.79996C4.30002 8.79996 4.40002 8.74996 4.50002 8.64996L6.00002 7.14996C6.20002 6.94996 6.20002 6.64996 6.00002 6.44996L4.55002 4.94996ZM8.80002 6.44996L7.30002 4.94996C7.10002 4.74996 6.80002 4.74996 6.60002 4.94996C6.40002 5.14996 6.40002 5.44996 6.60002 5.64996L7.75002 6.79996L6.60002 7.94996C6.50002 8.04996 6.45002 8.14996 6.45002 8.29996C6.45002 8.59996 6.65002 8.79996 6.95002 8.79996C7.10002 8.79996 7.20002 8.74996 7.30002 8.64996L8.80002 7.14996C8.95002 6.94996 8.95002 6.64996 8.80002 6.44996Z" fill="white"/>
</svg>
