<svg width="12" height="13" viewBox="0 0 12 13" fill="none" xmlns="http://www.w3.org/2000/svg">
<path d="M4.24985 4.95017C4.04985 4.75017 3.74985 4.75017 3.54985 4.95017C3.34985 5.15017 3.34985 5.45017 3.54985 5.65017L4.64985 6.80017L3.49985 7.95017C3.39985 8.05017 3.34985 8.15017 3.34985 8.30017C3.34985 8.60017 3.54985 8.80017 3.84985 8.80017C3.99985 8.80017 4.09985 8.75017 4.19985 8.65017L5.69985 7.15017C5.89985 6.95017 5.89985 6.65017 5.69985 6.45017L4.24985 4.95017ZM8.49985 6.45017L6.99985 4.95017C6.79985 4.75017 6.49985 4.75017 6.29985 4.95017C6.09985 5.15017 6.09985 5.45017 6.29985 5.65017L7.44985 6.80017L6.29985 7.95017C6.19985 8.05017 6.14985 8.15017 6.14985 8.30017C6.14985 8.60017 6.34985 8.80017 6.64985 8.80017C6.79985 8.80017 6.89985 8.75017 6.99985 8.65017L8.49985 7.15017C8.64985 6.95017 8.64985 6.65017 8.49985 6.45017Z" fill="white"/>
</svg>
