<svg width="13" height="13" viewBox="0 0 13 13" fill="none" xmlns="http://www.w3.org/2000/svg">
<path d="M5.05002 4.74998C4.85002 4.54998 4.55002 4.54998 4.35002 4.74998C4.15002 4.94998 4.15002 5.24998 4.35002 5.44998L5.45002 6.59998L4.30002 7.74998C4.20002 7.84998 4.15002 7.94998 4.15002 8.09998C4.15002 8.39998 4.35002 8.59998 4.65002 8.59998C4.80002 8.59998 4.90002 8.54998 5.00002 8.44998L6.50002 6.94998C6.70002 6.74998 6.70002 6.44998 6.50002 6.24998L5.05002 4.74998ZM9.30002 6.24998L7.80002 4.74998C7.60002 4.54998 7.30002 4.54998 7.10002 4.74998C6.90002 4.94998 6.90002 5.24998 7.10002 5.44998L8.25002 6.59998L7.10002 7.74998C7.00002 7.84998 6.95002 7.94998 6.95002 8.09998C6.95002 8.39998 7.15002 8.59998 7.45002 8.59998C7.60002 8.59998 7.70002 8.54998 7.80002 8.44998L9.30002 6.94998C9.45002 6.74998 9.45002 6.44998 9.30002 6.24998Z" fill="white"/>
</svg>
