<svg width="13" height="12" viewBox="0 0 13 12" fill="none" xmlns="http://www.w3.org/2000/svg">
<path d="M10.7821 4.90048C10.7449 4.81484 10.6844 4.74135 10.6075 4.68832C10.5306 4.6353 10.4404 4.60487 10.3471 4.60048H8.05713L8.69213 2.23048C8.71235 2.15632 8.71521 2.07849 8.70046 2.00305C8.68572 1.92761 8.65378 1.85658 8.60713 1.79548C8.56004 1.7343 8.49942 1.68486 8.43002 1.65103C8.36062 1.6172 8.28433 1.5999 8.20713 1.60048H4.70713C4.59425 1.59662 4.48338 1.63108 4.39259 1.69827C4.3018 1.76545 4.23643 1.8614 4.20713 1.97048L2.86713 6.97048C2.84674 7.04601 2.84436 7.12527 2.86018 7.20188C2.876 7.2785 2.90958 7.35033 2.95821 7.41161C3.00684 7.47289 3.06918 7.5219 3.1402 7.5547C3.21122 7.58751 3.28895 7.60319 3.36713 7.60048H5.29213L4.38713 10.9705C4.35748 11.0792 4.36539 11.1946 4.40958 11.2983C4.45377 11.4019 4.53166 11.4875 4.63061 11.5413C4.72956 11.5952 4.84379 11.614 4.95478 11.5948C5.06577 11.5756 5.16702 11.5194 5.24213 11.4355L10.6921 5.43548C10.757 5.36442 10.8 5.27615 10.816 5.18125C10.832 5.08635 10.8202 4.98886 10.7821 4.90048ZM5.88713 9.24048L6.42713 7.24048C6.44969 7.16524 6.4542 7.08574 6.4403 7.00842C6.4264 6.93111 6.39448 6.85816 6.34713 6.79548C6.29953 6.73362 6.23811 6.68377 6.16778 6.64991C6.09745 6.61604 6.02017 6.59912 5.94213 6.60048H4.02213L5.09213 2.60048H7.55713L6.92213 4.97048C6.90174 5.04601 6.89936 5.12527 6.91518 5.20188C6.931 5.2785 6.96458 5.35033 7.01321 5.41161C7.06184 5.47289 7.12418 5.5219 7.1952 5.5547C7.26622 5.58751 7.34395 5.60319 7.42213 5.60048H9.20713L5.88713 9.24048Z" fill="white"/>
</svg>
