<svg width="13" height="13" viewBox="0 0 13 13" fill="none" xmlns="http://www.w3.org/2000/svg">
<path d="M10.12 7.30011C10.01 7.30011 9.89495 7.26511 9.78495 7.24011C9.56219 7.19102 9.34329 7.12585 9.12995 7.0451C8.898 6.96072 8.64303 6.9651 8.41411 7.05741C8.18519 7.14971 7.99849 7.32342 7.88995 7.5451L7.77995 7.7701C7.29295 7.49919 6.84544 7.16272 6.44995 6.7701C6.05734 6.37461 5.72086 5.9271 5.44995 5.4401L5.65995 5.3001C5.88164 5.19156 6.05534 5.00487 6.14765 4.77595C6.23996 4.54703 6.24434 4.29206 6.15995 4.0601C6.08056 3.84632 6.01542 3.6275 5.96495 3.4051C5.93995 3.2951 5.91995 3.18011 5.90495 3.06511C5.84424 2.71291 5.65977 2.39398 5.38476 2.16572C5.10976 1.93747 4.7623 1.81491 4.40495 1.8201H2.90495C2.68947 1.81808 2.47608 1.86251 2.27931 1.95037C2.08254 2.03823 1.90701 2.16745 1.76467 2.32925C1.62233 2.49104 1.51652 2.6816 1.45445 2.88796C1.39237 3.09432 1.37549 3.31163 1.40495 3.5251C1.67132 5.6198 2.62797 7.56604 4.12378 9.05642C5.61959 10.5468 7.56931 11.4964 9.66495 11.7551H9.85495C10.2237 11.7556 10.5797 11.6204 10.855 11.3751C11.0131 11.2336 11.1395 11.0602 11.2257 10.8663C11.3119 10.6723 11.3559 10.4623 11.355 10.2501V8.7501C11.3488 8.4028 11.2224 8.06838 10.9971 7.80394C10.7719 7.53949 10.4619 7.36142 10.12 7.30011V7.30011ZM10.37 10.3001C10.3699 10.3711 10.3547 10.4413 10.3253 10.5059C10.296 10.5706 10.2533 10.6283 10.2 10.6751C10.1443 10.7236 10.0789 10.7598 10.0083 10.7814C9.93764 10.8029 9.86324 10.8093 9.78995 10.8001C7.9174 10.56 6.17807 9.70335 4.84631 8.36525C3.51455 7.02715 2.66616 5.28377 2.43495 3.4101C2.427 3.33686 2.43397 3.26277 2.45545 3.1923C2.47694 3.12183 2.51249 3.05645 2.55995 3.00011C2.60681 2.94677 2.66448 2.90403 2.72914 2.87471C2.7938 2.8454 2.86396 2.83019 2.93495 2.8301H4.43495C4.55123 2.82752 4.66476 2.86554 4.75602 2.93764C4.84728 3.00974 4.91056 3.11139 4.93495 3.2251C4.95495 3.36177 4.97995 3.49677 5.00995 3.6301C5.06771 3.89368 5.14458 4.15269 5.23995 4.4051L4.53995 4.7301C4.4801 4.75757 4.42626 4.79658 4.38153 4.8449C4.3368 4.89323 4.30205 4.94991 4.27929 5.0117C4.25652 5.07349 4.24619 5.13917 4.24888 5.20497C4.25156 5.27076 4.26722 5.33538 4.29495 5.3951C5.01455 6.93648 6.25358 8.17551 7.79495 8.89511C7.91668 8.94511 8.05322 8.94511 8.17495 8.89511C8.23731 8.8728 8.29461 8.83833 8.34354 8.7937C8.39246 8.74907 8.43203 8.69516 8.45995 8.63511L8.76995 7.93511C9.02844 8.02754 9.29225 8.10435 9.55995 8.1651C9.69329 8.1951 9.82829 8.22011 9.96495 8.24011C10.0787 8.2645 10.1803 8.32777 10.2524 8.41903C10.3245 8.51029 10.3625 8.62383 10.36 8.74011L10.37 10.3001Z" fill="#065666"/>
</svg>
