<svg width="13" height="13" viewBox="0 0 13 13" fill="none" xmlns="http://www.w3.org/2000/svg">
<path d="M10.5823 4.7002C10.5451 4.61456 10.4846 4.54106 10.4077 4.48804C10.3308 4.43501 10.2406 4.40459 10.1473 4.4002H7.85733L8.49233 2.0302C8.51255 1.95603 8.51541 1.87821 8.50066 1.80276C8.48592 1.72732 8.45398 1.65629 8.40733 1.5952C8.36024 1.53402 8.29962 1.48457 8.23022 1.45074C8.16082 1.41691 8.08453 1.39961 8.00733 1.4002H4.50733C4.39445 1.39633 4.28358 1.4308 4.19279 1.49798C4.102 1.56517 4.03663 1.66111 4.00733 1.7702L2.66733 6.7702C2.64694 6.84572 2.64456 6.92498 2.66038 7.0016C2.6762 7.07821 2.70978 7.15005 2.75841 7.21132C2.80704 7.2726 2.86938 7.32161 2.9404 7.35442C3.01142 7.38722 3.08915 7.4029 3.16733 7.4002H5.09233L4.18733 10.7702C4.15768 10.8789 4.16559 10.9944 4.20978 11.098C4.25397 11.2016 4.33186 11.2872 4.43081 11.3411C4.52976 11.3949 4.64399 11.4137 4.75498 11.3945C4.86597 11.3753 4.96723 11.3191 5.04233 11.2352L10.4923 5.2352C10.5572 5.16414 10.6002 5.07586 10.6162 4.98096C10.6322 4.88607 10.6204 4.78858 10.5823 4.7002ZM5.68733 9.0402L6.22733 7.0402C6.24989 6.96495 6.2544 6.88545 6.2405 6.80814C6.2266 6.73082 6.19468 6.65787 6.14733 6.5952C6.09973 6.53334 6.03831 6.48348 5.96798 6.44962C5.89765 6.41576 5.82037 6.39883 5.74233 6.4002H3.82233L4.89233 2.4002H7.35733L6.72233 4.7702C6.70194 4.84572 6.69956 4.92498 6.71538 5.0016C6.7312 5.07821 6.76478 5.15005 6.81341 5.21132C6.86204 5.2726 6.92438 5.32161 6.9954 5.35442C7.06642 5.38722 7.14415 5.4029 7.22233 5.4002H9.00733L5.68733 9.0402Z" fill="white"/>
</svg>
