<svg width="13" height="13" viewBox="0 0 13 13" fill="none" xmlns="http://www.w3.org/2000/svg">
<path d="M10.9823 5.10033C10.945 5.01469 10.8845 4.94119 10.8076 4.88817C10.7307 4.83515 10.6406 4.80472 10.5473 4.80033H8.25726L8.89226 2.43033C8.91249 2.35616 8.91534 2.27834 8.9006 2.20289C8.88586 2.12745 8.85392 2.05642 8.80726 1.99533C8.76017 1.93415 8.69955 1.88471 8.63015 1.85087C8.56076 1.81704 8.48447 1.79974 8.40726 1.80033H4.90726C4.79438 1.79646 4.68352 1.83093 4.59273 1.89811C4.50193 1.9653 4.43656 2.06125 4.40726 2.17033L3.06726 7.17033C3.04688 7.24586 3.0445 7.32511 3.06032 7.40173C3.07613 7.47834 3.10971 7.55018 3.15834 7.61146C3.20698 7.67273 3.26931 7.72174 3.34033 7.75455C3.41135 7.78735 3.48908 7.80303 3.56726 7.80033H5.49226L4.58726 11.1703C4.55761 11.279 4.56552 11.3945 4.60972 11.4981C4.65391 11.6017 4.73179 11.6874 4.83074 11.7412C4.9297 11.795 5.04392 11.8138 5.15492 11.7946C5.26591 11.7754 5.36716 11.7193 5.44226 11.6353L10.8923 5.63533C10.9572 5.56427 11.0002 5.47599 11.0161 5.38109C11.0321 5.2862 11.0203 5.18871 10.9823 5.10033ZM6.08726 9.44033L6.62726 7.44033C6.64982 7.36508 6.65434 7.28558 6.64044 7.20827C6.62654 7.13095 6.59462 7.058 6.54726 6.99533C6.49966 6.93347 6.43824 6.88361 6.36791 6.84975C6.29758 6.81589 6.22031 6.79896 6.14226 6.80033H4.22226L5.29226 2.80033H7.75726L7.12226 5.17033C7.10188 5.24586 7.0995 5.32511 7.11532 5.40173C7.13113 5.47834 7.16471 5.55018 7.21334 5.61145C7.26198 5.67273 7.32431 5.72174 7.39533 5.75455C7.46635 5.78735 7.54408 5.80303 7.62226 5.80033H9.40726L6.08726 9.44033Z" fill="white"/>
</svg>
