<svg width="12" height="13" viewBox="0 0 12 13" fill="none" xmlns="http://www.w3.org/2000/svg">
<path d="M9.34594 4.84025C9.31614 4.77173 9.26774 4.71294 9.20624 4.67052C9.14473 4.6281 9.07257 4.60376 8.99794 4.60025H7.16594L7.67394 2.70425C7.69012 2.64492 7.6924 2.58266 7.68061 2.5223C7.66882 2.46195 7.64327 2.40512 7.60594 2.35625C7.56827 2.3073 7.51977 2.26775 7.46425 2.24068C7.40874 2.21362 7.34771 2.19978 7.28594 2.20025H4.48594C4.39564 2.19715 4.30695 2.22473 4.23431 2.27848C4.16168 2.33222 4.10938 2.40898 4.08594 2.49625L3.01394 6.49625C2.99763 6.55667 2.99573 6.62008 3.00838 6.68137C3.02104 6.74266 3.0479 6.80013 3.08681 6.84915C3.12571 6.89817 3.17558 6.93738 3.2324 6.96362C3.28921 6.98987 3.3514 7.00241 3.41394 7.00025H4.95394L4.22994 9.69625C4.20622 9.78318 4.21255 9.87558 4.2479 9.95847C4.28326 10.0414 4.34556 10.1099 4.42473 10.1529C4.50389 10.196 4.59527 10.2111 4.68406 10.1957C4.77286 10.1803 4.85386 10.1354 4.91394 10.0682L9.27394 5.26825C9.32586 5.2114 9.36027 5.14078 9.37304 5.06486C9.38581 4.98894 9.3764 4.91095 9.34594 4.84025ZM5.42994 8.31225L5.86194 6.71225C5.87999 6.65205 5.8836 6.58845 5.87248 6.5266C5.86136 6.46475 5.83583 6.40639 5.79794 6.35625C5.75986 6.30676 5.71072 6.26687 5.65446 6.23979C5.5982 6.2127 5.53638 6.19916 5.47394 6.20025H3.93794L4.79394 3.00025H6.76594L6.25794 4.89625C6.24163 4.95667 6.23973 5.02008 6.25238 5.08137C6.26504 5.14266 6.2919 5.20013 6.33081 5.24915C6.36971 5.29817 6.41958 5.33738 6.4764 5.36362C6.53321 5.38987 6.5954 5.40241 6.65794 5.40025H8.08594L5.42994 8.31225Z" fill="white"/>
</svg>
