<svg width="13" height="13" viewBox="0 0 13 13" fill="none" xmlns="http://www.w3.org/2000/svg">
<path d="M5.05015 4.35001C4.85015 4.15001 4.55015 4.15001 4.35015 4.35001C4.15015 4.55001 4.15015 4.85001 4.35015 5.05001L5.45015 6.20001L4.30015 7.35001C4.20015 7.45001 4.15015 7.55001 4.15015 7.70001C4.15015 8.00001 4.35015 8.20001 4.65015 8.20001C4.80015 8.20001 4.90015 8.15001 5.00015 8.05001L6.50015 6.55001C6.70015 6.35001 6.70015 6.05001 6.50015 5.85001L5.05015 4.35001ZM9.30015 5.85001L7.80015 4.35001C7.60015 4.15001 7.30015 4.15001 7.10015 4.35001C6.90015 4.55001 6.90015 4.85001 7.10015 5.05001L8.25015 6.20001L7.10015 7.35001C7.00015 7.45001 6.95015 7.55001 6.95015 7.70001C6.95015 8.00001 7.15015 8.20001 7.45015 8.20001C7.60015 8.20001 7.70015 8.15001 7.80015 8.05001L9.30015 6.55001C9.45015 6.35001 9.45015 6.05001 9.30015 5.85001Z" fill="white"/>
</svg>
