<svg width="11" height="13" viewBox="0 0 11 13" fill="none" xmlns="http://www.w3.org/2000/svg">
<path d="M6.80005 1.59998C4.05005 1.59998 1.80005 3.84998 1.80005 6.59998C1.80005 9.34998 4.05005 11.6 6.80005 11.6C7.70005 11.6 8.55005 11.35 9.30005 10.95C9.55005 10.8 9.60005 10.5 9.50005 10.25C9.35005 9.99998 9.05005 9.94998 8.80005 10.05C6.90005 11.15 4.45005 10.5 3.35005 8.59998C2.25005 6.69998 2.90005 4.24998 4.80005 3.14998C6.70005 2.04998 9.15005 2.69998 10.25 4.59998C10.6 5.19998 10.8 5.89998 10.8 6.59998V6.99998C10.8 7.49998 10.4 7.89998 9.90005 7.89998C9.40005 7.89998 9.00005 7.49998 9.00005 6.99998V4.84998C9.00005 4.54998 8.80005 4.34998 8.50005 4.34998C8.25005 4.34998 8.05005 4.49998 8.00005 4.74998C7.00005 4.04998 5.55005 4.29998 4.85005 5.29998C4.15005 6.29998 4.40005 7.74998 5.40005 8.44998C6.35005 9.09998 7.60005 8.94998 8.35005 8.09998C9.00005 8.89998 10.15 9.04998 10.95 8.44998C11.4 8.09998 11.7 7.54998 11.7 6.94998V6.59998C11.8 3.84998 9.55005 1.59998 6.80005 1.59998ZM6.80005 7.84998C6.10005 7.84998 5.55005 7.29998 5.55005 6.59998C5.55005 5.89998 6.10005 5.34998 6.80005 5.34998C7.50005 5.34998 8.05005 5.89998 8.05005 6.59998C8.05005 7.29998 7.50005 7.84998 6.80005 7.84998Z" fill="#728095"/>
</svg>
