<svg width="13" height="12" viewBox="0 0 13 12" fill="none" xmlns="http://www.w3.org/2000/svg">
<g clip-path="url(#clip0_10_55044)">
<path d="M11.0822 4.30026C11.0449 4.21462 10.9844 4.14113 10.9075 4.0881C10.8307 4.03508 10.7405 4.00465 10.6472 4.00026H8.35718L8.99218 1.63026C9.0124 1.5561 9.01525 1.47827 9.00051 1.40283C8.98577 1.32739 8.95383 1.25636 8.90718 1.19526C8.86009 1.13408 8.79947 1.08464 8.73007 1.05081C8.66067 1.01698 8.58438 0.999678 8.50718 1.00026H5.00718C4.8943 0.996396 4.78343 1.03086 4.69264 1.09805C4.60185 1.16523 4.53648 1.26118 4.50718 1.37026L3.16718 6.37026C3.14679 6.44579 3.14441 6.52505 3.16023 6.60166C3.17605 6.67828 3.20962 6.75011 3.25826 6.81139C3.30689 6.87267 3.36922 6.92168 3.44025 6.95448C3.51127 6.98729 3.58899 7.00297 3.66718 7.00026H5.59218L4.68718 10.3703C4.65753 10.4789 4.66544 10.5944 4.70963 10.698C4.75382 10.8017 4.8317 10.8873 4.93066 10.9411C5.02961 10.9949 5.14384 11.0138 5.25483 10.9946C5.36582 10.9753 5.46707 10.9192 5.54218 10.8353L10.9922 4.83526C11.0571 4.76421 11.1001 4.67593 11.116 4.58103C11.132 4.48613 11.1203 4.38864 11.0822 4.30026ZM6.18718 8.64026L6.72718 6.64026C6.74974 6.56502 6.75425 6.48552 6.74035 6.4082C6.72645 6.33089 6.69453 6.25794 6.64718 6.19526C6.59958 6.1334 6.53815 6.08355 6.46783 6.04969C6.3975 6.01582 6.32022 5.9989 6.24218 6.00026H4.32218L5.39218 2.00026H7.85718L7.22218 4.37026C7.20179 4.44579 7.19941 4.52505 7.21523 4.60166C7.23105 4.67828 7.26463 4.75011 7.31326 4.81139C7.36189 4.87267 7.42422 4.92168 7.49525 4.95448C7.56627 4.98729 7.64399 5.00297 7.72218 5.00026H9.50718L6.18718 8.64026Z" fill="white"/>
</g>
<defs>
<clipPath id="clip0_10_55044">
<rect width="12" height="12" fill="white" transform="translate(0.899902 -3.05176e-05)"/>
</clipPath>
</defs>
</svg>
