<svg width="13" height="12" viewBox="0 0 13 12" fill="none" xmlns="http://www.w3.org/2000/svg">
<g clip-path="url(#clip0_10_55010)">
<path d="M9.44567 4.6402C9.41587 4.57169 9.36747 4.5129 9.30597 4.47048C9.24446 4.42806 9.17231 4.40372 9.09767 4.4002H7.26567L7.77367 2.5042C7.78985 2.44487 7.79213 2.38261 7.78034 2.32226C7.76855 2.2619 7.743 2.20508 7.70567 2.1562C7.668 2.10726 7.6195 2.06771 7.56399 2.04064C7.50847 2.01358 7.44744 1.99974 7.38567 2.0002H4.58567C4.49537 1.99711 4.40668 2.02468 4.33404 2.07843C4.26141 2.13218 4.20911 2.20894 4.18567 2.2962L3.11367 6.2962C3.09737 6.35663 3.09546 6.42003 3.10812 6.48133C3.12077 6.54262 3.14763 6.60008 3.18654 6.64911C3.22544 6.69813 3.27531 6.73734 3.33213 6.76358C3.38894 6.78982 3.45113 6.80237 3.51367 6.8002H5.05367L4.32967 9.4962C4.30595 9.58314 4.31228 9.67554 4.34764 9.75843C4.38299 9.84132 4.4453 9.90984 4.52446 9.95289C4.60362 9.99595 4.695 10.011 4.7838 9.99564C4.87259 9.98027 4.95359 9.93536 5.01367 9.8682L9.37367 5.0682C9.42559 5.01136 9.46 4.94074 9.47277 4.86482C9.48554 4.7889 9.47613 4.71091 9.44567 4.6402ZM5.52967 8.1122L5.96167 6.5122C5.97972 6.45201 5.98333 6.38841 5.97221 6.32656C5.96109 6.26471 5.93556 6.20635 5.89767 6.1562C5.85959 6.10672 5.81045 6.06683 5.75419 6.03974C5.69793 6.01265 5.63611 5.99911 5.57367 6.0002H4.03767L4.89367 2.8002H6.86567L6.35767 4.6962C6.34136 4.75663 6.33946 4.82003 6.35212 4.88133C6.36477 4.94262 6.39163 5.00008 6.43054 5.04911C6.46944 5.09813 6.51931 5.13734 6.57613 5.16358C6.63294 5.18982 6.69513 5.20237 6.75767 5.2002H8.18567L5.52967 8.1122Z" fill="#A1AEBF"/>
</g>
<defs>
<clipPath id="clip0_10_55010">
<rect width="9.6" height="9.6" fill="white" transform="translate(1.29993 1.19995)"/>
</clipPath>
</defs>
</svg>
