<svg width="13" height="13" viewBox="0 0 13 13" fill="none" xmlns="http://www.w3.org/2000/svg">
<path d="M10.5824 5.19998C10.5452 5.11434 10.4847 5.04085 10.4078 4.98782C10.3309 4.9348 10.2407 4.90437 10.1474 4.89998H7.85742L8.49242 2.52998C8.51265 2.45582 8.5155 2.37799 8.50076 2.30255C8.48601 2.22711 8.45408 2.15608 8.40742 2.09498C8.36033 2.0338 8.29971 1.98436 8.23031 1.95053C8.16091 1.9167 8.08463 1.8994 8.00742 1.89998H4.50742C4.39454 1.89612 4.28368 1.93058 4.19288 1.99777C4.10209 2.06495 4.03672 2.1609 4.00742 2.26998L2.66742 7.26998C2.64704 7.34551 2.64466 7.42477 2.66047 7.50138C2.67629 7.578 2.70987 7.64983 2.7585 7.71111C2.80713 7.77239 2.86947 7.8214 2.94049 7.8542C3.01151 7.88701 3.08924 7.90269 3.16742 7.89998H5.09242L4.18742 11.27C4.15777 11.3787 4.16568 11.4941 4.20987 11.5978C4.25407 11.7014 4.33195 11.787 4.4309 11.8408C4.52986 11.8947 4.64408 11.9135 4.75507 11.8943C4.86607 11.8751 4.96732 11.8189 5.04242 11.735L10.4924 5.73498C10.5573 5.66392 10.6003 5.57565 10.6163 5.48075C10.6323 5.38585 10.6205 5.28836 10.5824 5.19998ZM5.68742 9.53998L6.22742 7.53998C6.24998 7.46474 6.25449 7.38524 6.2406 7.30792C6.2267 7.23061 6.19478 7.15766 6.14742 7.09498C6.09982 7.03312 6.0384 6.98327 5.96807 6.94941C5.89774 6.91554 5.82047 6.89862 5.74242 6.89998H3.82242L4.89242 2.89998H7.35742L6.72242 5.26998C6.70204 5.34551 6.69966 5.42477 6.71547 5.50138C6.73129 5.578 6.76487 5.64983 6.8135 5.71111C6.86213 5.77239 6.92447 5.8214 6.99549 5.8542C7.06651 5.88701 7.14424 5.90269 7.22242 5.89998H9.00742L5.68742 9.53998Z" fill="white"/>
</svg>
