<svg width="13" height="12" viewBox="0 0 13 12" fill="none" xmlns="http://www.w3.org/2000/svg">
<g clip-path="url(#clip0_10_55069)">
<path d="M9.54577 4.64033C9.51597 4.57181 9.46757 4.51302 9.40607 4.4706C9.34456 4.42818 9.2724 4.40384 9.19777 4.40033H7.36577L7.87377 2.50433C7.88995 2.445 7.89223 2.38273 7.88044 2.32238C7.86865 2.26202 7.84309 2.2052 7.80577 2.15633C7.7681 2.10738 7.7196 2.06783 7.66408 2.04076C7.60857 2.0137 7.54753 1.99986 7.48577 2.00033H4.68577C4.59547 1.99723 4.50677 2.02481 4.43414 2.07855C4.36151 2.1323 4.30921 2.20906 4.28577 2.29633L3.21377 6.29633C3.19746 6.35675 3.19556 6.42016 3.20821 6.48145C3.22087 6.54274 3.24773 6.60021 3.28664 6.64923C3.32554 6.69825 3.37541 6.73746 3.43223 6.7637C3.48904 6.78994 3.55122 6.80249 3.61377 6.80033H5.15377L4.42977 9.49633C4.40605 9.58326 4.41238 9.67566 4.44773 9.75855C4.48309 9.84144 4.54539 9.90996 4.62456 9.95301C4.70372 9.99607 4.7951 10.0111 4.88389 9.99576C4.97269 9.98039 5.05369 9.93549 5.11377 9.86833L9.47377 5.06833C9.52569 5.01148 9.5601 4.94086 9.57287 4.86494C9.58564 4.78902 9.57623 4.71103 9.54577 4.64033ZM5.62977 8.11233L6.06177 6.51233C6.07982 6.45213 6.08343 6.38853 6.07231 6.32668C6.06119 6.26483 6.03565 6.20647 5.99777 6.15633C5.95969 6.10684 5.91055 6.06695 5.85429 6.03986C5.79803 6.01278 5.73621 5.99923 5.67377 6.00033H4.13777L4.99377 2.80033H6.96577L6.45777 4.69633C6.44146 4.75675 6.43956 4.82016 6.45221 4.88145C6.46487 4.94274 6.49173 5.00021 6.53064 5.04923C6.56954 5.09825 6.61941 5.13746 6.67623 5.1637C6.73304 5.18994 6.79522 5.20249 6.85777 5.20033H8.28577L5.62977 8.11233Z" fill="white"/>
</g>
<defs>
<clipPath id="clip0_10_55069">
<rect width="9.6" height="9.6" fill="white" transform="translate(1.3999 1.20004)"/>
</clipPath>
</defs>
</svg>
