<svg width="13" height="12" viewBox="0 0 13 12" fill="none" xmlns="http://www.w3.org/2000/svg">
<path d="M4.74985 4.15003C4.54985 3.95003 4.24985 3.95003 4.04985 4.15003C3.84985 4.35003 3.84985 4.65003 4.04985 4.85003L5.14985 6.00003L3.99985 7.15003C3.89985 7.25003 3.84985 7.35003 3.84985 7.50003C3.84985 7.80003 4.04985 8.00003 4.34985 8.00003C4.49985 8.00003 4.59985 7.95003 4.69985 7.85003L6.19985 6.35003C6.39985 6.15003 6.39985 5.85003 6.19985 5.65003L4.74985 4.15003ZM8.99985 5.65003L7.49985 4.15003C7.29985 3.95003 6.99985 3.95003 6.79985 4.15003C6.59985 4.35003 6.59985 4.65003 6.79985 4.85003L7.94985 6.00003L6.79985 7.15003C6.69985 7.25003 6.64985 7.35003 6.64985 7.50003C6.64985 7.80003 6.84985 8.00003 7.14985 8.00003C7.29985 8.00003 7.39985 7.95003 7.49985 7.85003L8.99985 6.35003C9.14985 6.15003 9.14985 5.85003 8.99985 5.65003Z" fill="white"/>
</svg>
