<svg width="12" height="13" viewBox="0 0 12 13" fill="none" xmlns="http://www.w3.org/2000/svg">
<path d="M9.34594 5.44022C9.31614 5.37171 9.26774 5.31291 9.20624 5.2705C9.14473 5.22808 9.07257 5.20373 8.99794 5.20022H7.16594L7.67394 3.30422C7.69012 3.24489 7.6924 3.18263 7.68061 3.12228C7.66882 3.06192 7.64327 3.0051 7.60594 2.95622C7.56827 2.90728 7.51977 2.86773 7.46425 2.84066C7.40874 2.8136 7.34771 2.79975 7.28594 2.80022H4.48594C4.39564 2.79713 4.30695 2.8247 4.23431 2.87845C4.16168 2.9322 4.10938 3.00896 4.08594 3.09622L3.01394 7.09622C2.99763 7.15665 2.99573 7.22005 3.00838 7.28134C3.02104 7.34264 3.0479 7.4001 3.08681 7.44912C3.12571 7.49815 3.17558 7.53736 3.2324 7.5636C3.28921 7.58984 3.3514 7.60239 3.41394 7.60022H4.95394L4.22994 10.2962C4.20622 10.3832 4.21255 10.4756 4.2479 10.5584C4.28326 10.6413 4.34556 10.7099 4.42473 10.7529C4.50389 10.796 4.59527 10.811 4.68406 10.7957C4.77286 10.7803 4.85386 10.7354 4.91394 10.6682L9.27394 5.86822C9.32586 5.81138 9.36027 5.74076 9.37304 5.66484C9.38581 5.58892 9.3764 5.51093 9.34594 5.44022ZM5.42994 8.91222L5.86194 7.31222C5.87999 7.25203 5.8836 7.18843 5.87248 7.12658C5.86136 7.06472 5.83583 7.00636 5.79794 6.95622C5.75986 6.90674 5.71072 6.86685 5.65446 6.83976C5.5982 6.81267 5.53638 6.79913 5.47394 6.80022H3.93794L4.79394 3.60022H6.76594L6.25794 5.49622C6.24163 5.55664 6.23973 5.62005 6.25238 5.68134C6.26504 5.74264 6.2919 5.8001 6.33081 5.84912C6.36971 5.89815 6.41958 5.93736 6.4764 5.9636C6.53321 5.98984 6.5954 6.00239 6.65794 6.00022H8.08594L5.42994 8.91222Z" fill="white"/>
</svg>
