<svg width="13" height="13" viewBox="0 0 13 13" fill="none" xmlns="http://www.w3.org/2000/svg">
<path d="M10.7823 4.7002C10.745 4.61456 10.6845 4.54106 10.6077 4.48804C10.5308 4.43501 10.4406 4.40459 10.3473 4.4002H8.05728L8.69228 2.0302C8.71251 1.95603 8.71536 1.87821 8.70062 1.80276C8.68587 1.72732 8.65394 1.65629 8.60728 1.5952C8.56019 1.53402 8.49957 1.48457 8.43017 1.45074C8.36077 1.41691 8.28448 1.39961 8.20728 1.4002H4.70728C4.5944 1.39633 4.48354 1.4308 4.39274 1.49798C4.30195 1.56517 4.23658 1.66111 4.20728 1.7702L2.86728 6.7702C2.8469 6.84572 2.84452 6.92498 2.86033 7.0016C2.87615 7.07821 2.90973 7.15005 2.95836 7.21132C3.00699 7.2726 3.06933 7.32161 3.14035 7.35442C3.21137 7.38722 3.2891 7.4029 3.36728 7.4002H5.29228L4.38728 10.7702C4.35763 10.8789 4.36554 10.9944 4.40973 11.098C4.45393 11.2016 4.53181 11.2872 4.63076 11.3411C4.72972 11.3949 4.84394 11.4137 4.95493 11.3945C5.06593 11.3753 5.16718 11.3191 5.24228 11.2352L10.6923 5.2352C10.7572 5.16414 10.8002 5.07586 10.8162 4.98096C10.8321 4.88607 10.8204 4.78858 10.7823 4.7002ZM5.88728 9.0402L6.42728 7.0402C6.44984 6.96495 6.45435 6.88545 6.44045 6.80814C6.42656 6.73082 6.39464 6.65787 6.34728 6.5952C6.29968 6.53334 6.23826 6.48348 6.16793 6.44962C6.0976 6.41576 6.02032 6.39883 5.94228 6.4002H4.02228L5.09228 2.4002H7.55728L6.92228 4.7702C6.9019 4.84572 6.89952 4.92498 6.91533 5.0016C6.93115 5.07821 6.96473 5.15005 7.01336 5.21132C7.06199 5.2726 7.12433 5.32161 7.19535 5.35442C7.26637 5.38722 7.3441 5.4029 7.42228 5.4002H9.20728L5.88728 9.0402Z" fill="white"/>
</svg>
