<svg width="13" height="13" viewBox="0 0 13 13" fill="none" xmlns="http://www.w3.org/2000/svg">
<path d="M4.84995 4.74998C4.64995 4.54998 4.34995 4.54998 4.14995 4.74998C3.94995 4.94998 3.94995 5.24998 4.14995 5.44998L5.24995 6.59998L4.09995 7.74998C3.99995 7.84998 3.94995 7.94998 3.94995 8.09998C3.94995 8.39998 4.14995 8.59998 4.44995 8.59998C4.59995 8.59998 4.69995 8.54998 4.79995 8.44998L6.29995 6.94998C6.49995 6.74998 6.49995 6.44998 6.29995 6.24998L4.84995 4.74998ZM9.09995 6.24998L7.59995 4.74998C7.39995 4.54998 7.09995 4.54998 6.89995 4.74998C6.69995 4.94998 6.69995 5.24998 6.89995 5.44998L8.04995 6.59998L6.89995 7.74998C6.79995 7.84998 6.74995 7.94998 6.74995 8.09998C6.74995 8.39998 6.94995 8.59998 7.24995 8.59998C7.39995 8.59998 7.49995 8.54998 7.59995 8.44998L9.09995 6.94998C9.24995 6.74998 9.24995 6.44998 9.09995 6.24998Z" fill="white"/>
</svg>
