<svg width="13" height="13" viewBox="0 0 13 13" fill="none" xmlns="http://www.w3.org/2000/svg">
<path d="M10.5823 4.90027C10.545 4.81463 10.4846 4.74113 10.4077 4.68811C10.3308 4.63509 10.2406 4.60466 10.1473 4.60027H7.8573L8.4923 2.23027C8.51252 2.15611 8.51538 2.07828 8.50063 2.00284C8.48589 1.92739 8.45395 1.85636 8.4073 1.79527C8.36021 1.73409 8.29959 1.68465 8.23019 1.65082C8.16079 1.61699 8.0845 1.59968 8.0073 1.60027H4.5073C4.39442 1.5964 4.28355 1.63087 4.19276 1.69805C4.10197 1.76524 4.0366 1.86119 4.0073 1.97027L2.6673 6.97027C2.64691 7.0458 2.64453 7.12506 2.66035 7.20167C2.67617 7.27829 2.70975 7.35012 2.75838 7.4114C2.80701 7.47267 2.86935 7.52169 2.94037 7.55449C3.01139 7.58729 3.08912 7.60297 3.1673 7.60027H5.0923L4.1873 10.9703C4.15765 11.0789 4.16556 11.1944 4.20975 11.298C4.25394 11.4017 4.33183 11.4873 4.43078 11.5411C4.52973 11.5949 4.64396 11.6138 4.75495 11.5946C4.86594 11.5753 4.9672 11.5192 5.0423 11.4353L10.4923 5.43527C10.5572 5.36421 10.6002 5.27594 10.6162 5.18104C10.6321 5.08614 10.6204 4.98865 10.5823 4.90027ZM5.6873 9.24027L6.2273 7.24027C6.24986 7.16503 6.25437 7.08552 6.24047 7.00821C6.22657 6.9309 6.19465 6.85795 6.1473 6.79527C6.0997 6.73341 6.03828 6.68355 5.96795 6.64969C5.89762 6.61583 5.82034 6.5989 5.7423 6.60027H3.8223L4.8923 2.60027H7.3573L6.7223 4.97027C6.70191 5.0458 6.69953 5.12506 6.71535 5.20167C6.73117 5.27829 6.76475 5.35012 6.81338 5.4114C6.86201 5.47267 6.92435 5.52169 6.99537 5.55449C7.06639 5.58729 7.14412 5.60297 7.2223 5.60027H9.0073L5.6873 9.24027Z" fill="white"/>
</svg>
