<svg width="13" height="12" viewBox="0 0 13 12" fill="none" xmlns="http://www.w3.org/2000/svg">
<path d="M10.0457 5.24039C10.0158 5.17188 9.96745 5.11308 9.90594 5.07067C9.84444 5.02825 9.77228 5.0039 9.69765 5.00039H7.86565L8.37365 3.10439C8.38983 3.04506 8.39211 2.9828 8.38032 2.92245C8.36852 2.86209 8.34297 2.80527 8.30565 2.75639C8.26798 2.70745 8.21948 2.6679 8.16396 2.64083C8.10844 2.61377 8.04741 2.59993 7.98565 2.60039H5.18565C5.09534 2.5973 5.00665 2.62487 4.93402 2.67862C4.86139 2.73237 4.80909 2.80913 4.78565 2.89639L3.71365 6.89639C3.69734 6.95682 3.69544 7.02022 3.70809 7.08151C3.72075 7.14281 3.74761 7.20027 3.78651 7.2493C3.82542 7.29832 3.87529 7.33753 3.9321 7.36377C3.98892 7.39001 4.0511 7.40256 4.11365 7.40039H5.65365L4.92965 10.0964C4.90593 10.1833 4.91226 10.2757 4.94761 10.3586C4.98296 10.4415 5.04527 10.51 5.12443 10.5531C5.2036 10.5961 5.29498 10.6112 5.38377 10.5958C5.47256 10.5805 5.55357 10.5356 5.61365 10.4684L9.97365 5.66839C10.0256 5.61155 10.06 5.54093 10.0727 5.46501C10.0855 5.38909 10.0761 5.3111 10.0457 5.24039ZM6.12965 8.71239L6.56165 7.11239C6.5797 7.0522 6.58331 6.9886 6.57219 6.92675C6.56107 6.8649 6.53553 6.80653 6.49765 6.75639C6.45957 6.70691 6.41043 6.66702 6.35417 6.63993C6.29791 6.61284 6.23608 6.5993 6.17365 6.60039H4.63765L5.49365 3.40039H7.46565L6.95765 5.29639C6.94134 5.35682 6.93944 5.42022 6.95209 5.48151C6.96475 5.54281 6.99161 5.60027 7.03051 5.6493C7.06942 5.69832 7.11929 5.73753 7.1761 5.76377C7.23292 5.79001 7.2951 5.80256 7.35765 5.80039H8.78565L6.12965 8.71239Z" fill="white"/>
</svg>
