<svg width="13" height="13" viewBox="0 0 13 13" fill="none" xmlns="http://www.w3.org/2000/svg">
<path d="M9.44574 5.0402C9.41593 4.97169 9.36754 4.91289 9.30603 4.87047C9.24452 4.82805 9.17237 4.80371 9.09774 4.8002H7.26574L7.77374 2.9042C7.78991 2.84487 7.7922 2.78261 7.7804 2.72225C7.76861 2.6619 7.74306 2.60507 7.70574 2.5562C7.66806 2.50725 7.61957 2.4677 7.56405 2.44064C7.50853 2.41357 7.4475 2.39973 7.38574 2.4002H4.58574C4.49543 2.3971 4.40674 2.42468 4.3341 2.47843C4.26147 2.53218 4.20918 2.60893 4.18574 2.6962L3.11374 6.6962C3.09743 6.75662 3.09552 6.82003 3.10818 6.88132C3.12083 6.94261 3.14769 7.00008 3.1866 7.0491C3.22551 7.09812 3.27537 7.13733 3.33219 7.16357C3.38901 7.18982 3.45119 7.20236 3.51374 7.2002H5.05374L4.32974 9.8962C4.30601 9.98313 4.31234 10.0755 4.3477 10.1584C4.38305 10.2413 4.44536 10.3098 4.52452 10.3529C4.60368 10.3959 4.69506 10.411 4.78386 10.3956C4.87265 10.3803 4.95365 10.3354 5.01374 10.2682L9.37374 5.4682C9.42565 5.41135 9.46006 5.34073 9.47283 5.26481C9.4856 5.18889 9.47619 5.1109 9.44574 5.0402ZM5.52974 8.5122L5.96174 6.9122C5.97978 6.852 5.98339 6.7884 5.97227 6.72655C5.96115 6.6647 5.93562 6.60634 5.89774 6.5562C5.85965 6.50671 5.81052 6.46683 5.75425 6.43974C5.69799 6.41265 5.63617 6.39911 5.57374 6.4002H4.03774L4.89374 3.2002H6.86574L6.35774 5.0962C6.34143 5.15662 6.33952 5.22003 6.35218 5.28132C6.36483 5.34261 6.39169 5.40008 6.4306 5.4491C6.46951 5.49812 6.51937 5.53733 6.57619 5.56357C6.63301 5.58982 6.69519 5.60236 6.75774 5.6002H8.18574L5.52974 8.5122Z" fill="white"/>
</svg>
