<svg width="13" height="13" viewBox="0 0 13 13" fill="none" xmlns="http://www.w3.org/2000/svg">
<g clip-path="url(#clip0_10_55505)">
<path d="M9.7456 4.84019C9.7158 4.77167 9.6674 4.71288 9.6059 4.67046C9.54439 4.62804 9.47223 4.6037 9.3976 4.60019H7.5656L8.0736 2.70419C8.08978 2.64486 8.09206 2.58259 8.08027 2.52224C8.06847 2.46188 8.04292 2.40506 8.0056 2.35619C7.96793 2.30724 7.91943 2.26769 7.86391 2.24062C7.80839 2.21356 7.74736 2.19972 7.6856 2.20019H4.8856C4.7953 2.19709 4.7066 2.22467 4.63397 2.27841C4.56134 2.33216 4.50904 2.40892 4.4856 2.49619L3.4136 6.49619C3.39729 6.55661 3.39539 6.62001 3.40804 6.68131C3.4207 6.7426 3.44756 6.80007 3.48646 6.84909C3.52537 6.89811 3.57524 6.93732 3.63205 6.96356C3.68887 6.9898 3.75105 7.00235 3.8136 7.00019H5.3536L4.6296 9.69619C4.60588 9.78312 4.61221 9.87552 4.64756 9.95841C4.68292 10.0413 4.74522 10.1098 4.82439 10.1529C4.90355 10.1959 4.99493 10.211 5.08372 10.1956C5.17252 10.1802 5.25352 10.1353 5.3136 10.0682L9.6736 5.26819C9.72552 5.21134 9.75992 5.14072 9.7727 5.0648C9.78547 4.98888 9.77606 4.91089 9.7456 4.84019ZM5.8296 8.31219L6.2616 6.71219C6.27965 6.65199 6.28326 6.58839 6.27214 6.52654C6.26102 6.46469 6.23548 6.40633 6.1976 6.35619C6.15952 6.3067 6.11038 6.26681 6.05412 6.23972C5.99786 6.21264 5.93604 6.19909 5.8736 6.20019H4.3376L5.1936 3.00019H7.1656L6.6576 4.89619C6.64129 4.95661 6.63939 5.02001 6.65204 5.08131C6.6647 5.1426 6.69156 5.20007 6.73046 5.24909C6.76937 5.29811 6.81924 5.33732 6.87605 5.36356C6.93287 5.3898 6.99505 5.40235 7.0576 5.40019H8.4856L5.8296 8.31219Z" fill="white"/>
</g>
<defs>
<clipPath id="clip0_10_55505">
<rect width="9.6" height="9.6" fill="white" transform="translate(1.59985 1.39996)"/>
</clipPath>
</defs>
</svg>
