<svg width="12" height="13" viewBox="0 0 12 13" fill="none" xmlns="http://www.w3.org/2000/svg">
<path d="M10.1825 5.20001C10.1453 5.11437 10.0848 5.04088 10.0079 4.98785C9.93101 4.93483 9.84081 4.9044 9.74752 4.90001H7.45752L8.09252 2.53001C8.11274 2.45585 8.1156 2.37802 8.10085 2.30258C8.08611 2.22714 8.05417 2.15611 8.00752 2.09501C7.96043 2.03383 7.89981 1.98439 7.83041 1.95056C7.76101 1.91673 7.68472 1.89943 7.60752 1.90001H4.10752C3.99464 1.89615 3.88377 1.93061 3.79298 1.9978C3.70219 2.06498 3.63682 2.16093 3.60752 2.27001L2.26752 7.27001C2.24713 7.34554 2.24475 7.4248 2.26057 7.50141C2.27639 7.57803 2.30997 7.64986 2.3586 7.71114C2.40723 7.77242 2.46957 7.82143 2.54059 7.85423C2.61161 7.88704 2.68934 7.90272 2.76752 7.90001H4.69252L3.78752 11.27C3.75787 11.3787 3.76578 11.4942 3.80997 11.5978C3.85416 11.7014 3.93205 11.7871 4.031 11.8409C4.12995 11.8947 4.24418 11.9135 4.35517 11.8943C4.46616 11.8751 4.56741 11.819 4.64252 11.735L10.0925 5.73501C10.1574 5.66395 10.2004 5.57568 10.2164 5.48078C10.2324 5.38588 10.2206 5.28839 10.1825 5.20001ZM5.28752 9.54001L5.82752 7.54001C5.85008 7.46477 5.85459 7.38527 5.84069 7.30795C5.82679 7.23064 5.79487 7.15769 5.74752 7.09501C5.69992 7.03315 5.6385 6.9833 5.56817 6.94944C5.49784 6.91557 5.42056 6.89865 5.34252 6.90001H3.42252L4.49252 2.90001H6.95752L6.32252 5.27001C6.30213 5.34554 6.29975 5.4248 6.31557 5.50141C6.33139 5.57803 6.36497 5.64986 6.4136 5.71114C6.46223 5.77242 6.52457 5.82143 6.59559 5.85423C6.66661 5.88704 6.74434 5.90272 6.82252 5.90001H8.60752L5.28752 9.54001Z" fill="white"/>
</svg>
