<svg width="13" height="8" viewBox="0 0 13 8" fill="none" xmlns="http://www.w3.org/2000/svg">
<path d="M10.5822 5.10028C10.545 5.01464 10.4845 4.94114 10.4076 4.88812C10.3307 4.8351 10.2405 4.80467 10.1472 4.80028H7.85721L8.49221 2.43028C8.51243 2.35612 8.51528 2.27829 8.50054 2.20285C8.4858 2.1274 8.45386 2.05638 8.40721 1.99528C8.36012 1.9341 8.2995 1.88466 8.2301 1.85083C8.1607 1.817 8.08441 1.7997 8.00721 1.80028H4.50721C4.39433 1.79641 4.28346 1.83088 4.19267 1.89807C4.10188 1.96525 4.03651 2.0612 4.00721 2.17028L2.66721 7.17028C2.64682 7.24581 2.64444 7.32507 2.66026 7.40168C2.67608 7.4783 2.70966 7.55013 2.75829 7.61141C2.80692 7.67269 2.86925 7.7217 2.94028 7.7545C3.0113 7.7873 3.08902 7.80298 3.16721 7.80028H5.09221L4.18721 11.1703C4.15756 11.279 4.16547 11.3944 4.20966 11.4981C4.25385 11.6017 4.33173 11.6873 4.43069 11.7411C4.52964 11.795 4.64387 11.8138 4.75486 11.7946C4.86585 11.7754 4.9671 11.7192 5.04221 11.6353L10.4922 5.63528C10.5571 5.56422 10.6001 5.47595 10.6161 5.38105C10.632 5.28615 10.6203 5.18866 10.5822 5.10028ZM5.68721 9.44028L6.22721 7.44028C6.24977 7.36504 6.25428 7.28554 6.24038 7.20822C6.22648 7.13091 6.19456 7.05796 6.14721 6.99528C6.09961 6.93342 6.03818 6.88357 5.96786 6.8497C5.89753 6.81584 5.82025 6.79892 5.74221 6.80028H3.82221L4.89221 2.80028H7.35721L6.72221 5.17028C6.70182 5.24581 6.69944 5.32507 6.71526 5.40168C6.73108 5.4783 6.76466 5.55013 6.81329 5.61141C6.86192 5.67269 6.92425 5.7217 6.99528 5.7545C7.0663 5.7873 7.14402 5.80298 7.22221 5.80028H9.00721L5.68721 9.44028Z" fill="white"/>
</svg>
