<svg width="13" height="13" viewBox="0 0 13 13" fill="none" xmlns="http://www.w3.org/2000/svg">
<path d="M10.0459 5.24021C10.0161 5.1717 9.96769 5.1129 9.90619 5.07048C9.84468 5.02807 9.77253 5.00372 9.69789 5.00021H7.86589L8.37389 3.10421C8.39007 3.04488 8.39235 2.98262 8.38056 2.92226C8.36877 2.86191 8.34322 2.80509 8.30589 2.75621C8.26822 2.70727 8.21972 2.66771 8.16421 2.64065C8.10869 2.61358 8.04766 2.59974 7.98589 2.60021H5.18589C5.09559 2.59712 5.0069 2.62469 4.93426 2.67844C4.86163 2.73219 4.80933 2.80895 4.78589 2.89621L3.71389 6.89621C3.69758 6.95663 3.69568 7.02004 3.70834 7.08133C3.72099 7.14262 3.74785 7.20009 3.78676 7.24911C3.82566 7.29813 3.87553 7.33734 3.93235 7.36359C3.98916 7.38983 4.05135 7.40237 4.11389 7.40021H5.65389L4.92989 10.0962C4.90617 10.1831 4.9125 10.2755 4.94786 10.3584C4.98321 10.4413 5.04551 10.5098 5.12468 10.5529C5.20384 10.596 5.29522 10.611 5.38402 10.5956C5.47281 10.5803 5.55381 10.5354 5.61389 10.4682L9.97389 5.66821C10.0258 5.61136 10.0602 5.54074 10.073 5.46482C10.0858 5.38891 10.0764 5.31091 10.0459 5.24021ZM6.12989 8.71221L6.56189 7.11221C6.57994 7.05202 6.58355 6.98841 6.57243 6.92656C6.56131 6.86471 6.53578 6.80635 6.49789 6.75621C6.45981 6.70672 6.41067 6.66684 6.35441 6.63975C6.29815 6.61266 6.23633 6.59912 6.17389 6.60021H4.63789L5.49389 3.40021H7.46589L6.95789 5.29621C6.94158 5.35663 6.93968 5.42004 6.95234 5.48133C6.96499 5.54262 6.99185 5.60009 7.03076 5.64911C7.06966 5.69813 7.11953 5.73734 7.17635 5.76359C7.23316 5.78983 7.29535 5.80237 7.35789 5.80021H8.78589L6.12989 8.71221Z" fill="white"/>
</svg>
