<svg width="13" height="13" viewBox="0 0 13 13" fill="none" xmlns="http://www.w3.org/2000/svg">
<path d="M10.9823 4.70026C10.9451 4.61462 10.8846 4.54112 10.8077 4.4881C10.7308 4.43508 10.6406 4.40465 10.5473 4.40026H8.25732L8.89232 2.03026C8.91255 1.95609 8.9154 1.87827 8.90066 1.80282C8.88592 1.72738 8.85398 1.65635 8.80733 1.59526C8.76023 1.53408 8.69961 1.48464 8.63021 1.4508C8.56082 1.41697 8.48453 1.39967 8.40732 1.40026H4.90732C4.79444 1.39639 4.68358 1.43086 4.59279 1.49804C4.50199 1.56523 4.43662 1.66118 4.40732 1.77026L3.06733 6.77026C3.04694 6.84579 3.04456 6.92504 3.06038 7.00166C3.0762 7.07827 3.10977 7.15011 3.1584 7.21138C3.20704 7.27266 3.26937 7.32167 3.34039 7.35448C3.41141 7.38728 3.48914 7.40296 3.56733 7.40026H5.49232L4.58732 10.7703C4.55767 10.8789 4.56558 10.9944 4.60978 11.098C4.65397 11.2016 4.73185 11.2873 4.8308 11.3411C4.92976 11.3949 5.04399 11.4138 5.15498 11.3945C5.26597 11.3753 5.36722 11.3192 5.44232 11.2353L10.8923 5.23526C10.9572 5.1642 11.0002 5.07592 11.0162 4.98102C11.0322 4.88613 11.0204 4.78864 10.9823 4.70026ZM6.08732 9.04026L6.62732 7.04026C6.64988 6.96501 6.6544 6.88551 6.6405 6.8082C6.6266 6.73088 6.59468 6.65793 6.54732 6.59526C6.49972 6.5334 6.4383 6.48354 6.36797 6.44968C6.29765 6.41582 6.22037 6.39889 6.14232 6.40026H4.22232L5.29232 2.40026H7.75732L7.12232 4.77026C7.10194 4.84578 7.09956 4.92504 7.11538 5.00166C7.1312 5.07827 7.16477 5.15011 7.2134 5.21138C7.26204 5.27266 7.32437 5.32167 7.39539 5.35448C7.46641 5.38728 7.54414 5.40296 7.62232 5.40026H9.40732L6.08732 9.04026Z" fill="white"/>
</svg>
