<svg width="13" height="8" viewBox="0 0 13 8" fill="none" xmlns="http://www.w3.org/2000/svg">
<path d="M10.52 7.29992C10.41 7.29992 10.295 7.26492 10.185 7.23992C9.96222 7.19083 9.74331 7.12566 9.52998 7.04492C9.29802 6.96054 9.04305 6.96492 8.81413 7.05723C8.58521 7.14953 8.39852 7.32324 8.28998 7.54492L8.17998 7.76992C7.69298 7.49901 7.24547 7.16254 6.84998 6.76992C6.45736 6.37443 6.12089 5.92692 5.84998 5.43992L6.05998 5.29992C6.28166 5.19138 6.45537 5.00469 6.54767 4.77577C6.63998 4.54685 6.64436 4.29188 6.55998 4.05992C6.48059 3.84613 6.41545 3.62732 6.36498 3.40492C6.33998 3.29492 6.31998 3.17992 6.30498 3.06492C6.24426 2.71273 6.05979 2.39379 5.78479 2.16554C5.50979 1.93729 5.16233 1.81473 4.80498 1.81992H3.30498C3.08949 1.8179 2.8761 1.86233 2.67933 1.95019C2.48256 2.03805 2.30703 2.16727 2.16469 2.32906C2.02235 2.49086 1.91654 2.68142 1.85447 2.88778C1.7924 3.09414 1.77552 3.31145 1.80498 3.52492C2.07135 5.61961 3.02799 7.56586 4.5238 9.05624C6.01961 10.5466 7.96933 11.4962 10.065 11.7549H10.255C10.6237 11.7555 10.9797 11.6202 11.255 11.3749C11.4132 11.2334 11.5395 11.06 11.6257 10.8661C11.7119 10.6722 11.756 10.4621 11.755 10.2499V8.74992C11.7489 8.40261 11.6224 8.0682 11.3971 7.80375C11.1719 7.53931 10.8619 7.36124 10.52 7.29992V7.29992ZM10.77 10.2999C10.7699 10.3709 10.7547 10.4411 10.7254 10.5057C10.6961 10.5704 10.6533 10.6281 10.6 10.6749C10.5443 10.7234 10.479 10.7596 10.4083 10.7812C10.3377 10.8027 10.2633 10.8091 10.19 10.7999C8.31743 10.5598 6.5781 9.70316 5.24634 8.36507C3.91458 7.02697 3.06618 5.28359 2.83498 3.40992C2.82702 3.33668 2.83399 3.26259 2.85548 3.19212C2.87696 3.12165 2.91251 3.05627 2.95998 2.99992C3.00683 2.94659 3.06451 2.90384 3.12917 2.87453C3.19383 2.84522 3.26398 2.83001 3.33498 2.82992H4.83498C4.95125 2.82733 5.06479 2.86536 5.15605 2.93746C5.24731 3.00955 5.31058 3.11121 5.33498 3.22492C5.35498 3.36159 5.37998 3.49659 5.40998 3.62992C5.46774 3.89349 5.54461 4.15251 5.63998 4.40492L4.93998 4.72992C4.88013 4.75738 4.82629 4.7964 4.78156 4.84472C4.73682 4.89304 4.70208 4.94973 4.67931 5.01152C4.65655 5.07331 4.64621 5.13899 4.6489 5.20478C4.65159 5.27058 4.66725 5.33519 4.69498 5.39492C5.41458 6.9363 6.6536 8.17532 8.19498 8.89492C8.31671 8.94493 8.45325 8.94493 8.57498 8.89492C8.63733 8.87262 8.69464 8.83815 8.74356 8.79352C8.79249 8.74888 8.83206 8.69497 8.85998 8.63492L9.16998 7.93492C9.42846 8.02736 9.69227 8.10417 9.95998 8.16492C10.0933 8.19492 10.2283 8.21992 10.365 8.23992C10.4787 8.26432 10.5803 8.32759 10.6524 8.41885C10.7245 8.51011 10.7626 8.62365 10.76 8.73992L10.77 10.2999Z" fill="#1A365D"/>
</svg>
