<svg width="13" height="13" viewBox="0 0 13 13" fill="none" xmlns="http://www.w3.org/2000/svg">
<path d="M10.2458 5.0402C10.216 4.97169 10.1676 4.91289 10.1061 4.87047C10.0446 4.82805 9.97248 4.80371 9.89785 4.8002H8.06585L8.57385 2.9042C8.59002 2.84487 8.59231 2.78261 8.58051 2.72225C8.56872 2.6619 8.54317 2.60507 8.50585 2.5562C8.46817 2.50725 8.41967 2.4677 8.36416 2.44064C8.30864 2.41357 8.24761 2.39973 8.18585 2.4002H5.38585C5.29554 2.3971 5.20685 2.42468 5.13421 2.47843C5.06158 2.53218 5.00929 2.60893 4.98585 2.6962L3.91385 6.6962C3.89754 6.75662 3.89563 6.82003 3.90829 6.88132C3.92094 6.94261 3.9478 7.00008 3.98671 7.0491C4.02562 7.09812 4.07548 7.13733 4.1323 7.16357C4.18912 7.18982 4.2513 7.20236 4.31385 7.2002H5.85385L5.12985 9.8962C5.10612 9.98313 5.11245 10.0755 5.14781 10.1584C5.18316 10.2413 5.24547 10.3098 5.32463 10.3529C5.40379 10.3959 5.49517 10.411 5.58397 10.3956C5.67276 10.3803 5.75376 10.3354 5.81385 10.2682L10.1738 5.4682C10.2258 5.41135 10.2602 5.34073 10.2729 5.26481C10.2857 5.18889 10.2763 5.1109 10.2458 5.0402ZM6.32985 8.5122L6.76185 6.9122C6.77989 6.852 6.7835 6.7884 6.77238 6.72655C6.76126 6.6647 6.73573 6.60634 6.69785 6.5562C6.65976 6.50671 6.61063 6.46683 6.55436 6.43974C6.4981 6.41265 6.43628 6.39911 6.37385 6.4002H4.83785L5.69385 3.2002H7.66585L7.15785 5.0962C7.14154 5.15662 7.13963 5.22003 7.15229 5.28132C7.16494 5.34261 7.1918 5.40008 7.23071 5.4491C7.26962 5.49812 7.31948 5.53733 7.3763 5.56357C7.43312 5.58982 7.4953 5.60236 7.55785 5.6002H8.98585L6.32985 8.5122Z" fill="white"/>
</svg>
