<svg width="13" height="13" viewBox="0 0 13 13" fill="none" xmlns="http://www.w3.org/2000/svg">
<path d="M10.3823 4.50031C10.3451 4.41466 10.2846 4.34117 10.2077 4.28815C10.1308 4.23512 10.0406 4.20469 9.94735 4.20031H7.65735L8.29235 1.83031C8.31257 1.75614 8.31543 1.67832 8.30068 1.60287C8.28594 1.52743 8.254 1.4564 8.20735 1.39531C8.16026 1.33413 8.09964 1.28468 8.03024 1.25085C7.96084 1.21702 7.88455 1.19972 7.80735 1.20031H4.30735C4.19447 1.19644 4.0836 1.23091 3.99281 1.29809C3.90202 1.36528 3.83665 1.46122 3.80735 1.57031L2.46735 6.57031C2.44696 6.64583 2.44458 6.72509 2.4604 6.80171C2.47622 6.87832 2.5098 6.95016 2.55843 7.01143C2.60706 7.07271 2.66939 7.12172 2.74042 7.15453C2.81144 7.18733 2.88917 7.20301 2.96735 7.20031H4.89235L3.98735 10.5703C3.9577 10.679 3.96561 10.7945 4.0098 10.8981C4.05399 11.0017 4.13188 11.0873 4.23083 11.1412C4.32978 11.195 4.44401 11.2138 4.555 11.1946C4.66599 11.1754 4.76724 11.1193 4.84235 11.0353L10.2923 5.03531C10.3572 4.96425 10.4003 4.87597 10.4162 4.78107C10.4322 4.68617 10.4204 4.58869 10.3823 4.50031ZM5.48735 8.84031L6.02735 6.84031C6.04991 6.76506 6.05442 6.68556 6.04052 6.60825C6.02662 6.53093 5.9947 6.45798 5.94735 6.39531C5.89975 6.33345 5.83832 6.28359 5.768 6.24973C5.69767 6.21587 5.62039 6.19894 5.54235 6.20031H3.62235L4.69235 2.20031H7.15735L6.52235 4.57031C6.50196 4.64583 6.49958 4.72509 6.5154 4.80171C6.53122 4.87832 6.5648 4.95016 6.61343 5.01143C6.66206 5.07271 6.72439 5.12172 6.79542 5.15453C6.86644 5.18733 6.94416 5.20301 7.02235 5.20031H8.80735L5.48735 8.84031Z" fill="white"/>
</svg>
