<svg width="13" height="13" viewBox="0 0 13 13" fill="none" xmlns="http://www.w3.org/2000/svg">
<path d="M10.3823 5.10033C10.345 5.01469 10.2845 4.94119 10.2076 4.88817C10.1308 4.83515 10.0406 4.80472 9.94727 4.80033H7.65727L8.29227 2.43033C8.3125 2.35616 8.31535 2.27834 8.30061 2.20289C8.28586 2.12745 8.25393 2.05642 8.20727 1.99533C8.16018 1.93415 8.09956 1.88471 8.03016 1.85087C7.96076 1.81704 7.88448 1.79974 7.80727 1.80033H4.30727C4.19439 1.79646 4.08353 1.83093 3.99273 1.89811C3.90194 1.9653 3.83657 2.06125 3.80727 2.17033L2.46727 7.17033C2.44689 7.24586 2.44451 7.32511 2.46033 7.40173C2.47614 7.47834 2.50972 7.55018 2.55835 7.61146C2.60699 7.67273 2.66932 7.72174 2.74034 7.75455C2.81136 7.78735 2.88909 7.80303 2.96727 7.80033H4.89227L3.98727 11.1703C3.95762 11.279 3.96553 11.3945 4.00972 11.4981C4.05392 11.6017 4.1318 11.6874 4.23075 11.7412C4.32971 11.795 4.44393 11.8138 4.55493 11.7946C4.66592 11.7754 4.76717 11.7193 4.84227 11.6353L10.2923 5.63533C10.3572 5.56427 10.4002 5.47599 10.4161 5.38109C10.4321 5.2862 10.4203 5.18871 10.3823 5.10033ZM5.48727 9.44033L6.02727 7.44033C6.04983 7.36508 6.05434 7.28558 6.04045 7.20827C6.02655 7.13095 5.99463 7.058 5.94727 6.99533C5.89967 6.93347 5.83825 6.88361 5.76792 6.84975C5.69759 6.81589 5.62032 6.79896 5.54227 6.80033H3.62227L4.69227 2.80033H7.15727L6.52227 5.17033C6.50189 5.24586 6.49951 5.32511 6.51533 5.40173C6.53114 5.47834 6.56472 5.55018 6.61335 5.61145C6.66199 5.67273 6.72432 5.72174 6.79534 5.75455C6.86636 5.78735 6.94409 5.80303 7.02227 5.80033H8.80727L5.48727 9.44033Z" fill="white"/>
</svg>
