<svg width="13" height="13" viewBox="0 0 13 13" fill="none" xmlns="http://www.w3.org/2000/svg">
<path d="M10.9823 5.10039C10.945 5.01475 10.8845 4.94125 10.8076 4.88823C10.7307 4.83521 10.6406 4.80478 10.5473 4.80039H8.25726L8.89226 2.43039C8.91249 2.35623 8.91534 2.2784 8.9006 2.20295C8.88586 2.12751 8.85392 2.05648 8.80726 1.99539C8.76017 1.93421 8.69955 1.88477 8.63015 1.85094C8.56076 1.8171 8.48447 1.7998 8.40726 1.80039H4.90726C4.79438 1.79652 4.68352 1.83099 4.59273 1.89817C4.50193 1.96536 4.43656 2.06131 4.40726 2.17039L3.06726 7.17039C3.04688 7.24592 3.0445 7.32517 3.06032 7.40179C3.07613 7.4784 3.10971 7.55024 3.15834 7.61152C3.20698 7.67279 3.26931 7.7218 3.34033 7.75461C3.41135 7.78741 3.48908 7.80309 3.56726 7.80039H5.49226L4.58726 11.1704C4.55761 11.2791 4.56552 11.3946 4.60972 11.4982C4.65391 11.6018 4.73179 11.6874 4.83074 11.7412C4.9297 11.7951 5.04392 11.8139 5.15492 11.7947C5.26591 11.7755 5.36716 11.7193 5.44226 11.6354L10.8923 5.63539C10.9572 5.56433 11.0002 5.47605 11.0161 5.38116C11.0321 5.28626 11.0203 5.18877 10.9823 5.10039ZM6.08726 9.44039L6.62726 7.44039C6.64982 7.36514 6.65434 7.28564 6.64044 7.20833C6.62654 7.13102 6.59462 7.05806 6.54726 6.99539C6.49966 6.93353 6.43824 6.88367 6.36791 6.84981C6.29758 6.81595 6.22031 6.79902 6.14226 6.80039H4.22226L5.29226 2.80039H7.75726L7.12226 5.17039C7.10188 5.24592 7.0995 5.32517 7.11532 5.40179C7.13113 5.4784 7.16471 5.55024 7.21334 5.61152C7.26198 5.67279 7.32431 5.7218 7.39533 5.75461C7.46635 5.78741 7.54408 5.80309 7.62226 5.80039H9.40726L6.08726 9.44039Z" fill="white"/>
</svg>
