<svg width="13" height="13" viewBox="0 0 13 13" fill="none" xmlns="http://www.w3.org/2000/svg">
<path d="M10.2461 4.93998C10.2163 4.87147 10.1679 4.81267 10.1064 4.77025C10.0449 4.72783 9.97272 4.70349 9.89809 4.69998H8.06609L8.57409 2.80398C8.59027 2.74465 8.59255 2.68239 8.58076 2.62203C8.56896 2.56168 8.54341 2.50485 8.50609 2.45598C8.46842 2.40704 8.41992 2.36748 8.3644 2.34042C8.30888 2.31335 8.24785 2.29951 8.18609 2.29998H5.38609C5.29578 2.29688 5.20709 2.32446 5.13446 2.37821C5.06183 2.43196 5.00953 2.50871 4.98609 2.59598L3.91409 6.59598C3.89778 6.6564 3.89588 6.71981 3.90853 6.7811C3.92119 6.84239 3.94805 6.89986 3.98695 6.94888C4.02586 6.9979 4.07573 7.03711 4.13254 7.06335C4.18936 7.0896 4.25154 7.10214 4.31409 7.09998H5.85409L5.13009 9.79598C5.10637 9.88291 5.1127 9.97531 5.14805 10.0582C5.1834 10.1411 5.24571 10.2096 5.32487 10.2527C5.40404 10.2957 5.49542 10.3108 5.58421 10.2954C5.673 10.28 5.75401 10.2351 5.81409 10.168L10.1741 5.36798C10.226 5.31113 10.2604 5.24051 10.2732 5.16459C10.286 5.08867 10.2765 5.01068 10.2461 4.93998ZM6.33009 8.41198L6.76209 6.81198C6.78014 6.75178 6.78375 6.68818 6.77263 6.62633C6.76151 6.56448 6.73597 6.50612 6.69809 6.45598C6.66001 6.40649 6.61087 6.36661 6.55461 6.33952C6.49835 6.31243 6.43652 6.29889 6.37409 6.29998H4.83809L5.69409 3.09998H7.66609L7.15809 4.99598C7.14178 5.0564 7.13988 5.11981 7.15253 5.1811C7.16519 5.24239 7.19205 5.29986 7.23095 5.34888C7.26986 5.3979 7.31973 5.43711 7.37654 5.46335C7.43336 5.4896 7.49554 5.50214 7.55809 5.49998H8.98609L6.33009 8.41198Z" fill="white"/>
</svg>
