<svg width="13" height="13" viewBox="0 0 13 13" fill="none" xmlns="http://www.w3.org/2000/svg">
<g clip-path="url(#clip0_10_55221)">
<path d="M9.84558 5.44038C9.81577 5.37186 9.76738 5.31307 9.70587 5.27065C9.64437 5.22823 9.57221 5.20389 9.49758 5.20038H7.66558L8.17358 3.30438C8.18976 3.24505 8.19204 3.18278 8.18024 3.12243C8.16845 3.06207 8.1429 3.00525 8.10558 2.95638C8.0679 2.90743 8.01941 2.86788 7.96389 2.84081C7.90837 2.81375 7.84734 2.79991 7.78558 2.80037H4.98558C4.89527 2.79728 4.80658 2.82485 4.73395 2.8786C4.66131 2.93235 4.60902 3.00911 4.58558 3.09638L3.51358 7.09638C3.49727 7.1568 3.49536 7.2202 3.50802 7.2815C3.52067 7.34279 3.54753 7.40026 3.58644 7.44928C3.62535 7.4983 3.67521 7.53751 3.73203 7.56375C3.78885 7.58999 3.85103 7.60254 3.91358 7.60038H5.45358L4.72958 10.2964C4.70586 10.3833 4.71218 10.4757 4.74754 10.5586C4.78289 10.6415 4.8452 10.71 4.92436 10.7531C5.00352 10.7961 5.09491 10.8112 5.1837 10.7958C5.27249 10.7804 5.35349 10.7355 5.41358 10.6684L9.77358 5.86838C9.82549 5.81153 9.8599 5.74091 9.87267 5.66499C9.88544 5.58907 9.87604 5.51108 9.84558 5.44038ZM5.92958 8.91238L6.36158 7.31238C6.37962 7.25218 6.38323 7.18858 6.37211 7.12673C6.361 7.06488 6.33546 7.00652 6.29758 6.95638C6.2595 6.90689 6.21036 6.867 6.1541 6.83991C6.09783 6.81282 6.03601 6.79928 5.97358 6.80038H4.43758L5.29358 3.60038H7.26558L6.75758 5.49638C6.74127 5.5568 6.73936 5.6202 6.75202 5.6815C6.76467 5.74279 6.79153 5.80026 6.83044 5.84928C6.86935 5.8983 6.91921 5.93751 6.97603 5.96375C7.03285 5.98999 7.09503 6.00254 7.15758 6.00038H8.58558L5.92958 8.91238Z" fill="white"/>
</g>
<defs>
<clipPath id="clip0_10_55221">
<rect width="9.6" height="9.6" fill="white" transform="translate(1.69983 2.00015)"/>
</clipPath>
</defs>
</svg>
