<svg width="13" height="13" viewBox="0 0 13 13" fill="none" xmlns="http://www.w3.org/2000/svg">
<path d="M5.04996 4.54996C4.84996 4.34996 4.54996 4.34996 4.34996 4.54996C4.14996 4.74996 4.14996 5.04996 4.34996 5.24996L5.44996 6.39996L4.29996 7.54996C4.19996 7.64996 4.14996 7.74996 4.14996 7.89996C4.14996 8.19996 4.34996 8.39996 4.64996 8.39996C4.79996 8.39996 4.89996 8.34996 4.99996 8.24996L6.49996 6.74996C6.69996 6.54996 6.69996 6.24996 6.49996 6.04996L5.04996 4.54996ZM9.29996 6.04996L7.79996 4.54996C7.59996 4.34996 7.29996 4.34996 7.09996 4.54996C6.89996 4.74996 6.89996 5.04996 7.09996 5.24996L8.24996 6.39996L7.09996 7.54996C6.99996 7.64996 6.94996 7.74996 6.94996 7.89996C6.94996 8.19996 7.14996 8.39996 7.44996 8.39996C7.59996 8.39996 7.69996 8.34996 7.79996 8.24996L9.29996 6.74996C9.44996 6.54996 9.44996 6.24996 9.29996 6.04996Z" fill="white"/>
</svg>
