<svg width="13" height="12" viewBox="0 0 13 12" fill="none" xmlns="http://www.w3.org/2000/svg">
<path d="M9.92 7.10012C9.81 7.10012 9.695 7.06512 9.585 7.04012C9.36224 6.99104 9.14334 6.92586 8.93 6.84512C8.69805 6.76074 8.44308 6.76512 8.21416 6.85743C7.98524 6.94973 7.79854 7.12344 7.69 7.34512L7.58 7.57012C7.093 7.29921 6.64549 6.96274 6.25 6.57012C5.85739 6.17463 5.52091 5.72712 5.25 5.24012L5.46 5.10012C5.68168 4.99158 5.85539 4.80489 5.9477 4.57597C6.04 4.34705 6.04439 4.09208 5.96 3.86012C5.88061 3.64633 5.81547 3.42752 5.765 3.20512C5.74 3.09512 5.72 2.98012 5.705 2.86512C5.64428 2.51293 5.45981 2.19399 5.18481 1.96574C4.90981 1.73749 4.56235 1.61493 4.205 1.62012H2.705C2.48952 1.6181 2.27613 1.66253 2.07936 1.75039C1.88259 1.83825 1.70706 1.96747 1.56472 2.12926C1.42238 2.29106 1.31657 2.48162 1.2545 2.68798C1.19242 2.89434 1.17554 3.11165 1.205 3.32512C1.47137 5.41981 2.42802 7.36606 3.92383 8.85644C5.41964 10.3468 7.36936 11.2964 9.465 11.5551H9.655C10.0237 11.5557 10.3797 11.4204 10.655 11.1751C10.8132 11.0336 10.9395 10.8602 11.0257 10.6663C11.1119 10.4724 11.156 10.2623 11.155 10.0501V8.55012C11.1489 8.20282 11.0224 7.8684 10.7972 7.60396C10.5719 7.33951 10.2619 7.16144 9.92 7.10012V7.10012ZM10.17 10.1001C10.1699 10.1711 10.1547 10.2413 10.1254 10.3059C10.0961 10.3706 10.0533 10.4283 10 10.4751C9.9443 10.5236 9.87899 10.5598 9.80834 10.5814C9.73769 10.6029 9.66329 10.6093 9.59 10.6001C7.71745 10.36 5.97812 9.50337 4.64636 8.16527C3.3146 6.82717 2.46621 5.08379 2.235 3.21012C2.22704 3.13688 2.23402 3.06279 2.2555 2.99232C2.27699 2.92185 2.31254 2.85647 2.36 2.80012C2.40686 2.74679 2.46453 2.70404 2.52919 2.67473C2.59385 2.64542 2.66401 2.63021 2.735 2.63012H4.235C4.35127 2.62754 4.46481 2.66556 4.55607 2.73766C4.64733 2.80975 4.71061 2.91141 4.735 3.02512C4.755 3.16179 4.78 3.29679 4.81 3.43012C4.86776 3.6937 4.94463 3.95271 5.04 4.20512L4.34 4.53012C4.28015 4.55758 4.22631 4.5966 4.18158 4.64492C4.13685 4.69325 4.1021 4.74993 4.07934 4.81172C4.05657 4.87351 4.04624 4.93919 4.04893 5.00498C4.05161 5.07078 4.06727 5.1354 4.095 5.19512C4.8146 6.7365 6.05362 7.97552 7.595 8.69512C7.71673 8.74513 7.85327 8.74513 7.975 8.69512C8.03736 8.67282 8.09466 8.63835 8.14359 8.59372C8.19251 8.54908 8.23208 8.49518 8.26 8.43512L8.57 7.73512C8.82848 7.82756 9.09229 7.90437 9.36 7.96512C9.49333 7.99512 9.62833 8.02012 9.765 8.04012C9.87872 8.06452 9.98037 8.12779 10.0525 8.21905C10.1246 8.31031 10.1626 8.42385 10.16 8.54012L10.17 10.1001Z" fill="#065666"/>
</svg>
