<svg width="13" height="13" viewBox="0 0 13 13" fill="none" xmlns="http://www.w3.org/2000/svg">
<path d="M10.7823 5.10033C10.745 5.01469 10.6845 4.94119 10.6077 4.88817C10.5308 4.83515 10.4406 4.80472 10.3473 4.80033H8.05728L8.69228 2.43033C8.71251 2.35616 8.71536 2.27834 8.70062 2.20289C8.68587 2.12745 8.65394 2.05642 8.60728 1.99533C8.56019 1.93415 8.49957 1.88471 8.43017 1.85087C8.36077 1.81704 8.28448 1.79974 8.20728 1.80033H4.70728C4.5944 1.79646 4.48354 1.83093 4.39274 1.89811C4.30195 1.9653 4.23658 2.06125 4.20728 2.17033L2.86728 7.17033C2.8469 7.24586 2.84452 7.32511 2.86033 7.40173C2.87615 7.47834 2.90973 7.55018 2.95836 7.61146C3.00699 7.67273 3.06933 7.72174 3.14035 7.75455C3.21137 7.78735 3.2891 7.80303 3.36728 7.80033H5.29228L4.38728 11.1703C4.35763 11.279 4.36554 11.3945 4.40973 11.4981C4.45393 11.6017 4.53181 11.6874 4.63076 11.7412C4.72972 11.795 4.84394 11.8138 4.95493 11.7946C5.06593 11.7754 5.16718 11.7193 5.24228 11.6353L10.6923 5.63533C10.7572 5.56427 10.8002 5.47599 10.8162 5.38109C10.8321 5.2862 10.8204 5.18871 10.7823 5.10033ZM5.88728 9.44033L6.42728 7.44033C6.44984 7.36508 6.45435 7.28558 6.44045 7.20827C6.42656 7.13095 6.39464 7.058 6.34728 6.99533C6.29968 6.93347 6.23826 6.88361 6.16793 6.84975C6.0976 6.81589 6.02032 6.79896 5.94228 6.80033H4.02228L5.09228 2.80033H7.55728L6.92228 5.17033C6.9019 5.24586 6.89952 5.32511 6.91533 5.40173C6.93115 5.47834 6.96473 5.55018 7.01336 5.61145C7.06199 5.67273 7.12433 5.72174 7.19535 5.75455C7.26637 5.78735 7.3441 5.80303 7.42228 5.80033H9.20728L5.88728 9.44033Z" fill="white"/>
</svg>
