<svg width="13" height="13" viewBox="0 0 13 13" fill="none" xmlns="http://www.w3.org/2000/svg">
<path d="M9.9458 5.0402C9.91599 4.97169 9.8676 4.91289 9.80609 4.87047C9.74459 4.82805 9.67243 4.80371 9.5978 4.8002H7.7658L8.2738 2.9042C8.28998 2.84487 8.29226 2.78261 8.28046 2.72225C8.26867 2.6619 8.24312 2.60507 8.2058 2.5562C8.16812 2.50725 8.11963 2.4677 8.06411 2.44064C8.00859 2.41357 7.94756 2.39973 7.8858 2.4002H5.0858C4.99549 2.3971 4.9068 2.42468 4.83417 2.47843C4.76153 2.53218 4.70924 2.60893 4.6858 2.6962L3.6138 6.6962C3.59749 6.75662 3.59558 6.82003 3.60824 6.88132C3.62089 6.94261 3.64775 7.00008 3.68666 7.0491C3.72557 7.09812 3.77543 7.13733 3.83225 7.16357C3.88907 7.18982 3.95125 7.20236 4.0138 7.2002H5.5538L4.8298 9.8962C4.80608 9.98313 4.8124 10.0755 4.84776 10.1584C4.88311 10.2413 4.94542 10.3098 5.02458 10.3529C5.10374 10.3959 5.19513 10.411 5.28392 10.3956C5.37271 10.3803 5.45371 10.3354 5.5138 10.2682L9.8738 5.4682C9.92571 5.41135 9.96012 5.34073 9.97289 5.26481C9.98566 5.18889 9.97626 5.1109 9.9458 5.0402ZM6.0298 8.5122L6.4618 6.9122C6.47984 6.852 6.48345 6.7884 6.47233 6.72655C6.46122 6.6647 6.43568 6.60634 6.3978 6.5562C6.35972 6.50671 6.31058 6.46683 6.25432 6.43974C6.19805 6.41265 6.13623 6.39911 6.0738 6.4002H4.5378L5.3938 3.2002H7.3658L6.8578 5.0962C6.84149 5.15662 6.83958 5.22003 6.85224 5.28132C6.86489 5.34261 6.89175 5.40008 6.93066 5.4491C6.96957 5.49812 7.01943 5.53733 7.07625 5.56357C7.13307 5.58982 7.19525 5.60236 7.2578 5.6002H8.6858L6.0298 8.5122Z" fill="white"/>
</svg>
