<svg width="13" height="10" viewBox="0 0 13 10" fill="none" xmlns="http://www.w3.org/2000/svg">
<path d="M10.7823 4.70041C10.745 4.61477 10.6845 4.54127 10.6076 4.48825C10.5307 4.43523 10.4405 4.4048 10.3473 4.40041H8.05725L8.69225 2.03041C8.71248 1.95625 8.71533 1.87842 8.70059 1.80298C8.68584 1.72753 8.65391 1.6565 8.60725 1.59541C8.56016 1.53423 8.49954 1.48479 8.43014 1.45096C8.36074 1.41713 8.28445 1.39982 8.20725 1.40041H4.70725C4.59437 1.39654 4.48351 1.43101 4.39271 1.4982C4.30192 1.56538 4.23655 1.66133 4.20725 1.77041L2.86725 6.77041C2.84687 6.84594 2.84449 6.9252 2.8603 7.00181C2.87612 7.07843 2.9097 7.15026 2.95833 7.21154C3.00696 7.27282 3.0693 7.32183 3.14032 7.35463C3.21134 7.38743 3.28907 7.40311 3.36725 7.40041H5.29225L4.38725 10.7704C4.3576 10.8791 4.36551 10.9946 4.4097 11.0982C4.45389 11.2018 4.53178 11.2875 4.63073 11.3413C4.72969 11.3951 4.84391 11.4139 4.9549 11.3947C5.06589 11.3755 5.16715 11.3194 5.24225 11.2354L10.6923 5.23541C10.7571 5.16435 10.8002 5.07608 10.8161 4.98118C10.8321 4.88628 10.8203 4.78879 10.7823 4.70041ZM5.88725 9.04041L6.42725 7.04041C6.44981 6.96517 6.45432 6.88566 6.44042 6.80835C6.42653 6.73104 6.39461 6.65809 6.34725 6.59541C6.29965 6.53355 6.23823 6.48369 6.1679 6.44983C6.09757 6.41597 6.02029 6.39905 5.94225 6.40041H4.02225L5.09225 2.40041H7.55725L6.92225 4.77041C6.90186 4.84594 6.89949 4.9252 6.9153 5.00181C6.93112 5.07843 6.9647 5.15026 7.01333 5.21154C7.06196 5.27281 7.1243 5.32183 7.19532 5.35463C7.26634 5.38743 7.34407 5.40311 7.42225 5.40041H9.20725L5.88725 9.04041Z" fill="white"/>
</svg>
