<svg width="13" height="12" viewBox="0 0 13 12" fill="none" xmlns="http://www.w3.org/2000/svg">
<path d="M10.9822 4.90045C10.9449 4.81481 10.8845 4.74132 10.8076 4.68829C10.7307 4.63527 10.6405 4.60484 10.5472 4.60045H8.2572L8.8922 2.23045C8.91243 2.15629 8.91528 2.07846 8.90054 2.00302C8.88579 1.92758 8.85386 1.85655 8.8072 1.79545C8.76011 1.73427 8.69949 1.68483 8.63009 1.651C8.56069 1.61717 8.48441 1.59987 8.4072 1.60045H4.9072C4.79432 1.59659 4.68346 1.63105 4.59266 1.69824C4.50187 1.76542 4.4365 1.86137 4.4072 1.97045L3.0672 6.97045C3.04682 7.04598 3.04444 7.12524 3.06026 7.20185C3.07607 7.27847 3.10965 7.3503 3.15828 7.41158C3.20692 7.47286 3.26925 7.52187 3.34027 7.55467C3.41129 7.58748 3.48902 7.60316 3.5672 7.60045H5.4922L4.5872 10.9705C4.55755 11.0791 4.56546 11.1946 4.60965 11.2982C4.65385 11.4018 4.73173 11.4875 4.83068 11.5413C4.92964 11.5951 5.04386 11.614 5.15485 11.5947C5.26585 11.5755 5.3671 11.5194 5.4422 11.4355L10.8922 5.43545C10.9571 5.36439 11.0001 5.27612 11.0161 5.18122C11.032 5.08632 11.0203 4.98883 10.9822 4.90045ZM6.0872 9.24045L6.6272 7.24045C6.64976 7.16521 6.65427 7.08571 6.64038 7.00839C6.62648 6.93108 6.59456 6.85813 6.5472 6.79545C6.4996 6.73359 6.43818 6.68374 6.36785 6.64988C6.29752 6.61601 6.22025 6.59909 6.1422 6.60045H4.2222L5.2922 2.60045H7.7572L7.1222 4.97045C7.10182 5.04598 7.09944 5.12524 7.11526 5.20185C7.13107 5.27847 7.16465 5.3503 7.21328 5.41158C7.26192 5.47286 7.32425 5.52187 7.39527 5.55467C7.46629 5.58748 7.54402 5.60316 7.6222 5.60045H9.4072L6.0872 9.24045Z" fill="white"/>
</svg>
