<svg width="74" height="20" viewBox="0 0 74 20" fill="none" xmlns="http://www.w3.org/2000/svg">
<path d="M14.2338 0.600006L0.800049 11.707H9.87079L6.24155 19.7886L19.794 8.75559H10.3466L14.2338 0.600006Z" fill="#3182CE"/>
<path d="M14.2337 0.600037L8.16571 9.56734L17.1819 9.56734L6.24146 19.7887L19.7939 8.75562L10.3465 8.75562L14.2337 0.600037Z" fill="#2B6CB0"/>
<path d="M14.2338 0.600006L0.800049 11.7071H9.87079L6.24155 19.7886L12.0064 10.8953H3.48215L14.2338 0.600006Z" fill="#4299E1"/>
<path d="M52.0989 14.2033C51.5009 14.2033 50.9521 14.151 50.4526 14.0463C49.9531 13.9346 49.4993 13.788 49.0913 13.6065C48.6903 13.4181 48.3244 13.2052 47.9938 12.9678L48.8169 11.5438C49.3938 11.9487 49.9742 12.2453 50.5582 12.4338C51.1421 12.6153 51.7014 12.7061 52.2361 12.7061C52.4683 12.7061 52.711 12.6851 52.9643 12.6432C53.2175 12.5944 53.4286 12.5141 53.5974 12.4024C53.7733 12.2837 53.8613 12.1232 53.8613 11.9208C53.8613 11.8021 53.8191 11.7044 53.7346 11.6276C53.6572 11.5438 53.5482 11.4775 53.4075 11.4286C53.2668 11.3798 53.1014 11.3414 52.9115 11.3135C52.7286 11.2786 52.5281 11.2541 52.31 11.2402C52.0989 11.2192 51.8843 11.1983 51.6662 11.1774C51.1738 11.1285 50.727 11.0482 50.326 10.9365C49.925 10.8248 49.5803 10.6817 49.2918 10.5072C49.0104 10.3257 48.7923 10.1059 48.6375 9.84759C48.4827 9.58932 48.4053 9.29265 48.4053 8.95759C48.4053 8.58065 48.4968 8.24559 48.6797 7.95242C48.8697 7.65924 49.1335 7.41493 49.4712 7.21948C49.8089 7.01705 50.1958 6.86348 50.632 6.75877C51.0753 6.65407 51.5502 6.60172 52.0567 6.60172C52.5844 6.60172 53.0592 6.65058 53.4814 6.7483C53.9105 6.83905 54.2869 6.96469 54.6105 7.12524C54.9412 7.28579 55.2156 7.4603 55.4337 7.64877L54.5683 8.8843C54.3502 8.72375 54.097 8.58763 53.8085 8.47595C53.5271 8.35728 53.2281 8.26653 52.9115 8.20371C52.6019 8.14089 52.2924 8.10948 51.9828 8.10948C51.6662 8.10948 51.3813 8.1374 51.128 8.19324C50.8818 8.2421 50.6848 8.31889 50.5371 8.42359C50.3964 8.52132 50.326 8.65046 50.326 8.811C50.326 8.95759 50.3858 9.07975 50.5054 9.17747C50.632 9.26822 50.7939 9.34151 50.9908 9.39736C51.1878 9.44622 51.4059 9.48461 51.6451 9.51253C51.8843 9.54045 52.1165 9.56837 52.3416 9.5963C52.7638 9.63818 53.1788 9.69402 53.5869 9.76382C53.9949 9.82665 54.3608 9.93135 54.6844 10.0779C55.0151 10.2175 55.2789 10.42 55.4759 10.6852C55.6729 10.9435 55.7714 11.296 55.7714 11.7428C55.7714 12.2593 55.6131 12.7026 55.2965 13.0725C54.9799 13.4355 54.5437 13.7147 53.9879 13.9102C53.4391 14.1056 52.8095 14.2033 52.0989 14.2033Z" fill="#122743"/>
<path d="M67.6519 14.1837V12.5909H69.6358V8.33983H67.6519L67.6167 6.80411H73.4244V8.33983H71.4299V12.5909H73.4244V14.1837H67.6519Z" fill="#122743"/>
<path d="M22.4915 12.9808L22.5114 14.1837H29.9513L29.9313 12.5829H25.2864L29.8153 8.00725V6.80411H23.2119V8.4889H26.9463L22.4915 12.9808Z" fill="#122743"/>
<path d="M31.4463 14.1837V6.80411H38.0736V8.28748H33.1876V9.64865H37.5987V11.0936H33.1876V12.6457H38.1792V14.1837H31.4463Z" fill="#122743"/>
<path d="M63.0913 14.1615C62.3033 14.1615 61.6174 14.0079 61.0335 13.7008C60.4495 13.3936 59.9957 12.9713 59.6721 12.4338C59.3485 11.8963 59.1867 11.2402 59.1867 10.5491V6.80411H61.0018V10.5491C61.0018 13.0801 65.2336 13.0801 65.2336 10.5491V6.80411H66.9854V10.5491C66.9854 11.2402 66.8236 11.8963 66.4999 12.4338C66.1763 12.9713 65.7225 13.3936 65.1386 13.7008C64.5547 14.0079 63.8722 14.1615 63.0913 14.1615Z" fill="#122743"/>
<path d="M39.4801 10.5491V6.80411H41.2953V10.5491C41.2953 13.1637 45.527 13.1637 45.527 10.5491V6.80411H47.2788V10.5491C47.2788 15.4245 39.4801 15.3919 39.4801 10.5491Z" fill="#122743"/>
</svg>
