<svg width="91" height="24" viewBox="0 0 91 24" fill="none" xmlns="http://www.w3.org/2000/svg">
<path d="M16.661 -6.10352e-05L0 13.8837H11.2498L6.74872 23.9857L23.5569 10.1944H11.84L16.661 -6.10352e-05Z" fill="#3182CE"/>
<path d="M16.6609 -6.10352e-05L9.13518 11.2091L20.3174 11.2091L6.74866 23.9857L23.5568 10.1944L11.8399 10.1944L16.6609 -6.10352e-05Z" fill="#2B6CB0"/>
<path d="M16.661 -6.10352e-05L0 13.8837H11.2498L6.74872 23.9857L13.8985 12.8691H3.32643L16.661 -6.10352e-05Z" fill="#4299E1"/>
<path d="M63.6224 17.0041C62.8808 17.0041 62.2002 16.9387 61.5807 16.8078C60.9612 16.6682 60.3984 16.4849 59.8923 16.2581C59.395 16.0225 58.9412 15.7564 58.5311 15.4597L59.552 13.6797C60.2675 14.1858 60.9874 14.5566 61.7116 14.7922C62.4358 15.0191 63.1295 15.1325 63.7926 15.1325C64.0805 15.1325 64.3816 15.1063 64.6957 15.054C65.0098 14.9929 65.2716 14.8925 65.481 14.7529C65.6991 14.6046 65.8082 14.4039 65.8082 14.1509C65.8082 14.0026 65.7558 13.8804 65.6511 13.7844C65.5551 13.6797 65.4199 13.5968 65.2454 13.5357C65.0709 13.4747 64.8658 13.4267 64.6302 13.3918C64.4034 13.3481 64.1547 13.3176 63.8842 13.3001C63.6224 13.274 63.3563 13.2478 63.0858 13.2216C62.475 13.1605 61.921 13.0602 61.4236 12.9206C60.9263 12.781 60.4987 12.6021 60.141 12.384C59.792 12.1571 59.5215 11.8823 59.3295 11.5594C59.1376 11.2366 59.0416 10.8657 59.0416 10.4469C59.0416 9.97575 59.155 9.55692 59.3819 9.19045C59.6175 8.82398 59.9447 8.51859 60.3635 8.27428C60.7823 8.02124 61.2622 7.82928 61.8032 7.6984C62.3529 7.56752 62.9419 7.50208 63.5701 7.50208C64.2245 7.50208 64.8135 7.56315 65.337 7.68531C65.8693 7.79874 66.3361 7.9558 66.7374 8.15649C67.1475 8.35717 67.4878 8.57531 67.7583 8.8109L66.6851 10.3553C66.4146 10.1546 66.1005 9.98447 65.7427 9.84486C65.3937 9.69653 65.0229 9.5831 64.6302 9.50457C64.2463 9.42604 63.8624 9.38678 63.4785 9.38678C63.0858 9.38678 62.7324 9.42168 62.4183 9.49148C62.1129 9.55256 61.8686 9.64854 61.6854 9.77942C61.5109 9.90158 61.4236 10.063 61.4236 10.2637C61.4236 10.4469 61.4978 10.5996 61.6461 10.7218C61.8032 10.8352 62.0039 10.9268 62.2482 10.9966C62.4925 11.0577 62.763 11.1057 63.0597 11.1406C63.3563 11.1755 63.6443 11.2104 63.9235 11.2453C64.447 11.2977 64.9618 11.3675 65.4679 11.4547C65.974 11.5332 66.4277 11.6641 66.8291 11.8474C67.2392 12.0219 67.5664 12.2749 67.8107 12.6065C68.055 12.9293 68.1771 13.37 68.1771 13.9284C68.1771 14.5741 67.9808 15.1281 67.5882 15.5906C67.1955 16.0443 66.6545 16.3933 65.9652 16.6376C65.2846 16.882 64.5037 17.0041 63.6224 17.0041Z" fill="#122743"/>
<path d="M82.9117 16.9796V14.9885H85.3723V9.67472H82.9117L82.8681 7.75507H90.071V9.67472H87.5973V14.9885H90.071V16.9796H82.9117Z" fill="#122743"/>
<path d="M26.9023 15.4759L26.927 16.9796H36.1542L36.1295 14.9785H30.3688L35.9856 9.259V7.75507H27.7959V9.86105H32.4273L26.9023 15.4759Z" fill="#122743"/>
<path d="M38.0085 16.9796V7.75507H46.2279V9.60928H40.168V11.3107H45.6389V13.1169H40.168V15.0571H46.3587V16.9796H38.0085Z" fill="#122743"/>
<path d="M77.2555 16.9518C76.2783 16.9518 75.4276 16.7598 74.7033 16.3759C73.9791 15.992 73.4163 15.4641 73.015 14.7922C72.6136 14.1203 72.4129 13.3001 72.4129 12.4363V7.75507H74.6641V12.4363C74.6641 15.6001 79.9125 15.6001 79.9125 12.4363V7.75507H82.0851V12.4363C82.0851 13.3001 81.8844 14.1203 81.483 14.7922C81.0817 15.4641 80.5189 15.992 79.7947 16.3759C79.0704 16.7598 78.2241 16.9518 77.2555 16.9518Z" fill="#122743"/>
<path d="M47.9722 12.4363V7.75507H50.2234V12.4363C50.2234 15.7046 55.4718 15.7046 55.4718 12.4363V7.75507H57.6444V12.4363C57.6444 18.5306 47.9722 18.4898 47.9722 12.4363Z" fill="#122743"/>
</svg>
