<svg width="15" height="15" viewBox="0 0 15 15" fill="none" xmlns="http://www.w3.org/2000/svg">
<path d="M11.925 6.60001H2.47505C2.29603 6.60001 2.12434 6.66322 1.99775 6.77574C1.87116 6.88826 1.80005 7.04088 1.80005 7.20001C1.80005 7.35914 1.87116 7.51175 1.99775 7.62427C2.12434 7.73679 2.29603 7.80001 2.47505 7.80001H11.925C12.1041 7.80001 12.2758 7.73679 12.4023 7.62427C12.5289 7.51175 12.6 7.35914 12.6 7.20001C12.6 7.04088 12.5289 6.88826 12.4023 6.77574C12.2758 6.66322 12.1041 6.60001 11.925 6.60001Z" fill="black"/>
<path d="M11.925 9.60001H2.47505C2.29603 9.60001 2.12434 9.66322 1.99775 9.77574C1.87116 9.88826 1.80005 10.0409 1.80005 10.2C1.80005 10.3591 1.87116 10.5117 1.99775 10.6243C2.12434 10.7368 2.29603 10.8 2.47505 10.8H11.925C12.1041 10.8 12.2758 10.7368 12.4023 10.6243C12.5289 10.5117 12.6 10.3591 12.6 10.2C12.6 10.0409 12.5289 9.88826 12.4023 9.77574C12.2758 9.66322 12.1041 9.60001 11.925 9.60001Z" fill="black"/>
<path d="M11.925 3.60001H2.47505C2.29603 3.60001 2.12434 3.66322 1.99775 3.77574C1.87116 3.88826 1.80005 4.04088 1.80005 4.20001C1.80005 4.35914 1.87116 4.51175 1.99775 4.62427C2.12434 4.73679 2.29603 4.80001 2.47505 4.80001H11.925C12.1041 4.80001 12.2758 4.73679 12.4023 4.62427C12.5289 4.51175 12.6 4.35914 12.6 4.20001C12.6 4.04088 12.5289 3.88826 12.4023 3.77574C12.2758 3.66322 12.1041 3.60001 11.925 3.60001Z" fill="black"/>
</svg>
