<svg width="13" height="13" viewBox="0 0 13 13" fill="none" xmlns="http://www.w3.org/2000/svg">
<path d="M10.5822 4.70026C10.545 4.61462 10.4845 4.54112 10.4076 4.4881C10.3307 4.43508 10.2405 4.40465 10.1472 4.40026H7.85724L8.49224 2.03026C8.51246 1.95609 8.51532 1.87827 8.50057 1.80282C8.48583 1.72738 8.45389 1.65635 8.40724 1.59526C8.36015 1.53408 8.29953 1.48464 8.23013 1.4508C8.16073 1.41697 8.08444 1.39967 8.00724 1.40026H4.50724C4.39436 1.39639 4.28349 1.43086 4.1927 1.49804C4.10191 1.56523 4.03654 1.66118 4.00724 1.77026L2.66724 6.77026C2.64685 6.84579 2.64447 6.92504 2.66029 7.00166C2.67611 7.07827 2.70969 7.15011 2.75832 7.21138C2.80695 7.27266 2.86929 7.32167 2.94031 7.35448C3.01133 7.38728 3.08906 7.40296 3.16724 7.40026H5.09224L4.18724 10.7703C4.15759 10.8789 4.1655 10.9944 4.20969 11.098C4.25388 11.2016 4.33177 11.2873 4.43072 11.3411C4.52967 11.3949 4.6439 11.4138 4.75489 11.3945C4.86588 11.3753 4.96713 11.3192 5.04224 11.2353L10.4922 5.23526C10.5571 5.1642 10.6001 5.07592 10.6161 4.98102C10.6321 4.88613 10.6203 4.78864 10.5822 4.70026ZM5.68724 9.04026L6.22724 7.04026C6.2498 6.96501 6.25431 6.88551 6.24041 6.8082C6.22651 6.73088 6.19459 6.65793 6.14724 6.59526C6.09964 6.5334 6.03822 6.48354 5.96789 6.44968C5.89756 6.41582 5.82028 6.39889 5.74224 6.40026H3.82224L4.89224 2.40026H7.35724L6.72224 4.77026C6.70185 4.84578 6.69947 4.92504 6.71529 5.00166C6.73111 5.07827 6.76469 5.15011 6.81332 5.21138C6.86195 5.27266 6.92428 5.32167 6.99531 5.35448C7.06633 5.38728 7.14405 5.40296 7.22224 5.40026H9.00724L5.68724 9.04026Z" fill="white"/>
</svg>
