<svg width="13" height="12" viewBox="0 0 13 12" fill="none" xmlns="http://www.w3.org/2000/svg">
<path d="M6.69995 0.999969C3.94995 0.999969 1.69995 3.24997 1.69995 5.99997C1.69995 8.74997 3.94995 11 6.69995 11C7.59995 11 8.44995 10.75 9.19995 10.35C9.44995 10.2 9.49995 9.89997 9.39995 9.64997C9.24995 9.39997 8.94995 9.34997 8.69995 9.44997C6.79995 10.55 4.34995 9.89997 3.24995 7.99997C2.14995 6.09997 2.79995 3.64997 4.69995 2.54997C6.59995 1.44997 9.04995 2.09997 10.15 3.99997C10.5 4.59997 10.7 5.29997 10.7 5.99997V6.39997C10.7 6.89997 10.3 7.29997 9.79995 7.29997C9.29995 7.29997 8.89995 6.89997 8.89995 6.39997V4.24997C8.89995 3.94997 8.69995 3.74997 8.39995 3.74997C8.14995 3.74997 7.94995 3.89997 7.89995 4.14997C6.89995 3.44997 5.44995 3.69997 4.74995 4.69997C4.04995 5.69997 4.29995 7.14997 5.29995 7.84997C6.24995 8.49997 7.49995 8.34997 8.24995 7.49997C8.89995 8.29997 10.05 8.44997 10.85 7.84997C11.3 7.49997 11.6 6.94997 11.6 6.34997V5.99997C11.7 3.24997 9.44995 0.999969 6.69995 0.999969ZM6.69995 7.24997C5.99995 7.24997 5.44995 6.69997 5.44995 5.99997C5.44995 5.29997 5.99995 4.74997 6.69995 4.74997C7.39995 4.74997 7.94995 5.29997 7.94995 5.99997C7.94995 6.69997 7.39995 7.24997 6.69995 7.24997Z" fill="#728095"/>
</svg>
