<svg width="13" height="13" viewBox="0 0 13 13" fill="none" xmlns="http://www.w3.org/2000/svg">
<path d="M9.44592 5.24021C9.41612 5.1717 9.36772 5.1129 9.30621 5.07048C9.24471 5.02807 9.17255 5.00372 9.09792 5.00021H7.26592L7.77392 3.10421C7.7901 3.04488 7.79238 2.98262 7.78059 2.92226C7.76879 2.86191 7.74324 2.80509 7.70592 2.75621C7.66824 2.70727 7.61975 2.66771 7.56423 2.64065C7.50871 2.61358 7.44768 2.59974 7.38592 2.60021H4.58592C4.49561 2.59712 4.40692 2.62469 4.33429 2.67844C4.26165 2.73219 4.20936 2.80895 4.18592 2.89621L3.11392 6.89621C3.09761 6.95663 3.09571 7.02004 3.10836 7.08133C3.12102 7.14262 3.14788 7.20009 3.18678 7.24911C3.22569 7.29813 3.27555 7.33734 3.33237 7.36359C3.38919 7.38983 3.45137 7.40237 3.51392 7.40021H5.05392L4.32992 10.0962C4.3062 10.1831 4.31253 10.2755 4.34788 10.3584C4.38323 10.4413 4.44554 10.5098 4.5247 10.5529C4.60387 10.596 4.69525 10.611 4.78404 10.5956C4.87283 10.5803 4.95383 10.5354 5.01392 10.4682L9.37392 5.66821C9.42583 5.61136 9.46024 5.54074 9.47301 5.46482C9.48579 5.38891 9.47638 5.31091 9.44592 5.24021ZM5.52992 8.71221L5.96192 7.11221C5.97997 7.05202 5.98358 6.98841 5.97246 6.92656C5.96134 6.86471 5.9358 6.80635 5.89792 6.75621C5.85984 6.70672 5.8107 6.66684 5.75444 6.63975C5.69818 6.61266 5.63635 6.59912 5.57392 6.60021H4.03792L4.89392 3.40021H6.86592L6.35792 5.29621C6.34161 5.35663 6.33971 5.42004 6.35236 5.48133C6.36502 5.54262 6.39188 5.60009 6.43078 5.64911C6.46969 5.69813 6.51955 5.73734 6.57637 5.76359C6.63319 5.78983 6.69537 5.80237 6.75792 5.80021H8.18592L5.52992 8.71221Z" fill="white"/>
</svg>
