<svg width="12" height="13" viewBox="0 0 12 13" fill="none" xmlns="http://www.w3.org/2000/svg">
<path d="M9.34576 5.44022C9.31596 5.37171 9.26756 5.31291 9.20605 5.2705C9.14455 5.22808 9.07239 5.20373 8.99776 5.20022H7.16576L7.67376 3.30422C7.68994 3.24489 7.69222 3.18263 7.68043 3.12228C7.66863 3.06192 7.64308 3.0051 7.60576 2.95622C7.56809 2.90728 7.51959 2.86773 7.46407 2.84066C7.40855 2.8136 7.34752 2.79975 7.28576 2.80022H4.48576C4.39545 2.79713 4.30676 2.8247 4.23413 2.87845C4.1615 2.9322 4.1092 3.00896 4.08576 3.09622L3.01376 7.09622C2.99745 7.15665 2.99555 7.22005 3.0082 7.28134C3.02086 7.34264 3.04772 7.4001 3.08662 7.44912C3.12553 7.49815 3.1754 7.53736 3.23221 7.5636C3.28903 7.58984 3.35121 7.60239 3.41376 7.60022H4.95376L4.22976 10.2962C4.20604 10.3832 4.21237 10.4756 4.24772 10.5584C4.28307 10.6413 4.34538 10.7099 4.42454 10.7529C4.50371 10.796 4.59509 10.811 4.68388 10.7957C4.77267 10.7803 4.85368 10.7354 4.91376 10.6682L9.27376 5.86822C9.32568 5.81138 9.36008 5.74076 9.37285 5.66484C9.38563 5.58892 9.37622 5.51093 9.34576 5.44022ZM5.42976 8.91222L5.86176 7.31222C5.87981 7.25203 5.88342 7.18843 5.8723 7.12658C5.86118 7.06472 5.83564 7.00636 5.79776 6.95622C5.75968 6.90674 5.71054 6.86685 5.65428 6.83976C5.59802 6.81267 5.53619 6.79913 5.47376 6.80022H3.93776L4.79376 3.60022H6.76576L6.25776 5.49622C6.24145 5.55664 6.23955 5.62005 6.2522 5.68134C6.26486 5.74264 6.29172 5.8001 6.33062 5.84912C6.36953 5.89815 6.4194 5.93736 6.47621 5.9636C6.53303 5.98984 6.59521 6.00239 6.65776 6.00022H8.08576L5.42976 8.91222Z" fill="white"/>
</svg>
