<svg width="13" height="13" viewBox="0 0 13 13" fill="none" xmlns="http://www.w3.org/2000/svg">
<g clip-path="url(#clip0_10_55513)">
<path d="M10.1456 4.84019C10.1158 4.77167 10.0674 4.71288 10.0059 4.67046C9.94441 4.62804 9.87226 4.6037 9.79763 4.60019H7.96563L8.47363 2.70419C8.4898 2.64486 8.49209 2.58259 8.48029 2.52224C8.4685 2.46188 8.44295 2.40506 8.40563 2.35619C8.36795 2.30724 8.31946 2.26769 8.26394 2.24062C8.20842 2.21356 8.14739 2.19972 8.08563 2.20019H5.28563C5.19532 2.19709 5.10663 2.22467 5.03399 2.27841C4.96136 2.33216 4.90907 2.40892 4.88563 2.49619L3.81363 6.49619C3.79732 6.55661 3.79541 6.62001 3.80807 6.68131C3.82072 6.7426 3.84758 6.80007 3.88649 6.84909C3.9254 6.89811 3.97526 6.93732 4.03208 6.96356C4.0889 6.9898 4.15108 7.00235 4.21363 7.00019H5.75363L5.02963 9.69619C5.0059 9.78312 5.01223 9.87552 5.04759 9.95841C5.08294 10.0413 5.14525 10.1098 5.22441 10.1529C5.30357 10.1959 5.39495 10.211 5.48375 10.1956C5.57254 10.1802 5.65354 10.1353 5.71363 10.0682L10.0736 5.26819C10.1255 5.21134 10.1599 5.14072 10.1727 5.0648C10.1855 4.98888 10.1761 4.91089 10.1456 4.84019ZM6.22963 8.31219L6.66163 6.71219C6.67967 6.65199 6.68328 6.58839 6.67216 6.52654C6.66104 6.46469 6.63551 6.40633 6.59763 6.35619C6.55954 6.3067 6.51041 6.26681 6.45414 6.23972C6.39788 6.21264 6.33606 6.19909 6.27363 6.20019H4.73763L5.59363 3.00019H7.56563L7.05763 4.89619C7.04132 4.95661 7.03941 5.02001 7.05207 5.08131C7.06472 5.1426 7.09158 5.20007 7.13049 5.24909C7.1694 5.29811 7.21926 5.33732 7.27608 5.36356C7.3329 5.3898 7.39508 5.40235 7.45763 5.40019H8.88563L6.22963 8.31219Z" fill="white"/>
</g>
<defs>
<clipPath id="clip0_10_55513">
<rect width="9.6" height="9.6" fill="white" transform="translate(1.99988 1.39996)"/>
</clipPath>
</defs>
</svg>
