<svg width="13" height="13" viewBox="0 0 13 13" fill="none" xmlns="http://www.w3.org/2000/svg">
<path d="M10.2201 7.29992C10.1101 7.29992 9.99505 7.26492 9.88505 7.23992C9.66229 7.19083 9.44338 7.12566 9.23005 7.04492C8.99809 6.96054 8.74312 6.96492 8.5142 7.05723C8.28529 7.14953 8.09859 7.32324 7.99005 7.54492L7.88005 7.76992C7.39305 7.49901 6.94554 7.16254 6.55005 6.76992C6.15744 6.37443 5.82096 5.92692 5.55005 5.43992L5.76005 5.29992C5.98173 5.19138 6.15544 5.00469 6.24775 4.77577C6.34005 4.54685 6.34444 4.29188 6.26005 4.05992C6.18066 3.84613 6.11552 3.62732 6.06505 3.40492C6.04005 3.29492 6.02005 3.17992 6.00505 3.06492C5.94433 2.71273 5.75986 2.39379 5.48486 2.16554C5.20986 1.93729 4.8624 1.81473 4.50505 1.81992H3.00505C2.78957 1.8179 2.57618 1.86233 2.37941 1.95019C2.18264 2.03805 2.00711 2.16727 1.86477 2.32906C1.72243 2.49086 1.61662 2.68142 1.55454 2.88778C1.49247 3.09414 1.47559 3.31145 1.50505 3.52492C1.77142 5.61961 2.72806 7.56586 4.22388 9.05624C5.71969 10.5466 7.6694 11.4962 9.76505 11.7549H9.95505C10.3238 11.7555 10.6797 11.6202 10.9551 11.3749C11.1132 11.2334 11.2396 11.06 11.3258 10.8661C11.412 10.6722 11.456 10.4621 11.4551 10.2499V8.74992C11.4489 8.40261 11.3225 8.0682 11.0972 7.80375C10.872 7.53931 10.562 7.36124 10.2201 7.29992V7.29992ZM10.4701 10.2999C10.47 10.3709 10.4548 10.4411 10.4254 10.5057C10.3961 10.5704 10.3534 10.6281 10.3001 10.6749C10.2443 10.7234 10.179 10.7596 10.1084 10.7812C10.0377 10.8027 9.96334 10.8091 9.89005 10.7999C8.0175 10.5598 6.27817 9.70316 4.94641 8.36507C3.61465 7.02697 2.76626 5.28359 2.53505 3.40992C2.52709 3.33668 2.53407 3.26259 2.55555 3.19212C2.57704 3.12165 2.61259 3.05627 2.66005 2.99992C2.70691 2.94659 2.76458 2.90384 2.82924 2.87453C2.8939 2.84522 2.96406 2.83001 3.03505 2.82992H4.53505C4.65132 2.82733 4.76486 2.86536 4.85612 2.93746C4.94738 3.00955 5.01066 3.11121 5.03505 3.22492C5.05505 3.36159 5.08005 3.49659 5.11005 3.62992C5.16781 3.89349 5.24468 4.15251 5.34005 4.40492L4.64005 4.72992C4.5802 4.75738 4.52636 4.7964 4.48163 4.84472C4.4369 4.89304 4.40215 4.94973 4.37939 5.01152C4.35662 5.07331 4.34629 5.13899 4.34897 5.20478C4.35166 5.27058 4.36732 5.33519 4.39505 5.39492C5.11465 6.9363 6.35367 8.17532 7.89505 8.89492C8.01678 8.94493 8.15332 8.94493 8.27505 8.89492C8.33741 8.87262 8.39471 8.83815 8.44364 8.79352C8.49256 8.74888 8.53213 8.69497 8.56005 8.63492L8.87005 7.93492C9.12853 8.02736 9.39234 8.10417 9.66005 8.16492C9.79338 8.19492 9.92838 8.21992 10.0651 8.23992C10.1788 8.26432 10.2804 8.32759 10.3525 8.41885C10.4246 8.51011 10.4626 8.62365 10.4601 8.73992L10.4701 10.2999Z" fill="#065666"/>
</svg>
