<svg width="13" height="12" viewBox="0 0 13 12" fill="none" xmlns="http://www.w3.org/2000/svg">
<g clip-path="url(#clip0_10_55061)">
<path d="M10.1457 4.64033C10.1159 4.57181 10.0675 4.51302 10.006 4.4706C9.94454 4.42818 9.87238 4.40384 9.79775 4.40033H7.96575L8.47375 2.50433C8.48993 2.445 8.49221 2.38273 8.48041 2.32238C8.46862 2.26202 8.44307 2.2052 8.40575 2.15633C8.36807 2.10738 8.31958 2.06783 8.26406 2.04076C8.20854 2.0137 8.14751 1.99986 8.08575 2.00033H5.28575C5.19544 1.99723 5.10675 2.02481 5.03412 2.07855C4.96148 2.1323 4.90919 2.20906 4.88575 2.29633L3.81375 6.29633C3.79744 6.35675 3.79553 6.42016 3.80819 6.48145C3.82084 6.54274 3.8477 6.60021 3.88661 6.64923C3.92552 6.69825 3.97538 6.73746 4.0322 6.7637C4.08902 6.78994 4.1512 6.80249 4.21375 6.80033H5.75375L5.02975 9.49633C5.00603 9.58326 5.01236 9.67566 5.04771 9.75855C5.08306 9.84144 5.14537 9.90996 5.22453 9.95301C5.30369 9.99607 5.39508 10.0111 5.48387 9.99576C5.57266 9.98039 5.65366 9.93549 5.71375 9.86833L10.0737 5.06833C10.1257 5.01148 10.1601 4.94086 10.1728 4.86494C10.1856 4.78902 10.1762 4.71103 10.1457 4.64033ZM6.22975 8.11233L6.66175 6.51233C6.67979 6.45213 6.6834 6.38853 6.67229 6.32668C6.66117 6.26483 6.63563 6.20647 6.59775 6.15633C6.55967 6.10684 6.51053 6.06695 6.45427 6.03986C6.398 6.01278 6.33618 5.99923 6.27375 6.00033H4.73775L5.59375 2.80033H7.56575L7.05775 4.69633C7.04144 4.75675 7.03953 4.82016 7.05219 4.88145C7.06484 4.94274 7.0917 5.00021 7.13061 5.04923C7.16952 5.09825 7.21938 5.13746 7.2762 5.1637C7.33302 5.18994 7.3952 5.20249 7.45775 5.20033H8.88575L6.22975 8.11233Z" fill="white"/>
</g>
<defs>
<clipPath id="clip0_10_55061">
<rect width="9.6" height="9.6" fill="white" transform="translate(1.99988 1.20004)"/>
</clipPath>
</defs>
</svg>
