<svg width="13" height="13" viewBox="0 0 13 13" fill="none" xmlns="http://www.w3.org/2000/svg">
<g clip-path="url(#clip0_10_55454)">
<path d="M9.74585 4.84019C9.71604 4.77167 9.66765 4.71288 9.60614 4.67046C9.54463 4.62804 9.47248 4.6037 9.39785 4.60019H7.56585L8.07385 2.70419C8.09002 2.64486 8.09231 2.58259 8.08051 2.52224C8.06872 2.46188 8.04317 2.40506 8.00585 2.35619C7.96817 2.30724 7.91967 2.26769 7.86416 2.24062C7.80864 2.21356 7.74761 2.19972 7.68585 2.20019H4.88585C4.79554 2.19709 4.70685 2.22467 4.63421 2.27841C4.56158 2.33216 4.50929 2.40892 4.48585 2.49619L3.41385 6.49619C3.39754 6.55661 3.39563 6.62001 3.40829 6.68131C3.42094 6.7426 3.4478 6.80007 3.48671 6.84909C3.52562 6.89811 3.57548 6.93732 3.6323 6.96356C3.68912 6.9898 3.7513 7.00235 3.81385 7.00019H5.35385L4.62985 9.69619C4.60612 9.78312 4.61245 9.87552 4.64781 9.95841C4.68316 10.0413 4.74547 10.1098 4.82463 10.1529C4.90379 10.1959 4.99517 10.211 5.08397 10.1956C5.17276 10.1802 5.25376 10.1353 5.31385 10.0682L9.67385 5.26819C9.72576 5.21134 9.76017 5.14072 9.77294 5.0648C9.78571 4.98888 9.7763 4.91089 9.74585 4.84019ZM5.82985 8.31219L6.26185 6.71219C6.27989 6.65199 6.2835 6.58839 6.27238 6.52654C6.26126 6.46469 6.23573 6.40633 6.19785 6.35619C6.15976 6.3067 6.11063 6.26681 6.05436 6.23972C5.9981 6.21264 5.93628 6.19909 5.87385 6.20019H4.33785L5.19385 3.00019H7.16585L6.65785 4.89619C6.64154 4.95661 6.63963 5.02001 6.65229 5.08131C6.66494 5.1426 6.6918 5.20007 6.73071 5.24909C6.76962 5.29811 6.81948 5.33732 6.8763 5.36356C6.93312 5.3898 6.9953 5.40235 7.05785 5.40019H8.48585L5.82985 8.31219Z" fill="#A1AEBF"/>
</g>
<defs>
<clipPath id="clip0_10_55454">
<rect width="9.6" height="9.6" fill="white" transform="translate(1.59998 1.39996)"/>
</clipPath>
</defs>
</svg>
