<svg width="13" height="13" viewBox="0 0 13 13" fill="none" xmlns="http://www.w3.org/2000/svg">
<path d="M10.9823 5.10039C10.9451 5.01475 10.8846 4.94125 10.8077 4.88823C10.7308 4.83521 10.6406 4.80478 10.5473 4.80039H8.25732L8.89232 2.43039C8.91255 2.35623 8.9154 2.2784 8.90066 2.20295C8.88592 2.12751 8.85398 2.05648 8.80733 1.99539C8.76023 1.93421 8.69961 1.88477 8.63021 1.85094C8.56082 1.8171 8.48453 1.7998 8.40732 1.80039H4.90732C4.79444 1.79652 4.68358 1.83099 4.59279 1.89817C4.50199 1.96536 4.43662 2.06131 4.40732 2.17039L3.06733 7.17039C3.04694 7.24592 3.04456 7.32517 3.06038 7.40179C3.0762 7.4784 3.10977 7.55024 3.1584 7.61152C3.20704 7.67279 3.26937 7.7218 3.34039 7.75461C3.41141 7.78741 3.48914 7.80309 3.56733 7.80039H5.49232L4.58732 11.1704C4.55767 11.2791 4.56558 11.3946 4.60978 11.4982C4.65397 11.6018 4.73185 11.6874 4.8308 11.7412C4.92976 11.7951 5.04399 11.8139 5.15498 11.7947C5.26597 11.7755 5.36722 11.7193 5.44232 11.6354L10.8923 5.63539C10.9572 5.56433 11.0002 5.47605 11.0162 5.38116C11.0322 5.28626 11.0204 5.18877 10.9823 5.10039ZM6.08732 9.44039L6.62732 7.44039C6.64988 7.36514 6.6544 7.28564 6.6405 7.20833C6.6266 7.13102 6.59468 7.05806 6.54732 6.99539C6.49972 6.93353 6.4383 6.88367 6.36797 6.84981C6.29765 6.81595 6.22037 6.79902 6.14232 6.80039H4.22232L5.29232 2.80039H7.75732L7.12232 5.17039C7.10194 5.24592 7.09956 5.32517 7.11538 5.40179C7.1312 5.4784 7.16477 5.55024 7.2134 5.61152C7.26204 5.67279 7.32437 5.7218 7.39539 5.75461C7.46641 5.78741 7.54414 5.80309 7.62232 5.80039H9.40732L6.08732 9.44039Z" fill="white"/>
</svg>
