<svg width="13" height="13" viewBox="0 0 13 13" fill="none" xmlns="http://www.w3.org/2000/svg">
<path d="M9.10001 5.38493C9.00633 5.2918 8.8796 5.23953 8.74751 5.23953C8.61542 5.23953 8.48869 5.2918 8.39501 5.38493L6.60001 7.15493L4.83001 5.38493C4.73633 5.2918 4.6096 5.23953 4.47751 5.23953C4.34542 5.23953 4.21869 5.2918 4.12501 5.38493C4.07815 5.43141 4.04095 5.48671 4.01557 5.54764C3.99018 5.60857 3.97711 5.67392 3.97711 5.73993C3.97711 5.80593 3.99018 5.87129 4.01557 5.93222C4.04095 5.99315 4.07815 6.04845 4.12501 6.09493L6.24501 8.21493C6.29149 8.26179 6.34679 8.29899 6.40772 8.32437C6.46865 8.34976 6.534 8.36283 6.60001 8.36283C6.66602 8.36283 6.73137 8.34976 6.7923 8.32437C6.85323 8.29899 6.90853 8.26179 6.95501 8.21493L9.10001 6.09493C9.14688 6.04845 9.18407 5.99315 9.20946 5.93222C9.23484 5.87129 9.24791 5.80593 9.24791 5.73993C9.24791 5.67392 9.23484 5.60857 9.20946 5.54764C9.18407 5.48671 9.14688 5.43141 9.10001 5.38493Z" fill="#4B5567"/>
</svg>
