<svg width="13" height="13" viewBox="0 0 13 13" fill="none" xmlns="http://www.w3.org/2000/svg">
<path d="M9.54589 5.24021C9.51609 5.1717 9.46769 5.1129 9.40619 5.07048C9.34468 5.02807 9.27253 5.00372 9.19789 5.00021H7.36589L7.87389 3.10421C7.89007 3.04488 7.89235 2.98262 7.88056 2.92226C7.86877 2.86191 7.84322 2.80509 7.80589 2.75621C7.76822 2.70727 7.71972 2.66771 7.66421 2.64065C7.60869 2.61358 7.54766 2.59974 7.48589 2.60021H4.68589C4.59559 2.59712 4.5069 2.62469 4.43426 2.67844C4.36163 2.73219 4.30933 2.80895 4.28589 2.89621L3.21389 6.89621C3.19758 6.95663 3.19568 7.02004 3.20834 7.08133C3.22099 7.14262 3.24785 7.20009 3.28676 7.24911C3.32566 7.29813 3.37553 7.33734 3.43235 7.36359C3.48916 7.38983 3.55135 7.40237 3.61389 7.40021H5.15389L4.42989 10.0962C4.40617 10.1831 4.4125 10.2755 4.44786 10.3584C4.48321 10.4413 4.54551 10.5098 4.62468 10.5529C4.70384 10.596 4.79522 10.611 4.88402 10.5956C4.97281 10.5803 5.05381 10.5354 5.11389 10.4682L9.47389 5.66821C9.52581 5.61136 9.56022 5.54074 9.57299 5.46482C9.58576 5.38891 9.57635 5.31091 9.54589 5.24021ZM5.62989 8.71221L6.06189 7.11221C6.07994 7.05202 6.08355 6.98841 6.07243 6.92656C6.06131 6.86471 6.03578 6.80635 5.99789 6.75621C5.95981 6.70672 5.91067 6.66684 5.85441 6.63975C5.79815 6.61266 5.73633 6.59912 5.67389 6.60021H4.13789L4.99389 3.40021H6.96589L6.45789 5.29621C6.44158 5.35663 6.43968 5.42004 6.45234 5.48133C6.46499 5.54262 6.49185 5.60009 6.53076 5.64911C6.56966 5.69813 6.61953 5.73734 6.67635 5.76359C6.73316 5.78983 6.79535 5.80237 6.85789 5.80021H8.28589L5.62989 8.71221Z" fill="#A1AEBF"/>
</svg>
