<svg width="13" height="13" viewBox="0 0 13 13" fill="none" xmlns="http://www.w3.org/2000/svg">
<path d="M10.5823 5.10033C10.545 5.01469 10.4846 4.94119 10.4077 4.88817C10.3308 4.83515 10.2406 4.80472 10.1473 4.80033H7.8573L8.4923 2.43033C8.51252 2.35616 8.51538 2.27834 8.50063 2.20289C8.48589 2.12745 8.45395 2.05642 8.4073 1.99533C8.36021 1.93415 8.29959 1.88471 8.23019 1.85087C8.16079 1.81704 8.0845 1.79974 8.0073 1.80033H4.5073C4.39442 1.79646 4.28355 1.83093 4.19276 1.89811C4.10197 1.9653 4.0366 2.06125 4.0073 2.17033L2.6673 7.17033C2.64691 7.24586 2.64453 7.32511 2.66035 7.40173C2.67617 7.47834 2.70975 7.55018 2.75838 7.61146C2.80701 7.67273 2.86935 7.72174 2.94037 7.75455C3.01139 7.78735 3.08912 7.80303 3.1673 7.80033H5.0923L4.1873 11.1703C4.15765 11.279 4.16556 11.3945 4.20975 11.4981C4.25394 11.6017 4.33183 11.6874 4.43078 11.7412C4.52973 11.795 4.64396 11.8138 4.75495 11.7946C4.86594 11.7754 4.9672 11.7193 5.0423 11.6353L10.4923 5.63533C10.5572 5.56427 10.6002 5.47599 10.6162 5.38109C10.6321 5.2862 10.6204 5.18871 10.5823 5.10033ZM5.6873 9.44033L6.2273 7.44033C6.24986 7.36508 6.25437 7.28558 6.24047 7.20827C6.22657 7.13095 6.19465 7.058 6.1473 6.99533C6.0997 6.93347 6.03828 6.88361 5.96795 6.84975C5.89762 6.81589 5.82034 6.79896 5.7423 6.80033H3.8223L4.8923 2.80033H7.3573L6.7223 5.17033C6.70191 5.24586 6.69953 5.32511 6.71535 5.40173C6.73117 5.47834 6.76475 5.55018 6.81338 5.61145C6.86201 5.67273 6.92435 5.72174 6.99537 5.75455C7.06639 5.78735 7.14412 5.80303 7.2223 5.80033H9.0073L5.6873 9.44033Z" fill="white"/>
</svg>
