<svg width="13" height="12" viewBox="0 0 13 12" fill="none" xmlns="http://www.w3.org/2000/svg">
<path d="M6.20007 1.60016C3.45007 1.60016 1.20007 3.85016 1.20007 6.60016C1.20007 9.35016 3.45007 11.6002 6.20007 11.6002C7.10007 11.6002 7.95007 11.3502 8.70007 10.9502C8.95007 10.8002 9.00007 10.5002 8.90007 10.2502C8.75007 10.0002 8.45007 9.95016 8.20007 10.0502C6.30007 11.1502 3.85007 10.5002 2.75007 8.60016C1.65007 6.70016 2.30007 4.25016 4.20007 3.15016C6.10007 2.05016 8.55007 2.70016 9.65007 4.60016C10.0001 5.20016 10.2001 5.90016 10.2001 6.60016V7.00016C10.2001 7.50016 9.80007 7.90016 9.30007 7.90016C8.80007 7.90016 8.40007 7.50016 8.40007 7.00016V4.85016C8.40007 4.55016 8.20007 4.35016 7.90007 4.35016C7.65007 4.35016 7.45007 4.50016 7.40007 4.75016C6.40007 4.05016 4.95007 4.30016 4.25007 5.30016C3.55007 6.30016 3.80007 7.75016 4.80007 8.45016C5.75007 9.10016 7.00007 8.95016 7.75007 8.10016C8.40007 8.90016 9.55007 9.05016 10.3501 8.45016C10.8001 8.10016 11.1001 7.55016 11.1001 6.95016V6.60016C11.2001 3.85016 8.95007 1.60016 6.20007 1.60016ZM6.20007 7.85016C5.50007 7.85016 4.95007 7.30016 4.95007 6.60016C4.95007 5.90016 5.50007 5.35016 6.20007 5.35016C6.90007 5.35016 7.45007 5.90016 7.45007 6.60016C7.45007 7.30016 6.90007 7.85016 6.20007 7.85016Z" fill="#728095"/>
</svg>
