<svg width="13" height="10" viewBox="0 0 13 10" fill="none" xmlns="http://www.w3.org/2000/svg">
<path d="M9.74572 5.04029C9.71592 4.97178 9.66752 4.91298 9.60602 4.87056C9.54451 4.82814 9.47235 4.8038 9.39772 4.80029H7.56572L8.07372 2.90429C8.0899 2.84496 8.09218 2.7827 8.08039 2.72234C8.0686 2.66199 8.04305 2.60517 8.00572 2.55629C7.96805 2.50735 7.91955 2.46779 7.86403 2.44073C7.80852 2.41366 7.74749 2.39982 7.68572 2.40029H4.88572C4.79542 2.3972 4.70673 2.42477 4.63409 2.47852C4.56146 2.53227 4.50916 2.60902 4.48572 2.69629L3.41372 6.69629C3.39741 6.75671 3.39551 6.82012 3.40817 6.88141C3.42082 6.9427 3.44768 7.00017 3.48659 7.04919C3.52549 7.09821 3.57536 7.13742 3.63218 7.16367C3.68899 7.18991 3.75118 7.20245 3.81372 7.20029H5.35372L4.62972 9.89629C4.606 9.98322 4.61233 10.0756 4.64768 10.1585C4.68304 10.2414 4.74534 10.3099 4.82451 10.353C4.90367 10.396 4.99505 10.4111 5.08384 10.3957C5.17264 10.3804 5.25364 10.3354 5.31372 10.2683L9.67372 5.46829C9.72564 5.41144 9.76005 5.34082 9.77282 5.2649C9.78559 5.18899 9.77618 5.11099 9.74572 5.04029ZM5.82972 8.51229L6.26172 6.91229C6.27977 6.85209 6.28338 6.78849 6.27226 6.72664C6.26114 6.66479 6.23561 6.60643 6.19772 6.55629C6.15964 6.5068 6.1105 6.46692 6.05424 6.43983C5.99798 6.41274 5.93616 6.3992 5.87372 6.40029H4.33772L5.19372 3.20029H7.16572L6.65772 5.09629C6.64141 5.15671 6.63951 5.22012 6.65217 5.28141C6.66482 5.3427 6.69168 5.40017 6.73059 5.44919C6.76949 5.49821 6.81936 5.53742 6.87618 5.56367C6.93299 5.58991 6.99518 5.60245 7.05772 5.60029H8.48572L5.82972 8.51229Z" fill="#A1AEBF"/>
</svg>
