<svg width="13" height="13" viewBox="0 0 13 13" fill="none" xmlns="http://www.w3.org/2000/svg">
<path d="M10.5199 6.89996C10.4099 6.89996 10.2949 6.86496 10.1849 6.83996C9.96216 6.79087 9.74325 6.7257 9.52992 6.64496C9.29796 6.56057 9.04299 6.56496 8.81407 6.65726C8.58515 6.74957 8.39846 6.92328 8.28992 7.14496L8.17992 7.36996C7.69292 7.09905 7.24541 6.76257 6.84992 6.36996C6.4573 5.97447 6.12083 5.52696 5.84992 5.03996L6.05992 4.89996C6.2816 4.79142 6.45531 4.60472 6.54761 4.3758C6.63992 4.14688 6.6443 3.89191 6.55992 3.65996C6.48053 3.44617 6.41538 3.22736 6.36492 3.00496C6.33992 2.89496 6.31992 2.77996 6.30492 2.66496C6.2442 2.31277 6.05973 1.99383 5.78473 1.76558C5.50973 1.53733 5.16226 1.41476 4.80492 1.41996H3.30492C3.08943 1.41794 2.87604 1.46237 2.67927 1.55022C2.4825 1.63808 2.30697 1.76731 2.16463 1.9291C2.02229 2.09089 1.91648 2.28146 1.85441 2.48782C1.79234 2.69418 1.77546 2.91149 1.80492 3.12496C2.07129 5.21965 3.02793 7.1659 4.52374 8.65628C6.01955 10.1467 7.96927 11.0962 10.0649 11.355H10.2549C10.6236 11.3555 10.9796 11.2202 11.2549 10.975C11.4131 10.8335 11.5395 10.66 11.6256 10.4661C11.7118 10.2722 11.7559 10.0622 11.7549 9.84996V8.34996C11.7488 8.00265 11.6223 7.66823 11.3971 7.40379C11.1719 7.13935 10.8618 6.96127 10.5199 6.89996V6.89996ZM10.7699 9.89996C10.7698 9.97095 10.7546 10.0411 10.7253 10.1058C10.696 10.1704 10.6533 10.2281 10.5999 10.275C10.5442 10.3235 10.4789 10.3597 10.4083 10.3812C10.3376 10.4027 10.2632 10.4091 10.1899 10.4C8.31737 10.1599 6.57803 9.3032 5.24627 7.9651C3.91451 6.62701 3.06612 4.88363 2.83492 3.00996C2.82696 2.93672 2.83393 2.86262 2.85542 2.79215C2.8769 2.72168 2.91245 2.6563 2.95992 2.59996C3.00677 2.54662 3.06445 2.50388 3.12911 2.47457C3.19376 2.44526 3.26392 2.43005 3.33492 2.42996H4.83492C4.95119 2.42737 5.06473 2.4654 5.15599 2.53749C5.24725 2.60959 5.31052 2.71124 5.33492 2.82496C5.35492 2.96163 5.37992 3.09663 5.40992 3.22996C5.46768 3.49353 5.54455 3.75255 5.63992 4.00496L4.93992 4.32996C4.88006 4.35742 4.82623 4.39643 4.78149 4.44476C4.73676 4.49308 4.70202 4.54977 4.67925 4.61156C4.65649 4.67335 4.64615 4.73902 4.64884 4.80482C4.65153 4.87061 4.66719 4.93523 4.69492 4.99496C5.41452 6.53634 6.65354 7.77536 8.19492 8.49496C8.31665 8.54497 8.45319 8.54497 8.57492 8.49496C8.63727 8.47265 8.69458 8.43819 8.7435 8.39355C8.79243 8.34892 8.832 8.29501 8.85992 8.23496L9.16992 7.53496C9.4284 7.6274 9.69221 7.7042 9.95992 7.76496C10.0932 7.79496 10.2282 7.81996 10.3649 7.83996C10.4786 7.86435 10.5803 7.92763 10.6524 8.01889C10.7245 8.11015 10.7625 8.22369 10.7599 8.33996L10.7699 9.89996Z" fill="#1A365D"/>
</svg>
