<svg width="13" height="13" viewBox="0 0 13 13" fill="none" xmlns="http://www.w3.org/2000/svg">
<path d="M10.9823 5.10033C10.945 5.01469 10.8845 4.94119 10.8076 4.88817C10.7308 4.83515 10.6406 4.80472 10.5473 4.80033H8.25728L8.89228 2.43033C8.9125 2.35616 8.91535 2.27834 8.90061 2.20289C8.88587 2.12745 8.85393 2.05642 8.80728 1.99533C8.76019 1.93415 8.69957 1.88471 8.63017 1.85087C8.56077 1.81704 8.48448 1.79974 8.40728 1.80033H4.90728C4.7944 1.79646 4.68353 1.83093 4.59274 1.89811C4.50195 1.9653 4.43658 2.06125 4.40728 2.17033L3.06728 7.17033C3.04689 7.24586 3.04451 7.32511 3.06033 7.40173C3.07615 7.47834 3.10973 7.55018 3.15836 7.61146C3.20699 7.67273 3.26932 7.72174 3.34035 7.75455C3.41137 7.78735 3.48909 7.80303 3.56728 7.80033H5.49228L4.58728 11.1703C4.55763 11.279 4.56554 11.3945 4.60973 11.4981C4.65392 11.6017 4.73181 11.6874 4.83076 11.7412C4.92971 11.795 5.04394 11.8138 5.15493 11.7946C5.26592 11.7754 5.36717 11.7193 5.44228 11.6353L10.8923 5.63533C10.9572 5.56427 11.0002 5.47599 11.0161 5.38109C11.0321 5.2862 11.0204 5.18871 10.9823 5.10033ZM6.08728 9.44033L6.62728 7.44033C6.64984 7.36508 6.65435 7.28558 6.64045 7.20827C6.62655 7.13095 6.59463 7.058 6.54728 6.99533C6.49968 6.93347 6.43825 6.88361 6.36793 6.84975C6.2976 6.81589 6.22032 6.79896 6.14228 6.80033H4.22228L5.29228 2.80033H7.75728L7.12228 5.17033C7.10189 5.24586 7.09951 5.32511 7.11533 5.40173C7.13115 5.47834 7.16473 5.55018 7.21336 5.61145C7.26199 5.67273 7.32432 5.72174 7.39535 5.75455C7.46637 5.78735 7.54409 5.80303 7.62228 5.80033H9.40728L6.08728 9.44033Z" fill="white"/>
</svg>
