<svg width="13" height="13" viewBox="0 0 13 13" fill="none" xmlns="http://www.w3.org/2000/svg">
<path d="M10.52 6.69995C10.41 6.69995 10.295 6.66495 10.185 6.63995C9.96222 6.59086 9.74331 6.52569 9.52998 6.44495C9.29802 6.36056 9.04305 6.36494 8.81413 6.45725C8.58521 6.54956 8.39852 6.72326 8.28998 6.94495L8.17998 7.16995C7.69298 6.89904 7.24547 6.56256 6.84998 6.16995C6.45736 5.77445 6.12089 5.32694 5.84998 4.83995L6.05998 4.69995C6.28166 4.5914 6.45537 4.40471 6.54767 4.17579C6.63998 3.94687 6.64436 3.6919 6.55998 3.45995C6.48059 3.24616 6.41545 3.02735 6.36498 2.80495C6.33998 2.69495 6.31998 2.57995 6.30498 2.46495C6.24426 2.11276 6.05979 1.79382 5.78479 1.56557C5.50979 1.33731 5.16233 1.21475 4.80498 1.21995H3.30498C3.08949 1.21792 2.8761 1.26235 2.67933 1.35021C2.48256 1.43807 2.30703 1.56729 2.16469 1.72909C2.02235 1.89088 1.91654 2.08144 1.85447 2.2878C1.7924 2.49416 1.77552 2.71148 1.80498 2.92495C2.07135 5.01964 3.02799 6.96589 4.5238 8.45626C6.01961 9.94664 7.96933 10.8962 10.065 11.1549H10.255C10.6237 11.1555 10.9797 11.0202 11.255 10.7749C11.4132 10.6335 11.5395 10.46 11.6257 10.2661C11.7119 10.0722 11.756 9.86216 11.755 9.64995V8.14995C11.7489 7.80264 11.6224 7.46822 11.3971 7.20378C11.1719 6.93934 10.8619 6.76126 10.52 6.69995V6.69995ZM10.77 9.69995C10.7699 9.77094 10.7547 9.8411 10.7254 9.90576C10.6961 9.97042 10.6533 10.0281 10.6 10.0749C10.5443 10.1235 10.479 10.1597 10.4083 10.1812C10.3377 10.2027 10.2633 10.2091 10.19 10.1999C8.31743 9.95985 6.5781 9.10319 5.24634 7.76509C3.91458 6.42699 3.06618 4.68361 2.83498 2.80995C2.82702 2.73671 2.83399 2.66261 2.85548 2.59214C2.87696 2.52167 2.91251 2.45629 2.95998 2.39995C3.00683 2.34661 3.06451 2.30387 3.12917 2.27455C3.19383 2.24524 3.26398 2.23004 3.33498 2.22995H4.83498C4.95125 2.22736 5.06479 2.26539 5.15605 2.33748C5.24731 2.40958 5.31058 2.51123 5.33498 2.62495C5.35498 2.76161 5.37998 2.89661 5.40998 3.02995C5.46774 3.29352 5.54461 3.55254 5.63998 3.80495L4.93998 4.12995C4.88013 4.15741 4.82629 4.19642 4.78156 4.24474C4.73682 4.29307 4.70208 4.34975 4.67931 4.41154C4.65655 4.47333 4.64621 4.53901 4.6489 4.60481C4.65159 4.6706 4.66725 4.73522 4.69498 4.79495C5.41458 6.33632 6.6536 7.57535 8.19498 8.29495C8.31671 8.34496 8.45325 8.34496 8.57498 8.29495C8.63733 8.27264 8.69464 8.23817 8.74356 8.19354C8.79249 8.14891 8.83206 8.095 8.85998 8.03495L9.16998 7.33495C9.42846 7.42739 9.69227 7.50419 9.95998 7.56495C10.0933 7.59495 10.2283 7.61995 10.365 7.63995C10.4787 7.66434 10.5803 7.72761 10.6524 7.81887C10.7245 7.91013 10.7626 8.02367 10.76 8.13995L10.77 9.69995Z" fill="#1A365D"/>
</svg>
