<svg width="13" height="13" viewBox="0 0 13 13" fill="none" xmlns="http://www.w3.org/2000/svg">
<path d="M6.40002 1.80014C3.65002 1.80014 1.40002 4.05014 1.40002 6.80014C1.40002 9.55014 3.65002 11.8001 6.40002 11.8001C7.30002 11.8001 8.15002 11.5501 8.90002 11.1501C9.15002 11.0001 9.20002 10.7001 9.10002 10.4501C8.95002 10.2001 8.65002 10.1501 8.40002 10.2501C6.50002 11.3501 4.05002 10.7001 2.95002 8.80014C1.85002 6.90014 2.50002 4.45014 4.40002 3.35014C6.30002 2.25014 8.75002 2.90014 9.85002 4.80014C10.2 5.40014 10.4 6.10014 10.4 6.80014V7.20014C10.4 7.70014 10 8.10014 9.50002 8.10014C9.00002 8.10014 8.60002 7.70014 8.60002 7.20014V5.05014C8.60002 4.75014 8.40002 4.55014 8.10002 4.55014C7.85002 4.55014 7.65002 4.70014 7.60002 4.95014C6.60002 4.25014 5.15002 4.50014 4.45002 5.50014C3.75002 6.50014 4.00002 7.95014 5.00002 8.65014C5.95002 9.30014 7.20002 9.15014 7.95002 8.30014C8.60002 9.10014 9.75002 9.25014 10.55 8.65014C11 8.30014 11.3 7.75014 11.3 7.15014V6.80014C11.4 4.05014 9.15002 1.80014 6.40002 1.80014ZM6.40002 8.05014C5.70002 8.05014 5.15002 7.50014 5.15002 6.80014C5.15002 6.10014 5.70002 5.55014 6.40002 5.55014C7.10002 5.55014 7.65002 6.10014 7.65002 6.80014C7.65002 7.50014 7.10002 8.05014 6.40002 8.05014Z" fill="#728095"/>
</svg>
