<svg width="13" height="13" viewBox="0 0 13 13" fill="none" xmlns="http://www.w3.org/2000/svg">
<g clip-path="url(#clip0_10_55213)">
<path d="M9.44555 5.44038C9.41575 5.37186 9.36735 5.31307 9.30585 5.27065C9.24434 5.22823 9.17218 5.20389 9.09755 5.20038H7.26555L7.77355 3.30438C7.78973 3.24505 7.79201 3.18278 7.78022 3.12243C7.76843 3.06207 7.74288 3.00525 7.70555 2.95638C7.66788 2.90743 7.61938 2.86788 7.56386 2.84081C7.50835 2.81375 7.44731 2.79991 7.38555 2.80037H4.58555C4.49525 2.79728 4.40656 2.82485 4.33392 2.8786C4.26129 2.93235 4.20899 3.00911 4.18555 3.09638L3.11355 7.09638C3.09724 7.1568 3.09534 7.2202 3.10799 7.2815C3.12065 7.34279 3.14751 7.40026 3.18642 7.44928C3.22532 7.4983 3.27519 7.53751 3.33201 7.56375C3.38882 7.58999 3.451 7.60254 3.51355 7.60038H5.05355L4.32955 10.2964C4.30583 10.3833 4.31216 10.4757 4.34751 10.5586C4.38287 10.6415 4.44517 10.71 4.52434 10.7531C4.6035 10.7961 4.69488 10.8112 4.78367 10.7958C4.87247 10.7804 4.95347 10.7355 5.01355 10.6684L9.37355 5.86838C9.42547 5.81153 9.45988 5.74091 9.47265 5.66499C9.48542 5.58907 9.47601 5.51108 9.44555 5.44038ZM5.52955 8.91238L5.96155 7.31238C5.9796 7.25218 5.98321 7.18858 5.97209 7.12673C5.96097 7.06488 5.93544 7.00652 5.89755 6.95638C5.85947 6.90689 5.81033 6.867 5.75407 6.83991C5.69781 6.81282 5.63599 6.79928 5.57355 6.80038H4.03755L4.89355 3.60038H6.86555L6.35755 5.49638C6.34124 5.5568 6.33934 5.6202 6.35199 5.6815C6.36465 5.74279 6.39151 5.80026 6.43042 5.84928C6.46932 5.8983 6.51919 5.93751 6.57601 5.96375C6.63282 5.98999 6.695 6.00254 6.75755 6.00038H8.18555L5.52955 8.91238Z" fill="white"/>
</g>
<defs>
<clipPath id="clip0_10_55213">
<rect width="9.6" height="9.6" fill="white" transform="translate(1.2998 2.00015)"/>
</clipPath>
</defs>
</svg>
