<svg width="13" height="13" viewBox="0 0 13 13" fill="none" xmlns="http://www.w3.org/2000/svg">
<path d="M9.74597 5.44022C9.71616 5.37171 9.66777 5.31291 9.60626 5.2705C9.54476 5.22808 9.4726 5.20373 9.39797 5.20022H7.56597L8.07397 3.30422C8.09015 3.24489 8.09243 3.18263 8.08063 3.12228C8.06884 3.06192 8.04329 3.0051 8.00597 2.95622C7.96829 2.90728 7.9198 2.86773 7.86428 2.84066C7.80876 2.8136 7.74773 2.79975 7.68597 2.80022H4.88597C4.79566 2.79713 4.70697 2.8247 4.63434 2.87845C4.5617 2.9322 4.50941 3.00896 4.48597 3.09622L3.41397 7.09622C3.39766 7.15665 3.39575 7.22005 3.40841 7.28134C3.42106 7.34264 3.44792 7.4001 3.48683 7.44912C3.52574 7.49815 3.5756 7.53736 3.63242 7.5636C3.68924 7.58984 3.75142 7.60239 3.81397 7.60022H5.35397L4.62997 10.2962C4.60625 10.3832 4.61258 10.4756 4.64793 10.5584C4.68328 10.6413 4.74559 10.7099 4.82475 10.7529C4.90391 10.796 4.9953 10.811 5.08409 10.7957C5.17288 10.7803 5.25388 10.7354 5.31397 10.6682L9.67397 5.86822C9.72588 5.81138 9.76029 5.74076 9.77306 5.66484C9.78583 5.58892 9.77643 5.51093 9.74597 5.44022ZM5.82997 8.91222L6.26197 7.31222C6.28001 7.25203 6.28362 7.18843 6.27251 7.12658C6.26139 7.06472 6.23585 7.00636 6.19797 6.95622C6.15989 6.90674 6.11075 6.86685 6.05449 6.83976C5.99822 6.81267 5.9364 6.79913 5.87397 6.80022H4.33797L5.19397 3.60022H7.16597L6.65797 5.49622C6.64166 5.55664 6.63975 5.62005 6.65241 5.68134C6.66506 5.74264 6.69192 5.8001 6.73083 5.84912C6.76974 5.89815 6.8196 5.93736 6.87642 5.9636C6.93324 5.98984 6.99542 6.00239 7.05797 6.00022H8.48597L5.82997 8.91222Z" fill="white"/>
</svg>
