<svg width="13" height="13" viewBox="0 0 13 13" fill="none" xmlns="http://www.w3.org/2000/svg">
<path d="M10.5823 5.10039C10.545 5.01475 10.4845 4.94125 10.4076 4.88823C10.3308 4.83521 10.2406 4.80478 10.1473 4.80039H7.85727L8.49227 2.43039C8.51249 2.35623 8.51535 2.2784 8.5006 2.20295C8.48586 2.12751 8.45392 2.05648 8.40727 1.99539C8.36018 1.93421 8.29956 1.88477 8.23016 1.85094C8.16076 1.8171 8.08447 1.7998 8.00727 1.80039H4.50727C4.39439 1.79652 4.28352 1.83099 4.19273 1.89817C4.10194 1.96536 4.03657 2.06131 4.00727 2.17039L2.66727 7.17039C2.64688 7.24592 2.6445 7.32517 2.66032 7.40179C2.67614 7.4784 2.70972 7.55024 2.75835 7.61152C2.80698 7.67279 2.86932 7.7218 2.94034 7.75461C3.01136 7.78741 3.08909 7.80309 3.16727 7.80039H5.09227L4.18727 11.1704C4.15762 11.2791 4.16553 11.3946 4.20972 11.4982C4.25391 11.6018 4.3318 11.6874 4.43075 11.7412C4.5297 11.7951 4.64393 11.8139 4.75492 11.7947C4.86591 11.7755 4.96716 11.7193 5.04227 11.6354L10.4923 5.63539C10.5572 5.56433 10.6002 5.47605 10.6161 5.38116C10.6321 5.28626 10.6203 5.18877 10.5823 5.10039ZM5.68727 9.44039L6.22727 7.44039C6.24983 7.36514 6.25434 7.28564 6.24044 7.20833C6.22654 7.13102 6.19462 7.05806 6.14727 6.99539C6.09967 6.93353 6.03825 6.88367 5.96792 6.84981C5.89759 6.81595 5.82031 6.79902 5.74227 6.80039H3.82227L4.89227 2.80039H7.35727L6.72227 5.17039C6.70188 5.24592 6.6995 5.32517 6.71532 5.40179C6.73114 5.4784 6.76472 5.55024 6.81335 5.61152C6.86198 5.67279 6.92432 5.7218 6.99534 5.75461C7.06636 5.78741 7.14409 5.80309 7.22227 5.80039H9.00727L5.68727 9.44039Z" fill="white"/>
</svg>
