<svg width="13" height="13" viewBox="0 0 13 13" fill="none" xmlns="http://www.w3.org/2000/svg">
<path d="M9.92012 6.79977C9.81012 6.79977 9.69512 6.76477 9.58512 6.73977C9.36237 6.69068 9.14346 6.62551 8.93012 6.54477C8.69817 6.46038 8.4432 6.46477 8.21428 6.55707C7.98536 6.64938 7.79867 6.82309 7.69012 7.04477L7.58012 7.26977C7.09313 6.99886 6.64562 6.66238 6.25012 6.26977C5.85751 5.87428 5.52103 5.42677 5.25012 4.93977L5.46012 4.79977C5.68181 4.69123 5.85551 4.50453 5.94782 4.27561C6.04013 4.0467 6.04451 3.79173 5.96012 3.55977C5.88073 3.34598 5.81559 3.12717 5.76512 2.90477C5.74012 2.79477 5.72012 2.67977 5.70512 2.56477C5.64441 2.21258 5.45994 1.89364 5.18493 1.66539C4.90993 1.43714 4.56247 1.31457 4.20512 1.31977H2.70512C2.48964 1.31775 2.27625 1.36218 2.07948 1.45003C1.88271 1.53789 1.70718 1.66712 1.56484 1.82891C1.4225 1.9907 1.31669 2.18127 1.25462 2.38763C1.19254 2.59399 1.17566 2.8113 1.20512 3.02477C1.47149 5.11946 2.42814 7.06571 3.92395 8.55609C5.41976 10.0465 7.36948 10.996 9.46512 11.2548H9.65512C10.0238 11.2553 10.3798 11.12 10.6551 10.8748C10.8133 10.7333 10.9397 10.5599 11.0259 10.3659C11.112 10.172 11.1561 9.96199 11.1551 9.74977V8.24977C11.149 7.90246 11.0225 7.56805 10.7973 7.3036C10.5721 7.03916 10.262 6.86108 9.92012 6.79977V6.79977ZM10.1701 9.79977C10.17 9.87076 10.1548 9.94092 10.1255 10.0056C10.0962 10.0702 10.0535 10.1279 10.0001 10.1748C9.94442 10.2233 9.87911 10.2595 9.80846 10.281C9.73781 10.3026 9.66341 10.3089 9.59012 10.2998C7.71757 10.0597 5.97824 9.20301 4.64648 7.86491C3.31472 6.52682 2.46633 4.78344 2.23512 2.90977C2.22717 2.83653 2.23414 2.76243 2.25562 2.69196C2.27711 2.6215 2.31266 2.55611 2.36012 2.49977C2.40698 2.44644 2.46465 2.40369 2.52931 2.37438C2.59397 2.34507 2.66413 2.32986 2.73512 2.32977H4.23512C4.3514 2.32718 4.46494 2.36521 4.5562 2.4373C4.64746 2.5094 4.71073 2.61105 4.73512 2.72477C4.75512 2.86144 4.78012 2.99644 4.81012 3.12977C4.86788 3.39334 4.94475 3.65236 5.04012 3.90477L4.34012 4.22977C4.28027 4.25723 4.22643 4.29624 4.1817 4.34457C4.13697 4.39289 4.10222 4.44958 4.07946 4.51137C4.05669 4.57316 4.04636 4.63883 4.04905 4.70463C4.05174 4.77043 4.06739 4.83504 4.09512 4.89477C4.81472 6.43615 6.05375 7.67517 7.59512 8.39477C7.71685 8.44478 7.85339 8.44478 7.97512 8.39477C8.03748 8.37247 8.09478 8.338 8.14371 8.29336C8.19263 8.24873 8.23221 8.19482 8.26012 8.13477L8.57012 7.43477C8.82861 7.52721 9.09242 7.60401 9.36012 7.66477C9.49346 7.69477 9.62846 7.71977 9.76512 7.73977C9.87884 7.76416 9.98049 7.82744 10.0526 7.9187C10.1247 8.00996 10.1627 8.1235 10.1601 8.23977L10.1701 9.79977Z" fill="#1A365D"/>
</svg>
