<svg width="12" height="13" viewBox="0 0 12 13" fill="none" xmlns="http://www.w3.org/2000/svg">
<path d="M6 1.40012C3.25 1.40012 1 3.65012 1 6.40012C1 9.15012 3.25 11.4001 6 11.4001C6.9 11.4001 7.75 11.1501 8.5 10.7501C8.75 10.6001 8.8 10.3001 8.7 10.0501C8.55 9.80012 8.25 9.75012 8 9.85012C6.1 10.9501 3.65 10.3001 2.55 8.40012C1.45 6.50012 2.1 4.05012 4 2.95012C5.9 1.85012 8.35 2.50012 9.45 4.40012C9.8 5.00012 10 5.70012 10 6.40012V6.80012C10 7.30012 9.6 7.70012 9.1 7.70012C8.6 7.70012 8.2 7.30012 8.2 6.80012V4.65012C8.2 4.35012 8 4.15012 7.7 4.15012C7.45 4.15012 7.25 4.30012 7.2 4.55012C6.2 3.85012 4.75 4.10012 4.05 5.10012C3.35 6.10012 3.6 7.55012 4.6 8.25012C5.55 8.90012 6.8 8.75012 7.55 7.90012C8.2 8.70012 9.35 8.85012 10.15 8.25012C10.6 7.90012 10.9 7.35012 10.9 6.75012V6.40012C11 3.65012 8.75 1.40012 6 1.40012ZM6 7.65012C5.3 7.65012 4.75 7.10012 4.75 6.40012C4.75 5.70012 5.3 5.15012 6 5.15012C6.7 5.15012 7.25 5.70012 7.25 6.40012C7.25 7.10012 6.7 7.65012 6 7.65012Z" fill="#728095"/>
</svg>
