<svg width="13" height="13" viewBox="0 0 13 13" fill="none" xmlns="http://www.w3.org/2000/svg">
<path d="M10.52 6.70001C10.41 6.70001 10.295 6.66501 10.185 6.64001C9.96222 6.59092 9.74331 6.52575 9.52998 6.44501C9.29802 6.36062 9.04305 6.365 8.81413 6.45731C8.58521 6.54962 8.39852 6.72332 8.28998 6.94501L8.17998 7.17001C7.69298 6.8991 7.24547 6.56262 6.84998 6.17001C6.45736 5.77452 6.12089 5.32701 5.84998 4.84001L6.05998 4.70001C6.28166 4.59147 6.45537 4.40477 6.54767 4.17585C6.63998 3.94693 6.64436 3.69196 6.55998 3.46001C6.48059 3.24622 6.41545 3.02741 6.36498 2.80501C6.33998 2.69501 6.31998 2.58001 6.30498 2.46501C6.24426 2.11282 6.05979 1.79388 5.78479 1.56563C5.50979 1.33738 5.16233 1.21481 4.80498 1.22001H3.30498C3.08949 1.21798 2.8761 1.26241 2.67933 1.35027C2.48256 1.43813 2.30703 1.56736 2.16469 1.72915C2.02235 1.89094 1.91654 2.0815 1.85447 2.28786C1.7924 2.49422 1.77552 2.71154 1.80498 2.92501C2.07135 5.0197 3.02799 6.96595 4.5238 8.45633C6.01961 9.9467 7.96933 10.8963 10.065 11.155H10.255C10.6237 11.1555 10.9797 11.0203 11.255 10.775C11.4132 10.6335 11.5395 10.4601 11.6257 10.2662C11.7119 10.0722 11.756 9.86223 11.755 9.65001V8.15001C11.7489 7.8027 11.6224 7.46828 11.3971 7.20384C11.1719 6.9394 10.8619 6.76132 10.52 6.70001V6.70001ZM10.77 9.70001C10.7699 9.771 10.7547 9.84116 10.7254 9.90582C10.6961 9.97048 10.6533 10.0282 10.6 10.075C10.5443 10.1235 10.479 10.1597 10.4083 10.1813C10.3377 10.2028 10.2633 10.2092 10.19 10.2C8.31743 9.95991 6.5781 9.10325 5.24634 7.76515C3.91458 6.42706 3.06618 4.68368 2.83498 2.81001C2.82702 2.73677 2.83399 2.66267 2.85548 2.5922C2.87696 2.52173 2.91251 2.45635 2.95998 2.40001C3.00683 2.34667 3.06451 2.30393 3.12917 2.27462C3.19383 2.2453 3.26398 2.2301 3.33498 2.23001H4.83498C4.95125 2.22742 5.06479 2.26545 5.15605 2.33754C5.24731 2.40964 5.31058 2.51129 5.33498 2.62501C5.35498 2.76167 5.37998 2.89667 5.40998 3.03001C5.46774 3.29358 5.54461 3.5526 5.63998 3.80501L4.93998 4.13001C4.88013 4.15747 4.82629 4.19648 4.78156 4.24481C4.73682 4.29313 4.70208 4.34981 4.67931 4.4116C4.65655 4.47339 4.64621 4.53907 4.6489 4.60487C4.65159 4.67066 4.66725 4.73528 4.69498 4.79501C5.41458 6.33638 6.6536 7.57541 8.19498 8.29501C8.31671 8.34502 8.45325 8.34502 8.57498 8.29501C8.63733 8.2727 8.69464 8.23823 8.74356 8.1936C8.79249 8.14897 8.83206 8.09506 8.85998 8.03501L9.16998 7.33501C9.42846 7.42745 9.69227 7.50425 9.95998 7.56501C10.0933 7.59501 10.2283 7.62001 10.365 7.64001C10.4787 7.6644 10.5803 7.72768 10.6524 7.81894C10.7245 7.9102 10.7626 8.02373 10.76 8.14001L10.77 9.70001Z" fill="#065666"/>
</svg>
