<svg width="13" height="13" viewBox="0 0 13 13" fill="none" xmlns="http://www.w3.org/2000/svg">
<path d="M9.94574 5.44022C9.91593 5.37171 9.86754 5.31291 9.80603 5.2705C9.74452 5.22808 9.67237 5.20373 9.59774 5.20022H7.76574L8.27374 3.30422C8.28991 3.24489 8.2922 3.18263 8.2804 3.12228C8.26861 3.06192 8.24306 3.0051 8.20574 2.95622C8.16806 2.90728 8.11957 2.86773 8.06405 2.84066C8.00853 2.8136 7.9475 2.79975 7.88574 2.80022H5.08574C4.99543 2.79713 4.90674 2.8247 4.8341 2.87845C4.76147 2.9322 4.70918 3.00896 4.68574 3.09622L3.61374 7.09622C3.59743 7.15665 3.59552 7.22005 3.60818 7.28134C3.62083 7.34264 3.64769 7.4001 3.6866 7.44912C3.72551 7.49815 3.77537 7.53736 3.83219 7.5636C3.88901 7.58984 3.95119 7.60239 4.01374 7.60022H5.55374L4.82974 10.2962C4.80601 10.3832 4.81234 10.4756 4.8477 10.5584C4.88305 10.6413 4.94536 10.7099 5.02452 10.7529C5.10368 10.796 5.19506 10.811 5.28386 10.7957C5.37265 10.7803 5.45365 10.7354 5.51374 10.6682L9.87374 5.86822C9.92565 5.81138 9.96006 5.74076 9.97283 5.66484C9.9856 5.58892 9.97619 5.51093 9.94574 5.44022ZM6.02974 8.91222L6.46174 7.31222C6.47978 7.25203 6.48339 7.18843 6.47227 7.12658C6.46115 7.06472 6.43562 7.00636 6.39774 6.95622C6.35965 6.90674 6.31052 6.86685 6.25425 6.83976C6.19799 6.81267 6.13617 6.79913 6.07374 6.80022H4.53774L5.39374 3.60022H7.36574L6.85774 5.49622C6.84143 5.55664 6.83952 5.62005 6.85218 5.68134C6.86483 5.74264 6.89169 5.8001 6.9306 5.84912C6.96951 5.89815 7.01937 5.93736 7.07619 5.9636C7.13301 5.98984 7.19519 6.00239 7.25774 6.00022H8.68574L6.02974 8.91222Z" fill="white"/>
</svg>
