<svg width="12" height="13" viewBox="0 0 12 13" fill="none" xmlns="http://www.w3.org/2000/svg">
<path d="M9.72005 6.89984C9.61005 6.89984 9.49505 6.86484 9.38505 6.83984C9.16229 6.79075 8.94338 6.72558 8.73005 6.64484C8.49809 6.56045 8.24312 6.56483 8.0142 6.65714C7.78529 6.74945 7.59859 6.92315 7.49005 7.14484L7.38005 7.36984C6.89305 7.09893 6.44554 6.76245 6.05005 6.36984C5.65744 5.97434 5.32096 5.52683 5.05005 5.03984L5.26005 4.89984C5.48173 4.79129 5.65544 4.6046 5.74775 4.37568C5.84005 4.14676 5.84444 3.89179 5.76005 3.65984C5.68066 3.44605 5.61552 3.22724 5.56505 3.00484C5.54005 2.89484 5.52005 2.77984 5.50505 2.66484C5.44433 2.31265 5.25986 1.99371 4.98486 1.76546C4.70986 1.5372 4.3624 1.41464 4.00505 1.41984H2.50505C2.28957 1.41781 2.07618 1.46224 1.87941 1.5501C1.68264 1.63796 1.50711 1.76718 1.36477 1.92898C1.22243 2.09077 1.11662 2.28133 1.05454 2.48769C0.992471 2.69405 0.97559 2.91137 1.00505 3.12484C1.27142 5.21953 2.22806 7.16578 3.72388 8.65615C5.21969 10.1465 7.1694 11.0961 9.26505 11.3548H9.45505C9.82376 11.3554 10.1797 11.2201 10.4551 10.9748C10.6132 10.8334 10.7396 10.6599 10.8258 10.466C10.912 10.2721 10.956 10.0621 10.9551 9.84984V8.34984C10.9489 8.00253 10.8225 7.66811 10.5972 7.40367C10.372 7.13923 10.062 6.96115 9.72005 6.89984V6.89984ZM9.97005 9.89984C9.96996 9.97083 9.95475 10.041 9.92544 10.1056C9.89613 10.1703 9.85339 10.228 9.80005 10.2748C9.74435 10.3233 9.67904 10.3595 9.60839 10.3811C9.53774 10.4026 9.46334 10.409 9.39005 10.3998C7.5175 10.1597 5.77817 9.30308 4.44641 7.96498C3.11465 6.62688 2.26626 4.8835 2.03505 3.00984C2.02709 2.9366 2.03407 2.8625 2.05555 2.79203C2.07704 2.72156 2.11259 2.65618 2.16005 2.59984C2.20691 2.5465 2.26458 2.50376 2.32924 2.47444C2.3939 2.44513 2.46406 2.42993 2.53505 2.42984H4.03505C4.15132 2.42725 4.26486 2.46528 4.35612 2.53737C4.44738 2.60947 4.51066 2.71112 4.53505 2.82484C4.55505 2.9615 4.58005 3.0965 4.61005 3.22984C4.66781 3.49341 4.74468 3.75243 4.84005 4.00484L4.14005 4.32984C4.0802 4.3573 4.02636 4.39631 3.98163 4.44463C3.9369 4.49296 3.90215 4.54964 3.87939 4.61143C3.85662 4.67322 3.84629 4.7389 3.84897 4.8047C3.85166 4.87049 3.86732 4.93511 3.89505 4.99484C4.61465 6.53621 5.85367 7.77524 7.39505 8.49484C7.51678 8.54485 7.65332 8.54485 7.77505 8.49484C7.83741 8.47253 7.89471 8.43806 7.94364 8.39343C7.99256 8.3488 8.03213 8.29489 8.06005 8.23484L8.37005 7.53484C8.62853 7.62728 8.89234 7.70408 9.16005 7.76484C9.29338 7.79484 9.42838 7.81984 9.56505 7.83984C9.67877 7.86423 9.78042 7.9275 9.85252 8.01876C9.92461 8.11002 9.96264 8.22356 9.96005 8.33984L9.97005 9.89984Z" fill="#065666"/>
</svg>
