<svg width="12" height="10" viewBox="0 0 12 10" fill="none" xmlns="http://www.w3.org/2000/svg">
<path d="M9.71993 6.90005C9.60993 6.90005 9.49493 6.86505 9.38493 6.84005C9.16217 6.79096 8.94326 6.72579 8.72993 6.64505C8.49797 6.56066 8.243 6.56505 8.01408 6.65735C7.78516 6.74966 7.59847 6.92337 7.48993 7.14505L7.37993 7.37005C6.89293 7.09914 6.44542 6.76267 6.04993 6.37005C5.65731 5.97456 5.32084 5.52705 5.04993 5.04005L5.25993 4.90005C5.48161 4.79151 5.65532 4.60481 5.74763 4.3759C5.83993 4.14698 5.84431 3.89201 5.75993 3.66005C5.68054 3.44626 5.6154 3.22745 5.56493 3.00505C5.53993 2.89505 5.51993 2.78005 5.50493 2.66505C5.44421 2.31286 5.25974 1.99392 4.98474 1.76567C4.70974 1.53742 4.36228 1.41485 4.00493 1.42005H2.50493C2.28944 1.41803 2.07605 1.46246 1.87928 1.55032C1.68251 1.63817 1.50698 1.7674 1.36464 1.92919C1.2223 2.09098 1.1165 2.28155 1.05442 2.48791C0.992349 2.69427 0.975468 2.91158 1.00493 3.12505C1.2713 5.21974 2.22794 7.16599 3.72375 8.65637C5.21957 10.1467 7.16928 11.0963 9.26493 11.3551H9.45493C9.82364 11.3556 10.1796 11.2203 10.4549 10.975C10.6131 10.8336 10.7395 10.6601 10.8257 10.4662C10.9119 10.2723 10.9559 10.0623 10.9549 9.85005V8.35005C10.9488 8.00274 10.8223 7.66833 10.5971 7.40388C10.3719 7.13944 10.0618 6.96136 9.71993 6.90005V6.90005ZM9.96993 9.90005C9.96984 9.97104 9.95463 10.0412 9.92532 10.1059C9.89601 10.1705 9.85326 10.2282 9.79993 10.2751C9.74423 10.3236 9.67892 10.3598 9.60827 10.3813C9.53762 10.4028 9.46322 10.4092 9.38993 10.4001C7.51738 10.16 5.77805 9.30329 4.44629 7.9652C3.11453 6.6271 2.26613 4.88372 2.03493 3.01005C2.02697 2.93681 2.03394 2.86272 2.05543 2.79225C2.07691 2.72178 2.11246 2.65639 2.15993 2.60005C2.20678 2.54672 2.26446 2.50397 2.32912 2.47466C2.39378 2.44535 2.46394 2.43014 2.53493 2.43005H4.03493C4.1512 2.42746 4.26474 2.46549 4.356 2.53759C4.44726 2.60968 4.51053 2.71133 4.53493 2.82505C4.55493 2.96172 4.57993 3.09672 4.60993 3.23005C4.66769 3.49362 4.74456 3.75264 4.83993 4.00505L4.13993 4.33005C4.08008 4.35751 4.02624 4.39652 3.98151 4.44485C3.93677 4.49317 3.90203 4.54986 3.87926 4.61165C3.8565 4.67344 3.84616 4.73912 3.84885 4.80491C3.85154 4.87071 3.8672 4.93532 3.89493 4.99505C4.61453 6.53643 5.85355 7.77545 7.39493 8.49505C7.51666 8.54506 7.6532 8.54506 7.77493 8.49505C7.83728 8.47275 7.89459 8.43828 7.94351 8.39364C7.99244 8.34901 8.03201 8.2951 8.05993 8.23505L8.36993 7.53505C8.62841 7.62749 8.89222 7.70429 9.15993 7.76505C9.29326 7.79505 9.42826 7.82005 9.56493 7.84005C9.67864 7.86444 9.7803 7.92772 9.85239 8.01898C9.92449 8.11024 9.96252 8.22378 9.95993 8.34005L9.96993 9.90005Z" fill="#1A365D"/>
</svg>
