<svg width="12" height="10" viewBox="0 0 12 10" fill="none" xmlns="http://www.w3.org/2000/svg">
<path d="M4.24985 4.55009C4.04985 4.35009 3.74985 4.35009 3.54985 4.55009C3.34985 4.75009 3.34985 5.05009 3.54985 5.25009L4.64985 6.40009L3.49985 7.55009C3.39985 7.65009 3.34985 7.75009 3.34985 7.90009C3.34985 8.20009 3.54985 8.40009 3.84985 8.40009C3.99985 8.40009 4.09985 8.35009 4.19985 8.25009L5.69985 6.75009C5.89985 6.55009 5.89985 6.25009 5.69985 6.05009L4.24985 4.55009ZM8.49985 6.05009L6.99985 4.55009C6.79985 4.35009 6.49985 4.35009 6.29985 4.55009C6.09985 4.75009 6.09985 5.05009 6.29985 5.25009L7.44985 6.40009L6.29985 7.55009C6.19985 7.65009 6.14985 7.75009 6.14985 7.90009C6.14985 8.20009 6.34985 8.40009 6.64985 8.40009C6.79985 8.40009 6.89985 8.35009 6.99985 8.25009L8.49985 6.75009C8.64985 6.55009 8.64985 6.25009 8.49985 6.05009Z" fill="white"/>
</svg>
