<svg width="13" height="13" viewBox="0 0 13 13" fill="none" xmlns="http://www.w3.org/2000/svg">
<g clip-path="url(#clip0_10_25191)">
<path d="M9.64587 5.53998C9.61607 5.47147 9.56767 5.41268 9.50616 5.37026C9.44466 5.32784 9.3725 5.3035 9.29787 5.29998H7.46587L7.97387 3.40398C7.99005 3.34465 7.99233 3.28239 7.98054 3.22204C7.96874 3.16168 7.94319 3.10486 7.90587 3.05598C7.8682 3.00704 7.8197 2.96749 7.76418 2.94042C7.70866 2.91336 7.64763 2.89952 7.58587 2.89998H4.78587C4.69556 2.89689 4.60687 2.92446 4.53424 2.97821C4.46161 3.03196 4.40931 3.10872 4.38587 3.19598L3.31387 7.19598C3.29756 7.25641 3.29566 7.31981 3.30831 7.38111C3.32097 7.4424 3.34783 7.49986 3.38673 7.54889C3.42564 7.59791 3.47551 7.63712 3.53232 7.66336C3.58914 7.6896 3.65132 7.70215 3.71387 7.69998H5.25387L4.52987 10.396C4.50615 10.4829 4.51248 10.5753 4.54783 10.6582C4.58318 10.7411 4.64549 10.8096 4.72465 10.8527C4.80382 10.8957 4.8952 10.9108 4.98399 10.8954C5.07278 10.88 5.15379 10.8351 5.21387 10.768L9.57387 5.96798C9.62579 5.91114 9.66019 5.84052 9.67296 5.7646C9.68574 5.68868 9.67633 5.61069 9.64587 5.53998ZM5.72987 9.01199L6.16187 7.41198C6.17992 7.35179 6.18353 7.28819 6.17241 7.22634C6.16129 7.16449 6.13575 7.10613 6.09787 7.05598C6.05979 7.0065 6.01065 6.96661 5.95439 6.93952C5.89813 6.91243 5.8363 6.89889 5.77387 6.89998H4.23787L5.09387 3.69998H7.06587L6.55787 5.59598C6.54156 5.65641 6.53966 5.71981 6.55231 5.78111C6.56497 5.8424 6.59183 5.89986 6.63073 5.94889C6.66964 5.99791 6.71951 6.03712 6.77632 6.06336C6.83314 6.0896 6.89532 6.10215 6.95787 6.09998H8.38587L5.72987 9.01199Z" fill="white"/>
</g>
<defs>
<clipPath id="clip0_10_25191">
<rect width="9.6" height="9.6" fill="white" transform="translate(1.50012 2.09976)"/>
</clipPath>
</defs>
</svg>
