<svg width="13" height="13" viewBox="0 0 13 13" fill="none" xmlns="http://www.w3.org/2000/svg">
<path d="M9.84576 5.0402C9.81596 4.97169 9.76756 4.91289 9.70605 4.87047C9.64455 4.82805 9.57239 4.80371 9.49776 4.8002H7.66576L8.17376 2.9042C8.18994 2.84487 8.19222 2.78261 8.18043 2.72225C8.16863 2.6619 8.14308 2.60507 8.10576 2.5562C8.06809 2.50725 8.01959 2.4677 7.96407 2.44064C7.90855 2.41357 7.84752 2.39973 7.78576 2.4002H4.98576C4.89545 2.3971 4.80676 2.42468 4.73413 2.47843C4.6615 2.53218 4.6092 2.60893 4.58576 2.6962L3.51376 6.6962C3.49745 6.75662 3.49555 6.82003 3.5082 6.88132C3.52086 6.94261 3.54772 7.00008 3.58662 7.0491C3.62553 7.09812 3.6754 7.13733 3.73221 7.16357C3.78903 7.18982 3.85121 7.20236 3.91376 7.2002H5.45376L4.72976 9.8962C4.70604 9.98313 4.71237 10.0755 4.74772 10.1584C4.78307 10.2413 4.84538 10.3098 4.92454 10.3529C5.00371 10.3959 5.09509 10.411 5.18388 10.3956C5.27267 10.3803 5.35368 10.3354 5.41376 10.2682L9.77376 5.4682C9.82568 5.41135 9.86008 5.34073 9.87285 5.26481C9.88563 5.18889 9.87622 5.1109 9.84576 5.0402ZM5.92976 8.5122L6.36176 6.9122C6.37981 6.852 6.38342 6.7884 6.3723 6.72655C6.36118 6.6647 6.33564 6.60634 6.29776 6.5562C6.25968 6.50671 6.21054 6.46683 6.15428 6.43974C6.09802 6.41265 6.03619 6.39911 5.97376 6.4002H4.43776L5.29376 3.2002H7.26576L6.75776 5.0962C6.74145 5.15662 6.73955 5.22003 6.7522 5.28132C6.76486 5.34261 6.79172 5.40008 6.83062 5.4491C6.86953 5.49812 6.9194 5.53733 6.97621 5.56357C7.03303 5.58982 7.09521 5.60236 7.15776 5.6002H8.58576L5.92976 8.5122Z" fill="white"/>
</svg>
