<svg width="13" height="13" viewBox="0 0 13 13" fill="none" xmlns="http://www.w3.org/2000/svg">
<path d="M9.64587 5.0402C9.61607 4.97169 9.56767 4.91289 9.50616 4.87047C9.44466 4.82805 9.3725 4.80371 9.29787 4.8002H7.46587L7.97387 2.9042C7.99005 2.84487 7.99233 2.78261 7.98054 2.72225C7.96874 2.6619 7.94319 2.60507 7.90587 2.5562C7.8682 2.50725 7.8197 2.4677 7.76418 2.44064C7.70866 2.41357 7.64763 2.39973 7.58587 2.4002H4.78587C4.69556 2.3971 4.60687 2.42468 4.53424 2.47843C4.46161 2.53218 4.40931 2.60893 4.38587 2.6962L3.31387 6.6962C3.29756 6.75662 3.29566 6.82003 3.30831 6.88132C3.32097 6.94261 3.34783 7.00008 3.38673 7.0491C3.42564 7.09812 3.47551 7.13733 3.53232 7.16357C3.58914 7.18982 3.65132 7.20236 3.71387 7.2002H5.25387L4.52987 9.8962C4.50615 9.98313 4.51248 10.0755 4.54783 10.1584C4.58318 10.2413 4.64549 10.3098 4.72465 10.3529C4.80382 10.3959 4.8952 10.411 4.98399 10.3956C5.07278 10.3803 5.15379 10.3354 5.21387 10.2682L9.57387 5.4682C9.62579 5.41135 9.66019 5.34073 9.67296 5.26481C9.68574 5.18889 9.67633 5.1109 9.64587 5.0402ZM5.72987 8.5122L6.16187 6.9122C6.17992 6.852 6.18353 6.7884 6.17241 6.72655C6.16129 6.6647 6.13575 6.60634 6.09787 6.5562C6.05979 6.50671 6.01065 6.46683 5.95439 6.43974C5.89813 6.41265 5.8363 6.39911 5.77387 6.4002H4.23787L5.09387 3.2002H7.06587L6.55787 5.0962C6.54156 5.15662 6.53966 5.22003 6.55231 5.28132C6.56497 5.34261 6.59183 5.40008 6.63073 5.4491C6.66964 5.49812 6.71951 5.53733 6.77632 5.56357C6.83314 5.58982 6.89532 5.60236 6.95787 5.6002H8.38587L5.72987 8.5122Z" fill="white"/>
</svg>
