<svg width="13" height="13" viewBox="0 0 13 13" fill="none" xmlns="http://www.w3.org/2000/svg">
<path d="M10.3201 7.10003C10.2101 7.10003 10.0951 7.06503 9.98515 7.04003C9.76239 6.99094 9.54348 6.92577 9.33015 6.84503C9.09819 6.76065 8.84322 6.76503 8.6143 6.85734C8.38538 6.94964 8.19869 7.12335 8.09015 7.34503L7.98015 7.57003C7.49315 7.29912 7.04564 6.96265 6.65015 6.57003C6.25753 6.17454 5.92106 5.72703 5.65015 5.24003L5.86015 5.10003C6.08183 4.99149 6.25554 4.8048 6.34785 4.57588C6.44015 4.34696 6.44453 4.09199 6.36015 3.86003C6.28076 3.64624 6.21562 3.42743 6.16515 3.20503C6.14015 3.09503 6.12015 2.98003 6.10515 2.86503C6.04443 2.51284 5.85996 2.1939 5.58496 1.96565C5.30996 1.7374 4.9625 1.61484 4.60515 1.62003H3.10515C2.88966 1.61801 2.67627 1.66244 2.4795 1.7503C2.28273 1.83816 2.1072 1.96738 1.96486 2.12917C1.82252 2.29097 1.71672 2.48153 1.65464 2.68789C1.59257 2.89425 1.57569 3.11156 1.60515 3.32503C1.87152 5.41972 2.82816 7.36597 4.32397 8.85635C5.81979 10.3467 7.7695 11.2963 9.86515 11.555H10.0551C10.4239 11.5556 10.7798 11.4203 11.0551 11.175C11.2133 11.0336 11.3397 10.8601 11.4259 10.6662C11.5121 10.4723 11.5561 10.2622 11.5551 10.05V8.55003C11.549 8.20272 11.4226 7.86831 11.1973 7.60386C10.9721 7.33942 10.6621 7.16135 10.3201 7.10003V7.10003ZM10.5701 10.1C10.5701 10.171 10.5549 10.2412 10.5255 10.3058C10.4962 10.3705 10.4535 10.4282 10.4001 10.475C10.3444 10.5235 10.2791 10.5597 10.2085 10.5813C10.1378 10.6028 10.0634 10.6092 9.99015 10.6C8.1176 10.3599 6.37827 9.50327 5.04651 8.16518C3.71475 6.82708 2.86635 5.0837 2.63515 3.21003C2.62719 3.13679 2.63416 3.0627 2.65565 2.99223C2.67713 2.92176 2.71268 2.85638 2.76015 2.80003C2.807 2.7467 2.86468 2.70395 2.92934 2.67464C2.994 2.64533 3.06416 2.63012 3.13515 2.63003H4.63515C4.75142 2.62744 4.86496 2.66547 4.95622 2.73757C5.04748 2.80966 5.11075 2.91132 5.13515 3.02503C5.15515 3.1617 5.18015 3.2967 5.21015 3.43003C5.26791 3.6936 5.34478 3.95262 5.44015 4.20503L4.74015 4.53003C4.6803 4.55749 4.62646 4.5965 4.58173 4.64483C4.53699 4.69315 4.50225 4.74984 4.47948 4.81163C4.45672 4.87342 4.44638 4.9391 4.44907 5.00489C4.45176 5.07069 4.46742 5.1353 4.49515 5.19503C5.21475 6.73641 6.45377 7.97543 7.99515 8.69503C8.11688 8.74504 8.25342 8.74504 8.37515 8.69503C8.4375 8.67273 8.49481 8.63826 8.54373 8.59363C8.59266 8.54899 8.63223 8.49508 8.66015 8.43503L8.97015 7.73503C9.22863 7.82747 9.49244 7.90428 9.76015 7.96503C9.89348 7.99503 10.0285 8.02003 10.1651 8.04003C10.2789 8.06443 10.3805 8.1277 10.4526 8.21896C10.5247 8.31022 10.5627 8.42376 10.5601 8.54003L10.5701 10.1Z" fill="#065666"/>
</svg>
