<svg width="11" height="13" viewBox="0 0 11 13" fill="none" xmlns="http://www.w3.org/2000/svg">
<path d="M6.80005 1.60004C4.05005 1.60004 1.80005 3.85004 1.80005 6.60004C1.80005 9.35004 4.05005 11.6 6.80005 11.6C7.70005 11.6 8.55005 11.35 9.30005 10.95C9.55005 10.8 9.60005 10.5 9.50005 10.25C9.35005 10 9.05005 9.95004 8.80005 10.05C6.90005 11.15 4.45005 10.5 3.35005 8.60004C2.25005 6.70004 2.90005 4.25004 4.80005 3.15004C6.70005 2.05004 9.15005 2.70004 10.25 4.60004C10.6 5.20004 10.8 5.90004 10.8 6.60004V7.00004C10.8 7.50004 10.4 7.90004 9.90005 7.90004C9.40005 7.90004 9.00005 7.50004 9.00005 7.00004V4.85004C9.00005 4.55004 8.80005 4.35004 8.50005 4.35004C8.25005 4.35004 8.05005 4.50004 8.00005 4.75004C7.00005 4.05004 5.55005 4.30004 4.85005 5.30004C4.15005 6.30004 4.40005 7.75004 5.40005 8.45004C6.35005 9.10004 7.60005 8.95004 8.35005 8.10004C9.00005 8.90004 10.15 9.05004 10.95 8.45004C11.4 8.10004 11.7 7.55004 11.7 6.95004V6.60004C11.8 3.85004 9.55005 1.60004 6.80005 1.60004ZM6.80005 7.85004C6.10005 7.85004 5.55005 7.30004 5.55005 6.60004C5.55005 5.90004 6.10005 5.35004 6.80005 5.35004C7.50005 5.35004 8.05005 5.90004 8.05005 6.60004C8.05005 7.30004 7.50005 7.85004 6.80005 7.85004Z" fill="#728095"/>
</svg>
