<svg width="13" height="13" viewBox="0 0 13 13" fill="none" xmlns="http://www.w3.org/2000/svg">
<path d="M10.2824 4.60007C10.2451 4.51443 10.1846 4.44093 10.1077 4.38791C10.0309 4.33489 9.94066 4.30446 9.84737 4.30007H7.55737L8.19237 1.93007C8.2126 1.85591 8.21545 1.77808 8.20071 1.70263C8.18597 1.62719 8.15403 1.55616 8.10737 1.49507C8.06028 1.43389 7.99966 1.38445 7.93026 1.35061C7.86087 1.31678 7.78458 1.29948 7.70737 1.30007H4.20737C4.09449 1.2962 3.98363 1.33067 3.89284 1.39785C3.80204 1.46504 3.73667 1.56099 3.70737 1.67007L2.36737 6.67007C2.34699 6.7456 2.34461 6.82485 2.36043 6.90147C2.37624 6.97808 2.40982 7.04992 2.45845 7.1112C2.50709 7.17247 2.56942 7.22148 2.64044 7.25429C2.71146 7.28709 2.78919 7.30277 2.86737 7.30007H4.79237L3.88737 10.6701C3.85772 10.7787 3.86563 10.8942 3.90983 10.9978C3.95402 11.1015 4.0319 11.1871 4.13085 11.2409C4.22981 11.2947 4.34403 11.3136 4.45503 11.2944C4.56602 11.2751 4.66727 11.219 4.74237 11.1351L10.1924 5.13507C10.2573 5.06401 10.3003 4.97573 10.3162 4.88084C10.3322 4.78594 10.3204 4.68845 10.2824 4.60007ZM5.38737 8.94007L5.92737 6.94007C5.94993 6.86482 5.95445 6.78532 5.94055 6.70801C5.92665 6.6307 5.89473 6.55774 5.84737 6.49507C5.79977 6.43321 5.73835 6.38335 5.66802 6.34949C5.59769 6.31563 5.52042 6.2987 5.44237 6.30007H3.52237L4.59237 2.30007H7.05737L6.42237 4.67007C6.40199 4.7456 6.39961 4.82485 6.41543 4.90147C6.43124 4.97808 6.46482 5.04992 6.51345 5.1112C6.56209 5.17247 6.62442 5.22148 6.69544 5.25429C6.76646 5.28709 6.84419 5.30277 6.92237 5.30007H8.70737L5.38737 8.94007Z" fill="white"/>
</svg>
