<svg width="13" height="13" viewBox="0 0 13 13" fill="none" xmlns="http://www.w3.org/2000/svg">
<path d="M10.52 7.09991C10.41 7.09991 10.295 7.06491 10.185 7.03991C9.96228 6.99082 9.74337 6.92565 9.53004 6.84491C9.29808 6.76052 9.04311 6.76491 8.81419 6.85721C8.58527 6.94952 8.39858 7.12323 8.29004 7.34491L8.18004 7.56991C7.69304 7.299 7.24553 6.96253 6.85004 6.56991C6.45742 6.17442 6.12095 5.72691 5.85004 5.23991L6.06004 5.09991C6.28172 4.99137 6.45543 4.80467 6.54774 4.57576C6.64004 4.34684 6.64442 4.09187 6.56004 3.85991C6.48065 3.64612 6.41551 3.42731 6.36504 3.20491C6.34004 3.09491 6.32004 2.97991 6.30504 2.86491C6.24432 2.51272 6.05985 2.19378 5.78485 1.96553C5.50985 1.73728 5.16239 1.61471 4.80504 1.61991H3.30504C3.08955 1.61789 2.87616 1.66232 2.67939 1.75017C2.48262 1.83803 2.30709 1.96726 2.16475 2.12905C2.02241 2.29084 1.91661 2.48141 1.85453 2.68777C1.79246 2.89413 1.77558 3.11144 1.80504 3.32491C2.07141 5.4196 3.02805 7.36585 4.52386 8.85623C6.01968 10.3466 7.96939 11.2962 10.065 11.5549H10.255C10.6237 11.5555 10.9797 11.4202 11.255 11.1749C11.4132 11.0334 11.5396 10.86 11.6258 10.6661C11.712 10.4721 11.756 10.2621 11.755 10.0499V8.54991C11.7489 8.2026 11.6224 7.86819 11.3972 7.60374C11.172 7.3393 10.8619 7.16122 10.52 7.09991V7.09991ZM10.77 10.0999C10.7699 10.1709 10.7547 10.2411 10.7254 10.3057C10.6961 10.3704 10.6534 10.4281 10.6 10.4749C10.5443 10.5234 10.479 10.5596 10.4084 10.5812C10.3377 10.6027 10.2633 10.6091 10.19 10.5999C8.31749 10.3598 6.57816 9.50315 5.2464 8.16505C3.91464 6.82696 3.06624 5.08358 2.83504 3.20991C2.82708 3.13667 2.83405 3.06257 2.85554 2.99211C2.87702 2.92164 2.91257 2.85625 2.96004 2.79991C3.00689 2.74658 3.06457 2.70383 3.12923 2.67452C3.19389 2.64521 3.26405 2.63 3.33504 2.62991H4.83504C4.95131 2.62732 5.06485 2.66535 5.15611 2.73744C5.24737 2.80954 5.31064 2.91119 5.33504 3.02491C5.35504 3.16158 5.38004 3.29658 5.41004 3.42991C5.4678 3.69348 5.54467 3.9525 5.64004 4.20491L4.94004 4.52991C4.88019 4.55737 4.82635 4.59638 4.78162 4.64471C4.73688 4.69303 4.70214 4.74972 4.67937 4.81151C4.65661 4.8733 4.64627 4.93898 4.64896 5.00477C4.65165 5.07057 4.66731 5.13518 4.69504 5.19491C5.41464 6.73629 6.65366 7.97531 8.19504 8.69491C8.31677 8.74492 8.45331 8.74492 8.57504 8.69491C8.63739 8.67261 8.6947 8.63814 8.74362 8.5935C8.79255 8.54887 8.83212 8.49496 8.86004 8.43491L9.17004 7.73491C9.42852 7.82735 9.69233 7.90415 9.96004 7.96491C10.0934 7.99491 10.2284 8.01991 10.365 8.03991C10.4788 8.0643 10.5804 8.12758 10.6525 8.21884C10.7246 8.3101 10.7626 8.42364 10.76 8.53991L10.77 10.0999Z" fill="#1A365D"/>
</svg>
