<svg width="13" height="13" viewBox="0 0 13 13" fill="none" xmlns="http://www.w3.org/2000/svg">
<path d="M10.9823 5.10039C10.945 5.01475 10.8845 4.94125 10.8077 4.88823C10.7308 4.83521 10.6406 4.80478 10.5473 4.80039H8.25729L8.89229 2.43039C8.91252 2.35623 8.91537 2.2784 8.90063 2.20295C8.88589 2.12751 8.85395 2.05648 8.80729 1.99539C8.7602 1.93421 8.69958 1.88477 8.63018 1.85094C8.56079 1.8171 8.4845 1.7998 8.40729 1.80039H4.90729C4.79441 1.79652 4.68355 1.83099 4.59276 1.89817C4.50196 1.96536 4.43659 2.06131 4.40729 2.17039L3.06729 7.17039C3.04691 7.24592 3.04453 7.32517 3.06035 7.40179C3.07617 7.4784 3.10974 7.55024 3.15837 7.61152C3.20701 7.67279 3.26934 7.7218 3.34036 7.75461C3.41138 7.78741 3.48911 7.80309 3.56729 7.80039H5.49229L4.58729 11.1704C4.55764 11.2791 4.56555 11.3946 4.60975 11.4982C4.65394 11.6018 4.73182 11.6874 4.83077 11.7412C4.92973 11.7951 5.04396 11.8139 5.15495 11.7947C5.26594 11.7755 5.36719 11.7193 5.44229 11.6354L10.8923 5.63539C10.9572 5.56433 11.0002 5.47605 11.0162 5.38116C11.0321 5.28626 11.0204 5.18877 10.9823 5.10039ZM6.08729 9.44039L6.62729 7.44039C6.64985 7.36514 6.65437 7.28564 6.64047 7.20833C6.62657 7.13102 6.59465 7.05806 6.54729 6.99539C6.49969 6.93353 6.43827 6.88367 6.36794 6.84981C6.29762 6.81595 6.22034 6.79902 6.14229 6.80039H4.22229L5.29229 2.80039H7.75729L7.12229 5.17039C7.10191 5.24592 7.09953 5.32517 7.11535 5.40179C7.13117 5.4784 7.16474 5.55024 7.21337 5.61152C7.26201 5.67279 7.32434 5.7218 7.39536 5.75461C7.46638 5.78741 7.54411 5.80309 7.62229 5.80039H9.40729L6.08729 9.44039Z" fill="white"/>
</svg>
