<svg width="12" height="13" viewBox="0 0 12 13" fill="none" xmlns="http://www.w3.org/2000/svg">
<path d="M4.24985 4.95014C4.04985 4.75014 3.74985 4.75014 3.54985 4.95014C3.34985 5.15014 3.34985 5.45014 3.54985 5.65014L4.64985 6.80014L3.49985 7.95014C3.39985 8.05014 3.34985 8.15014 3.34985 8.30014C3.34985 8.60014 3.54985 8.80014 3.84985 8.80014C3.99985 8.80014 4.09985 8.75014 4.19985 8.65014L5.69985 7.15014C5.89985 6.95014 5.89985 6.65014 5.69985 6.45014L4.24985 4.95014ZM8.49985 6.45014L6.99985 4.95014C6.79985 4.75014 6.49985 4.75014 6.29985 4.95014C6.09985 5.15014 6.09985 5.45014 6.29985 5.65014L7.44985 6.80014L6.29985 7.95014C6.19985 8.05014 6.14985 8.15014 6.14985 8.30014C6.14985 8.60014 6.34985 8.80014 6.64985 8.80014C6.79985 8.80014 6.89985 8.75014 6.99985 8.65014L8.49985 7.15014C8.64985 6.95014 8.64985 6.65014 8.49985 6.45014Z" fill="white"/>
</svg>
