<svg width="12" height="13" viewBox="0 0 12 13" fill="none" xmlns="http://www.w3.org/2000/svg">
<path d="M4.2501 5.04972C4.0501 4.84972 3.7501 4.84972 3.5501 5.04972C3.3501 5.24972 3.3501 5.54972 3.5501 5.74972L4.6501 6.89972L3.5001 8.04972C3.4001 8.14972 3.3501 8.24972 3.3501 8.39972C3.3501 8.69972 3.5501 8.89972 3.8501 8.89972C4.0001 8.89972 4.1001 8.84972 4.2001 8.74972L5.7001 7.24972C5.9001 7.04972 5.9001 6.74972 5.7001 6.54972L4.2501 5.04972ZM8.5001 6.54972L7.0001 5.04972C6.8001 4.84972 6.5001 4.84972 6.3001 5.04972C6.1001 5.24972 6.1001 5.54972 6.3001 5.74972L7.4501 6.89972L6.3001 8.04972C6.2001 8.14972 6.1501 8.24972 6.1501 8.39972C6.1501 8.69972 6.3501 8.89972 6.6501 8.89972C6.8001 8.89972 6.9001 8.84972 7.0001 8.74972L8.5001 7.24972C8.6501 7.04972 8.6501 6.74972 8.5001 6.54972Z" fill="white"/>
</svg>
