<svg width="12" height="13" viewBox="0 0 12 13" fill="none" xmlns="http://www.w3.org/2000/svg">
<path d="M6 1.19995C3.25 1.19995 1 3.44995 1 6.19995C1 8.94995 3.25 11.2 6 11.2C6.9 11.2 7.75 10.95 8.5 10.55C8.75 10.4 8.8 10.1 8.7 9.84995C8.55 9.59995 8.25 9.54995 8 9.64995C6.1 10.75 3.65 10.1 2.55 8.19995C1.45 6.29995 2.1 3.84995 4 2.74995C5.9 1.64995 8.35 2.29995 9.45 4.19995C9.8 4.79995 10 5.49995 10 6.19995V6.59995C10 7.09995 9.6 7.49995 9.1 7.49995C8.6 7.49995 8.2 7.09995 8.2 6.59995V4.44995C8.2 4.14995 8 3.94995 7.7 3.94995C7.45 3.94995 7.25 4.09995 7.2 4.34995C6.2 3.64995 4.75 3.89995 4.05 4.89995C3.35 5.89995 3.6 7.34995 4.6 8.04995C5.55 8.69995 6.8 8.54995 7.55 7.69995C8.2 8.49995 9.35 8.64995 10.15 8.04995C10.6 7.69995 10.9 7.14995 10.9 6.54995V6.19995C11 3.44995 8.75 1.19995 6 1.19995ZM6 7.44995C5.3 7.44995 4.75 6.89995 4.75 6.19995C4.75 5.49995 5.3 4.94995 6 4.94995C6.7 4.94995 7.25 5.49995 7.25 6.19995C7.25 6.89995 6.7 7.44995 6 7.44995Z" fill="#728095"/>
</svg>
