<svg width="13" height="13" viewBox="0 0 13 13" fill="none" xmlns="http://www.w3.org/2000/svg">
<path d="M10.9822 4.6001C10.9449 4.51446 10.8845 4.44096 10.8076 4.38794C10.7307 4.33492 10.6405 4.30449 10.5472 4.3001H8.2572L8.8922 1.9301C8.91243 1.85594 8.91528 1.77811 8.90054 1.70266C8.88579 1.62722 8.85386 1.55619 8.8072 1.4951C8.76011 1.43392 8.69949 1.38448 8.63009 1.35065C8.56069 1.31681 8.48441 1.29951 8.4072 1.3001H4.9072C4.79432 1.29623 4.68346 1.3307 4.59266 1.39788C4.50187 1.46507 4.4365 1.56102 4.4072 1.6701L3.0672 6.6701C3.04682 6.74563 3.04444 6.82488 3.06026 6.9015C3.07607 6.97811 3.10965 7.04995 3.15828 7.11123C3.20692 7.1725 3.26925 7.22151 3.34027 7.25432C3.41129 7.28712 3.48902 7.3028 3.5672 7.3001H5.4922L4.5872 10.6701C4.55755 10.7788 4.56546 10.8943 4.60965 10.9979C4.65385 11.1015 4.73173 11.1871 4.83068 11.241C4.92964 11.2948 5.04386 11.3136 5.15485 11.2944C5.26585 11.2752 5.3671 11.219 5.4422 11.1351L10.8922 5.1351C10.9571 5.06404 11.0001 4.97576 11.0161 4.88087C11.032 4.78597 11.0203 4.68848 10.9822 4.6001ZM6.0872 8.9401L6.6272 6.9401C6.64976 6.86485 6.65427 6.78535 6.64038 6.70804C6.62648 6.63073 6.59456 6.55777 6.5472 6.4951C6.4996 6.43324 6.43818 6.38338 6.36785 6.34952C6.29752 6.31566 6.22025 6.29873 6.1422 6.3001H4.2222L5.2922 2.3001H7.7572L7.1222 4.6701C7.10182 4.74563 7.09944 4.82488 7.11526 4.9015C7.13107 4.97811 7.16465 5.04995 7.21328 5.11123C7.26192 5.1725 7.32425 5.22151 7.39527 5.25432C7.46629 5.28712 7.54402 5.3028 7.6222 5.3001H9.4072L6.0872 8.9401Z" fill="white"/>
</svg>
