<svg width="13" height="13" viewBox="0 0 13 13" fill="none" xmlns="http://www.w3.org/2000/svg">
<path d="M10.5823 4.70032C10.545 4.61468 10.4846 4.54118 10.4077 4.48816C10.3308 4.43514 10.2406 4.40471 10.1473 4.40032H7.8573L8.4923 2.03032C8.51252 1.95616 8.51538 1.87833 8.50063 1.80288C8.48589 1.72744 8.45395 1.65641 8.4073 1.59532C8.36021 1.53414 8.29959 1.4847 8.23019 1.45087C8.16079 1.41703 8.0845 1.39973 8.0073 1.40032H4.5073C4.39442 1.39645 4.28355 1.43092 4.19276 1.4981C4.10197 1.56529 4.0366 1.66124 4.0073 1.77032L2.6673 6.77032C2.64691 6.84585 2.64453 6.9251 2.66035 7.00172C2.67617 7.07833 2.70975 7.15017 2.75838 7.21145C2.80701 7.27272 2.86935 7.32173 2.94037 7.35454C3.01139 7.38734 3.08912 7.40302 3.1673 7.40032H5.0923L4.1873 10.7703C4.15765 10.879 4.16556 10.9945 4.20975 11.0981C4.25394 11.2017 4.33183 11.2874 4.43078 11.3412C4.52973 11.395 4.64396 11.4138 4.75495 11.3946C4.86594 11.3754 4.9672 11.3193 5.0423 11.2353L10.4923 5.23532C10.5572 5.16426 10.6002 5.07598 10.6162 4.98109C10.6321 4.88619 10.6204 4.7887 10.5823 4.70032ZM5.6873 9.04032L6.2273 7.04032C6.24986 6.96507 6.25437 6.88557 6.24047 6.80826C6.22657 6.73095 6.19465 6.65799 6.1473 6.59532C6.0997 6.53346 6.03828 6.4836 5.96795 6.44974C5.89762 6.41588 5.82034 6.39895 5.7423 6.40032H3.8223L4.8923 2.40032H7.3573L6.7223 4.77032C6.70191 4.84585 6.69953 4.9251 6.71535 5.00172C6.73117 5.07833 6.76475 5.15017 6.81338 5.21145C6.86201 5.27272 6.92435 5.32173 6.99537 5.35454C7.06639 5.38734 7.14412 5.40302 7.2223 5.40032H9.0073L5.6873 9.04032Z" fill="white"/>
</svg>
