<svg width="13" height="13" viewBox="0 0 13 13" fill="none" xmlns="http://www.w3.org/2000/svg">
<path d="M10.7823 5.10043C10.745 5.01479 10.6845 4.9413 10.6076 4.88828C10.5307 4.83525 10.4405 4.80482 10.3473 4.80043H8.05725L8.69225 2.43043C8.71248 2.35627 8.71533 2.27844 8.70059 2.203C8.68584 2.12756 8.65391 2.05653 8.60725 1.99543C8.56016 1.93425 8.49954 1.88481 8.43014 1.85098C8.36074 1.81715 8.28445 1.79985 8.20725 1.80043H4.70725C4.59437 1.79657 4.48351 1.83103 4.39271 1.89822C4.30192 1.96541 4.23655 2.06135 4.20725 2.17043L2.86725 7.17043C2.84687 7.24596 2.84449 7.32522 2.8603 7.40184C2.87612 7.47845 2.9097 7.55028 2.95833 7.61156C3.00696 7.67284 3.0693 7.72185 3.14032 7.75465C3.21134 7.78746 3.28907 7.80314 3.36725 7.80043H5.29225L4.38725 11.1704C4.3576 11.2791 4.36551 11.3946 4.4097 11.4982C4.45389 11.6018 4.53178 11.6875 4.63073 11.7413C4.72969 11.7951 4.84391 11.8139 4.9549 11.7947C5.06589 11.7755 5.16715 11.7194 5.24225 11.6354L10.6923 5.63543C10.7571 5.56438 10.8002 5.4761 10.8161 5.3812C10.8321 5.2863 10.8203 5.18881 10.7823 5.10043ZM5.88725 9.44043L6.42725 7.44043C6.44981 7.36519 6.45432 7.28569 6.44042 7.20838C6.42653 7.13106 6.39461 7.05811 6.34725 6.99543C6.29965 6.93357 6.23823 6.88372 6.1679 6.84986C6.09757 6.816 6.02029 6.79907 5.94225 6.80043H4.02225L5.09225 2.80043H7.55725L6.92225 5.17043C6.90186 5.24596 6.89949 5.32522 6.9153 5.40183C6.93112 5.47845 6.9647 5.55028 7.01333 5.61156C7.06196 5.67284 7.1243 5.72185 7.19532 5.75465C7.26634 5.78746 7.34407 5.80314 7.42225 5.80043H9.20725L5.88725 9.44043Z" fill="white"/>
</svg>
