<svg width="11" height="13" viewBox="0 0 11 13" fill="none" xmlns="http://www.w3.org/2000/svg">
<path d="M6.80029 1.59998C4.05029 1.59998 1.80029 3.84998 1.80029 6.59998C1.80029 9.34998 4.05029 11.6 6.80029 11.6C7.70029 11.6 8.55029 11.35 9.30029 10.95C9.55029 10.8 9.60029 10.5 9.50029 10.25C9.35029 9.99998 9.05029 9.94998 8.80029 10.05C6.90029 11.15 4.45029 10.5 3.35029 8.59998C2.25029 6.69998 2.90029 4.24998 4.80029 3.14998C6.70029 2.04998 9.15029 2.69998 10.2503 4.59998C10.6003 5.19998 10.8003 5.89998 10.8003 6.59998V6.99998C10.8003 7.49998 10.4003 7.89998 9.90029 7.89998C9.40029 7.89998 9.00029 7.49998 9.00029 6.99998V4.84998C9.00029 4.54998 8.80029 4.34998 8.50029 4.34998C8.25029 4.34998 8.05029 4.49998 8.00029 4.74998C7.00029 4.04998 5.55029 4.29998 4.85029 5.29998C4.15029 6.29998 4.40029 7.74998 5.40029 8.44998C6.35029 9.09998 7.60029 8.94998 8.35029 8.09998C9.00029 8.89998 10.1503 9.04998 10.9503 8.44998C11.4003 8.09998 11.7003 7.54998 11.7003 6.94998V6.59998C11.8003 3.84998 9.55029 1.59998 6.80029 1.59998ZM6.80029 7.84998C6.10029 7.84998 5.55029 7.29998 5.55029 6.59998C5.55029 5.89998 6.10029 5.34998 6.80029 5.34998C7.50029 5.34998 8.05029 5.89998 8.05029 6.59998C8.05029 7.29998 7.50029 7.84998 6.80029 7.84998Z" fill="#728095"/>
</svg>
