<svg width="13" height="13" viewBox="0 0 13 13" fill="none" xmlns="http://www.w3.org/2000/svg">
<path d="M9.54577 5.0402C9.51597 4.97169 9.46757 4.91289 9.40607 4.87047C9.34456 4.82805 9.2724 4.80371 9.19777 4.8002H7.36577L7.87377 2.9042C7.88995 2.84487 7.89223 2.78261 7.88044 2.72225C7.86865 2.6619 7.84309 2.60507 7.80577 2.5562C7.7681 2.50725 7.7196 2.4677 7.66408 2.44064C7.60857 2.41357 7.54753 2.39973 7.48577 2.4002H4.68577C4.59547 2.3971 4.50677 2.42468 4.43414 2.47843C4.36151 2.53218 4.30921 2.60893 4.28577 2.6962L3.21377 6.6962C3.19746 6.75662 3.19556 6.82003 3.20821 6.88132C3.22087 6.94261 3.24773 7.00008 3.28664 7.0491C3.32554 7.09812 3.37541 7.13733 3.43223 7.16357C3.48904 7.18982 3.55122 7.20236 3.61377 7.2002H5.15377L4.42977 9.8962C4.40605 9.98313 4.41238 10.0755 4.44773 10.1584C4.48309 10.2413 4.54539 10.3098 4.62456 10.3529C4.70372 10.3959 4.7951 10.411 4.88389 10.3956C4.97269 10.3803 5.05369 10.3354 5.11377 10.2682L9.47377 5.4682C9.52569 5.41135 9.5601 5.34073 9.57287 5.26481C9.58564 5.18889 9.57623 5.1109 9.54577 5.0402ZM5.62977 8.5122L6.06177 6.9122C6.07982 6.852 6.08343 6.7884 6.07231 6.72655C6.06119 6.6647 6.03565 6.60634 5.99777 6.5562C5.95969 6.50671 5.91055 6.46683 5.85429 6.43974C5.79803 6.41265 5.73621 6.39911 5.67377 6.4002H4.13777L4.99377 3.2002H6.96577L6.45777 5.0962C6.44146 5.15662 6.43956 5.22003 6.45221 5.28132C6.46487 5.34261 6.49173 5.40008 6.53064 5.4491C6.56954 5.49812 6.61941 5.53733 6.67623 5.56357C6.73304 5.58982 6.79522 5.60236 6.85777 5.6002H8.28577L5.62977 8.5122Z" fill="white"/>
</svg>
