<svg width="13" height="13" viewBox="0 0 13 13" fill="none" xmlns="http://www.w3.org/2000/svg">
<path d="M10.5823 4.70032C10.545 4.61468 10.4845 4.54118 10.4076 4.48816C10.3308 4.43514 10.2406 4.40471 10.1473 4.40032H7.85727L8.49227 2.03032C8.51249 1.95616 8.51535 1.87833 8.5006 1.80288C8.48586 1.72744 8.45392 1.65641 8.40727 1.59532C8.36018 1.53414 8.29956 1.4847 8.23016 1.45087C8.16076 1.41703 8.08447 1.39973 8.00727 1.40032H4.50727C4.39439 1.39645 4.28352 1.43092 4.19273 1.4981C4.10194 1.56529 4.03657 1.66124 4.00727 1.77032L2.66727 6.77032C2.64688 6.84585 2.6445 6.9251 2.66032 7.00172C2.67614 7.07833 2.70972 7.15017 2.75835 7.21145C2.80698 7.27272 2.86932 7.32173 2.94034 7.35454C3.01136 7.38734 3.08909 7.40302 3.16727 7.40032H5.09227L4.18727 10.7703C4.15762 10.879 4.16553 10.9945 4.20972 11.0981C4.25391 11.2017 4.3318 11.2874 4.43075 11.3412C4.5297 11.395 4.64393 11.4138 4.75492 11.3946C4.86591 11.3754 4.96716 11.3193 5.04227 11.2353L10.4923 5.23532C10.5572 5.16426 10.6002 5.07598 10.6161 4.98109C10.6321 4.88619 10.6203 4.7887 10.5823 4.70032ZM5.68727 9.04032L6.22727 7.04032C6.24983 6.96507 6.25434 6.88557 6.24044 6.80826C6.22654 6.73095 6.19462 6.65799 6.14727 6.59532C6.09967 6.53346 6.03825 6.4836 5.96792 6.44974C5.89759 6.41588 5.82031 6.39895 5.74227 6.40032H3.82227L4.89227 2.40032H7.35727L6.72227 4.77032C6.70188 4.84585 6.6995 4.9251 6.71532 5.00172C6.73114 5.07833 6.76472 5.15017 6.81335 5.21145C6.86198 5.27272 6.92432 5.32173 6.99534 5.35454C7.06636 5.38734 7.14409 5.40302 7.22227 5.40032H9.00727L5.68727 9.04032Z" fill="white"/>
</svg>
