<svg width="13" height="13" viewBox="0 0 13 13" fill="none" xmlns="http://www.w3.org/2000/svg">
<g clip-path="url(#clip0_10_55162)">
<path d="M10.1459 5.44038C10.1161 5.37186 10.0677 5.31307 10.0062 5.27065C9.94466 5.22823 9.8725 5.20389 9.79787 5.20038H7.96587L8.47387 3.30438C8.49005 3.24505 8.49233 3.18278 8.48054 3.12243C8.46874 3.06207 8.44319 3.00525 8.40587 2.95638C8.3682 2.90743 8.3197 2.86788 8.26418 2.84081C8.20866 2.81375 8.14763 2.79991 8.08587 2.80037H5.28587C5.19556 2.79728 5.10687 2.82485 5.03424 2.8786C4.96161 2.93235 4.90931 3.00911 4.88587 3.09638L3.81387 7.09638C3.79756 7.1568 3.79566 7.2202 3.80831 7.2815C3.82097 7.34279 3.84783 7.40026 3.88673 7.44928C3.92564 7.4983 3.97551 7.53751 4.03232 7.56375C4.08914 7.58999 4.15132 7.60254 4.21387 7.60038H5.75387L5.02987 10.2964C5.00615 10.3833 5.01248 10.4757 5.04783 10.5586C5.08318 10.6415 5.14549 10.71 5.22465 10.7531C5.30382 10.7961 5.3952 10.8112 5.48399 10.7958C5.57278 10.7804 5.65379 10.7355 5.71387 10.6684L10.0739 5.86838C10.1258 5.81153 10.1602 5.74091 10.173 5.66499C10.1857 5.58907 10.1763 5.51108 10.1459 5.44038ZM6.22987 8.91238L6.66187 7.31238C6.67992 7.25218 6.68353 7.18858 6.67241 7.12673C6.66129 7.06488 6.63575 7.00652 6.59787 6.95638C6.55979 6.90689 6.51065 6.867 6.45439 6.83991C6.39813 6.81282 6.3363 6.79928 6.27387 6.80038H4.73787L5.59387 3.60038H7.56587L7.05787 5.49638C7.04156 5.5568 7.03966 5.6202 7.05231 5.6815C7.06497 5.74279 7.09183 5.80026 7.13073 5.84928C7.16964 5.8983 7.21951 5.93751 7.27632 5.96375C7.33314 5.98999 7.39532 6.00254 7.45787 6.00038H8.88587L6.22987 8.91238Z" fill="#A1AEBF"/>
</g>
<defs>
<clipPath id="clip0_10_55162">
<rect width="9.6" height="9.6" fill="white" transform="translate(2 2.00012)"/>
</clipPath>
</defs>
</svg>
