<svg width="13" height="12" viewBox="0 0 13 12" fill="none" xmlns="http://www.w3.org/2000/svg">
<path d="M9.64563 5.24039C9.61582 5.17188 9.56743 5.11308 9.50592 5.07067C9.44441 5.02825 9.37226 5.0039 9.29763 5.00039H7.46563L7.97363 3.10439C7.9898 3.04506 7.99209 2.9828 7.98029 2.92245C7.9685 2.86209 7.94295 2.80527 7.90563 2.75639C7.86795 2.70745 7.81946 2.6679 7.76394 2.64083C7.70842 2.61377 7.64739 2.59993 7.58563 2.60039H4.78563C4.69532 2.5973 4.60663 2.62487 4.53399 2.67862C4.46136 2.73237 4.40907 2.80913 4.38563 2.89639L3.31363 6.89639C3.29732 6.95682 3.29541 7.02022 3.30807 7.08151C3.32072 7.14281 3.34758 7.20027 3.38649 7.2493C3.4254 7.29832 3.47526 7.33753 3.53208 7.36377C3.5889 7.39001 3.65108 7.40256 3.71363 7.40039H5.25363L4.52963 10.0964C4.5059 10.1833 4.51223 10.2757 4.54759 10.3586C4.58294 10.4415 4.64525 10.51 4.72441 10.5531C4.80357 10.5961 4.89495 10.6112 4.98375 10.5958C5.07254 10.5805 5.15354 10.5356 5.21363 10.4684L9.57363 5.66839C9.62554 5.61155 9.65995 5.54093 9.67272 5.46501C9.68549 5.38909 9.67608 5.3111 9.64563 5.24039ZM5.72963 8.71239L6.16163 7.11239C6.17967 7.0522 6.18328 6.9886 6.17216 6.92675C6.16104 6.8649 6.13551 6.80653 6.09763 6.75639C6.05954 6.70691 6.01041 6.66702 5.95414 6.63993C5.89788 6.61284 5.83606 6.5993 5.77363 6.60039H4.23763L5.09363 3.40039H7.06563L6.55763 5.29639C6.54132 5.35682 6.53941 5.42022 6.55207 5.48151C6.56472 5.54281 6.59158 5.60027 6.63049 5.6493C6.6694 5.69832 6.71926 5.73753 6.77608 5.76377C6.8329 5.79001 6.89508 5.80256 6.95763 5.80039H8.38563L5.72963 8.71239Z" fill="white"/>
</svg>
