<svg width="13" height="13" viewBox="0 0 13 13" fill="none" xmlns="http://www.w3.org/2000/svg">
<path d="M10.2823 5.10028C10.245 5.01464 10.1845 4.94114 10.1077 4.88812C10.0308 4.8351 9.94057 4.80467 9.84728 4.80028H7.55728L8.19228 2.43028C8.21251 2.35612 8.21536 2.27829 8.20062 2.20285C8.18587 2.1274 8.15394 2.05638 8.10728 1.99528C8.06019 1.9341 7.99957 1.88466 7.93017 1.85083C7.86077 1.817 7.78448 1.7997 7.70728 1.80028H4.20728C4.0944 1.79641 3.98354 1.83088 3.89274 1.89807C3.80195 1.96525 3.73658 2.0612 3.70728 2.17028L2.36728 7.17028C2.3469 7.24581 2.34452 7.32507 2.36033 7.40168C2.37615 7.4783 2.40973 7.55013 2.45836 7.61141C2.50699 7.67269 2.56933 7.7217 2.64035 7.7545C2.71137 7.7873 2.7891 7.80298 2.86728 7.80028H4.79228L3.88728 11.1703C3.85763 11.279 3.86554 11.3944 3.90973 11.4981C3.95393 11.6017 4.03181 11.6873 4.13076 11.7411C4.22972 11.795 4.34394 11.8138 4.45493 11.7946C4.56593 11.7754 4.66718 11.7192 4.74228 11.6353L10.1923 5.63528C10.2572 5.56422 10.3002 5.47595 10.3162 5.38105C10.3321 5.28615 10.3204 5.18866 10.2823 5.10028ZM5.38728 9.44028L5.92728 7.44028C5.94984 7.36504 5.95435 7.28554 5.94045 7.20822C5.92656 7.13091 5.89464 7.05796 5.84728 6.99528C5.79968 6.93342 5.73826 6.88357 5.66793 6.8497C5.5976 6.81584 5.52032 6.79892 5.44228 6.80028H3.52228L4.59228 2.80028H7.05728L6.42228 5.17028C6.4019 5.24581 6.39952 5.32507 6.41533 5.40168C6.43115 5.4783 6.46473 5.55013 6.51336 5.61141C6.56199 5.67269 6.62433 5.7217 6.69535 5.7545C6.76637 5.7873 6.8441 5.80298 6.92228 5.80028H8.70728L5.38728 9.44028Z" fill="white"/>
</svg>
