<svg width="13" height="13" viewBox="0 0 13 13" fill="none" xmlns="http://www.w3.org/2000/svg">
<g clip-path="url(#clip0_10_55526)">
<path d="M9.74572 4.84019C9.71592 4.77167 9.66752 4.71288 9.60602 4.67046C9.54451 4.62804 9.47235 4.6037 9.39772 4.60019H7.56572L8.07372 2.70419C8.0899 2.64486 8.09218 2.58259 8.08039 2.52224C8.0686 2.46188 8.04305 2.40506 8.00572 2.35619C7.96805 2.30724 7.91955 2.26769 7.86403 2.24062C7.80852 2.21356 7.74749 2.19972 7.68572 2.20019H4.88572C4.79542 2.19709 4.70673 2.22467 4.63409 2.27841C4.56146 2.33216 4.50916 2.40892 4.48572 2.49619L3.41372 6.49619C3.39741 6.55661 3.39551 6.62001 3.40817 6.68131C3.42082 6.7426 3.44768 6.80007 3.48659 6.84909C3.52549 6.89811 3.57536 6.93732 3.63218 6.96356C3.68899 6.9898 3.75118 7.00235 3.81372 7.00019H5.35372L4.62972 9.69619C4.606 9.78312 4.61233 9.87552 4.64768 9.95841C4.68304 10.0413 4.74534 10.1098 4.82451 10.1529C4.90367 10.1959 4.99505 10.211 5.08384 10.1956C5.17264 10.1802 5.25364 10.1353 5.31372 10.0682L9.67372 5.26819C9.72564 5.21134 9.76005 5.14072 9.77282 5.0648C9.78559 4.98888 9.77618 4.91089 9.74572 4.84019ZM5.82972 8.31219L6.26172 6.71219C6.27977 6.65199 6.28338 6.58839 6.27226 6.52654C6.26114 6.46469 6.23561 6.40633 6.19772 6.35619C6.15964 6.3067 6.1105 6.26681 6.05424 6.23972C5.99798 6.21264 5.93616 6.19909 5.87372 6.20019H4.33772L5.19372 3.00019H7.16572L6.65772 4.89619C6.64141 4.95661 6.63951 5.02001 6.65217 5.08131C6.66482 5.1426 6.69168 5.20007 6.73059 5.24909C6.76949 5.29811 6.81936 5.33732 6.87618 5.36356C6.93299 5.3898 6.99518 5.40235 7.05772 5.40019H8.48572L5.82972 8.31219Z" fill="#A1AEBF"/>
</g>
<defs>
<clipPath id="clip0_10_55526">
<rect width="9.6" height="9.6" fill="white" transform="translate(1.59998 1.39996)"/>
</clipPath>
</defs>
</svg>
