<svg width="13" height="13" viewBox="0 0 13 13" fill="none" xmlns="http://www.w3.org/2000/svg">
<path d="M10.8823 5.10028C10.845 5.01464 10.7845 4.94114 10.7077 4.88812C10.6308 4.8351 10.5406 4.80467 10.4473 4.80028H8.15729L8.79229 2.43028C8.81251 2.35612 8.81536 2.27829 8.80062 2.20285C8.78588 2.1274 8.75394 2.05638 8.70729 1.99528C8.6602 1.9341 8.59958 1.88466 8.53018 1.85083C8.46078 1.817 8.38449 1.7997 8.30729 1.80028H4.80729C4.69441 1.79641 4.58354 1.83088 4.49275 1.89807C4.40196 1.96525 4.33659 2.0612 4.30729 2.17028L2.96729 7.17028C2.9469 7.24581 2.94452 7.32507 2.96034 7.40168C2.97616 7.4783 3.00973 7.55013 3.05837 7.61141C3.107 7.67269 3.16933 7.7217 3.24036 7.7545C3.31138 7.7873 3.3891 7.80298 3.46729 7.80028H5.39229L4.48729 11.1703C4.45764 11.279 4.46555 11.3944 4.50974 11.4981C4.55393 11.6017 4.63181 11.6873 4.73077 11.7411C4.82972 11.795 4.94395 11.8138 5.05494 11.7946C5.16593 11.7754 5.26718 11.7192 5.34229 11.6353L10.7923 5.63528C10.8572 5.56422 10.9002 5.47595 10.9162 5.38105C10.9321 5.28615 10.9204 5.18866 10.8823 5.10028ZM5.98729 9.44028L6.52729 7.44028C6.54985 7.36504 6.55436 7.28554 6.54046 7.20822C6.52656 7.13091 6.49464 7.05796 6.44729 6.99528C6.39969 6.93342 6.33826 6.88357 6.26794 6.8497C6.19761 6.81584 6.12033 6.79892 6.04229 6.80028H4.12229L5.19229 2.80028H7.65729L7.02229 5.17028C7.0019 5.24581 6.99952 5.32507 7.01534 5.40168C7.03116 5.4783 7.06473 5.55013 7.11337 5.61141C7.162 5.67269 7.22433 5.7217 7.29536 5.7545C7.36638 5.7873 7.4441 5.80298 7.52229 5.80028H9.30729L5.98729 9.44028Z" fill="white"/>
</svg>
