<svg width="13" height="12" viewBox="0 0 13 12" fill="none" xmlns="http://www.w3.org/2000/svg">
<g clip-path="url(#clip0_10_55027)">
<path d="M10.4822 4.30026C10.4449 4.21462 10.3845 4.14113 10.3076 4.0881C10.2307 4.03508 10.1405 4.00465 10.0472 4.00026H7.7572L8.3922 1.63026C8.41243 1.5561 8.41528 1.47827 8.40054 1.40283C8.38579 1.32739 8.35386 1.25636 8.3072 1.19526C8.26011 1.13408 8.19949 1.08464 8.13009 1.05081C8.06069 1.01698 7.98441 0.999678 7.9072 1.00026H4.4072C4.29432 0.996396 4.18346 1.03086 4.09266 1.09805C4.00187 1.16523 3.9365 1.26118 3.9072 1.37026L2.5672 6.37026C2.54682 6.44579 2.54444 6.52505 2.56026 6.60166C2.57607 6.67828 2.60965 6.75011 2.65828 6.81139C2.70692 6.87267 2.76925 6.92168 2.84027 6.95448C2.91129 6.98729 2.98902 7.00297 3.0672 7.00026H4.9922L4.0872 10.3703C4.05755 10.4789 4.06546 10.5944 4.10965 10.698C4.15385 10.8017 4.23173 10.8873 4.33068 10.9411C4.42964 10.9949 4.54386 11.0138 4.65485 10.9946C4.76585 10.9753 4.8671 10.9192 4.9422 10.8353L10.3922 4.83526C10.4571 4.76421 10.5001 4.67593 10.5161 4.58103C10.532 4.48613 10.5203 4.38864 10.4822 4.30026ZM5.5872 8.64026L6.1272 6.64026C6.14976 6.56502 6.15427 6.48552 6.14038 6.4082C6.12648 6.33089 6.09456 6.25794 6.0472 6.19526C5.9996 6.1334 5.93818 6.08355 5.86785 6.04969C5.79752 6.01582 5.72025 5.9989 5.6422 6.00026H3.7222L4.7922 2.00026H7.2572L6.6222 4.37026C6.60182 4.44579 6.59944 4.52505 6.61526 4.60166C6.63107 4.67828 6.66465 4.75011 6.71328 4.81139C6.76192 4.87267 6.82425 4.92168 6.89527 4.95448C6.96629 4.98729 7.04402 5.00297 7.1222 5.00026H8.9072L5.5872 8.64026Z" fill="white"/>
</g>
<defs>
<clipPath id="clip0_10_55027">
<rect width="12" height="12" fill="white" transform="translate(0.299927 -3.05176e-05)"/>
</clipPath>
</defs>
</svg>
