<svg width="13" height="13" viewBox="0 0 13 13" fill="none" xmlns="http://www.w3.org/2000/svg">
<path d="M10.3203 7.09997C10.2103 7.09997 10.0953 7.06497 9.98527 7.03997C9.76251 6.99088 9.5436 6.92571 9.33027 6.84497C9.09831 6.76059 8.84334 6.76497 8.61442 6.85727C8.38551 6.94958 8.19881 7.12329 8.09027 7.34497L7.98027 7.56997C7.49327 7.29906 7.04576 6.96259 6.65027 6.56997C6.25765 6.17448 5.92118 5.72697 5.65027 5.23997L5.86027 5.09997C6.08195 4.99143 6.25566 4.80474 6.34797 4.57582C6.44027 4.3469 6.44466 4.09193 6.36027 3.85997C6.28088 3.64618 6.21574 3.42737 6.16527 3.20497C6.14027 3.09497 6.12027 2.97997 6.10527 2.86497C6.04455 2.51278 5.86008 2.19384 5.58508 1.96559C5.31008 1.73734 4.96262 1.61478 4.60527 1.61997H3.10527C2.88979 1.61795 2.6764 1.66238 2.47962 1.75024C2.28285 1.83809 2.10733 1.96732 1.96499 2.12911C1.82265 2.2909 1.71684 2.48147 1.65476 2.68783C1.59269 2.89419 1.57581 3.1115 1.60527 3.32497C1.87164 5.41966 2.82828 7.36591 4.3241 8.85629C5.81991 10.3467 7.76962 11.2962 9.86527 11.555H10.0553C10.424 11.5555 10.78 11.4202 11.0553 11.175C11.2135 11.0335 11.3398 10.8601 11.426 10.6661C11.5122 10.4722 11.5563 10.2622 11.5553 10.05V8.54997C11.5491 8.20266 11.4227 7.86825 11.1974 7.6038C10.9722 7.33936 10.6622 7.16128 10.3203 7.09997V7.09997ZM10.5703 10.1C10.5702 10.171 10.555 10.2411 10.5257 10.3058C10.4963 10.3704 10.4536 10.4281 10.4003 10.475C10.3446 10.5235 10.2793 10.5597 10.2086 10.5812C10.138 10.6028 10.0636 10.6091 9.99027 10.6C8.11772 10.3599 6.37839 9.50321 5.04663 8.16512C3.71487 6.82702 2.86648 5.08364 2.63527 3.20997C2.62731 3.13673 2.63429 3.06264 2.65577 2.99217C2.67726 2.9217 2.71281 2.85631 2.76027 2.79997C2.80713 2.74664 2.8648 2.70389 2.92946 2.67458C2.99412 2.64527 3.06428 2.63006 3.13527 2.62997H4.63527C4.75154 2.62738 4.86508 2.66541 4.95634 2.73751C5.0476 2.8096 5.11088 2.91126 5.13527 3.02497C5.15527 3.16164 5.18027 3.29664 5.21027 3.42997C5.26803 3.69354 5.3449 3.95256 5.44027 4.20497L4.74027 4.52997C4.68042 4.55743 4.62658 4.59644 4.58185 4.64477C4.53712 4.69309 4.50237 4.74978 4.47961 4.81157C4.45684 4.87336 4.44651 4.93904 4.44919 5.00483C4.45188 5.07063 4.46754 5.13524 4.49527 5.19497C5.21487 6.73635 6.45389 7.97537 7.99527 8.69497C8.117 8.74498 8.25354 8.74498 8.37527 8.69497C8.43763 8.67267 8.49493 8.6382 8.54386 8.59356C8.59278 8.54893 8.63235 8.49502 8.66027 8.43497L8.97027 7.73497C9.22875 7.82741 9.49256 7.90421 9.76027 7.96497C9.8936 7.99497 10.0286 8.01997 10.1653 8.03997C10.279 8.06437 10.3806 8.12764 10.4527 8.2189C10.5248 8.31016 10.5629 8.4237 10.5603 8.53997L10.5703 10.1Z" fill="#1A365D"/>
</svg>
