<svg width="12" height="13" viewBox="0 0 12 13" fill="none" xmlns="http://www.w3.org/2000/svg">
<path d="M10.1823 5.10043C10.145 5.01479 10.0845 4.9413 10.0076 4.88828C9.93076 4.83525 9.84057 4.80482 9.74728 4.80043H7.45728L8.09228 2.43043C8.1125 2.35627 8.11535 2.27844 8.10061 2.203C8.08587 2.12756 8.05393 2.05653 8.00728 1.99543C7.96018 1.93425 7.89956 1.88481 7.83017 1.85098C7.76077 1.81715 7.68448 1.79985 7.60728 1.80043H4.10728C3.99439 1.79657 3.88353 1.83103 3.79274 1.89822C3.70195 1.96541 3.63658 2.06135 3.60728 2.17043L2.26728 7.17043C2.24689 7.24596 2.24451 7.32522 2.26033 7.40184C2.27615 7.47845 2.30972 7.55028 2.35836 7.61156C2.40699 7.67284 2.46932 7.72185 2.54034 7.75465C2.61136 7.78746 2.68909 7.80314 2.76728 7.80043H4.69228L3.78728 11.1704C3.75762 11.2791 3.76554 11.3946 3.80973 11.4982C3.85392 11.6018 3.9318 11.6875 4.03076 11.7413C4.12971 11.7951 4.24394 11.8139 4.35493 11.7947C4.46592 11.7755 4.56717 11.7194 4.64228 11.6354L10.0923 5.63543C10.1572 5.56438 10.2002 5.4761 10.2161 5.3812C10.2321 5.2863 10.2203 5.18881 10.1823 5.10043ZM5.28728 9.44043L5.82728 7.44043C5.84983 7.36519 5.85435 7.28569 5.84045 7.20838C5.82655 7.13106 5.79463 7.05811 5.74728 6.99543C5.69967 6.93357 5.63825 6.88372 5.56792 6.84986C5.4976 6.816 5.42032 6.79907 5.34228 6.80043H3.42228L4.49228 2.80043H6.95728L6.32228 5.17043C6.30189 5.24596 6.29951 5.32522 6.31533 5.40183C6.33115 5.47845 6.36472 5.55028 6.41336 5.61156C6.46199 5.67284 6.52432 5.72185 6.59534 5.75465C6.66636 5.78746 6.74409 5.80314 6.82228 5.80043H8.60728L5.28728 9.44043Z" fill="white"/>
</svg>
