<svg width="13" height="13" viewBox="0 0 13 13" fill="none" xmlns="http://www.w3.org/2000/svg">
<path d="M9.91994 6.89996C9.80994 6.89996 9.69494 6.86496 9.58494 6.83996C9.36218 6.79087 9.14327 6.7257 8.92994 6.64496C8.69798 6.56057 8.44301 6.56496 8.2141 6.65726C7.98518 6.74957 7.79848 6.92328 7.68994 7.14496L7.57994 7.36996C7.09294 7.09905 6.64543 6.76257 6.24994 6.36996C5.85733 5.97447 5.52085 5.52696 5.24994 5.03996L5.45994 4.89996C5.68162 4.79142 5.85533 4.60472 5.94764 4.3758C6.03994 4.14688 6.04433 3.89191 5.95994 3.65996C5.88055 3.44617 5.81541 3.22736 5.76494 3.00496C5.73994 2.89496 5.71994 2.77996 5.70494 2.66496C5.64422 2.31277 5.45975 1.99383 5.18475 1.76558C4.90975 1.53733 4.56229 1.41476 4.20494 1.41996H2.70494C2.48946 1.41794 2.27607 1.46237 2.0793 1.55022C1.88253 1.63808 1.707 1.76731 1.56466 1.9291C1.42232 2.09089 1.31651 2.28146 1.25443 2.48782C1.19236 2.69418 1.17548 2.91149 1.20494 3.12496C1.47131 5.21965 2.42795 7.1659 3.92377 8.65628C5.41958 10.1467 7.36929 11.0962 9.46494 11.355H9.65494C10.0236 11.3555 10.3796 11.2202 10.6549 10.975C10.8131 10.8335 10.9395 10.66 11.0257 10.4661C11.1119 10.2722 11.1559 10.0622 11.1549 9.84996V8.34996C11.1488 8.00265 11.0223 7.66823 10.7971 7.40379C10.5719 7.13935 10.2618 6.96127 9.91994 6.89996V6.89996ZM10.1699 9.89996C10.1699 9.97095 10.1546 10.0411 10.1253 10.1058C10.096 10.1704 10.0533 10.2281 9.99994 10.275C9.94424 10.3235 9.87893 10.3597 9.80828 10.3812C9.73763 10.4027 9.66323 10.4091 9.58994 10.4C7.71739 10.1599 5.97806 9.3032 4.6463 7.9651C3.31454 6.62701 2.46615 4.88363 2.23494 3.00996C2.22698 2.93672 2.23396 2.86262 2.25544 2.79215C2.27693 2.72168 2.31248 2.6563 2.35994 2.59996C2.4068 2.54662 2.46447 2.50388 2.52913 2.47457C2.59379 2.44526 2.66395 2.43005 2.73494 2.42996H4.23494C4.35121 2.42737 4.46475 2.4654 4.55601 2.53749C4.64727 2.60959 4.71055 2.71124 4.73494 2.82496C4.75494 2.96163 4.77994 3.09663 4.80994 3.22996C4.8677 3.49353 4.94457 3.75255 5.03994 4.00496L4.33994 4.32996C4.28009 4.35742 4.22625 4.39643 4.18152 4.44476C4.13679 4.49308 4.10204 4.54977 4.07928 4.61156C4.05651 4.67335 4.04618 4.73902 4.04886 4.80482C4.05155 4.87061 4.06721 4.93523 4.09494 4.99496C4.81454 6.53634 6.05356 7.77536 7.59494 8.49496C7.71667 8.54497 7.85321 8.54497 7.97494 8.49496C8.0373 8.47265 8.0946 8.43819 8.14353 8.39355C8.19245 8.34892 8.23202 8.29501 8.25994 8.23496L8.56994 7.53496C8.82842 7.6274 9.09223 7.7042 9.35994 7.76496C9.49327 7.79496 9.62827 7.81996 9.76494 7.83996C9.87866 7.86435 9.98031 7.92763 10.0524 8.01889C10.1245 8.11015 10.1625 8.22369 10.1599 8.33996L10.1699 9.89996Z" fill="#065666"/>
</svg>
