<svg width="12" height="13" viewBox="0 0 12 13" fill="none" xmlns="http://www.w3.org/2000/svg">
<path d="M10.1824 4.90033C10.1451 4.81469 10.0846 4.74119 10.0078 4.68817C9.93088 4.63515 9.84069 4.60472 9.7474 4.60033H7.4574L8.0924 2.23033C8.11262 2.15617 8.11547 2.07834 8.10073 2.0029C8.08599 1.92745 8.05405 1.85642 8.0074 1.79533C7.96031 1.73415 7.89969 1.68471 7.83029 1.65088C7.76089 1.61705 7.6846 1.59974 7.6074 1.60033H4.1074C3.99452 1.59646 3.88365 1.63093 3.79286 1.69812C3.70207 1.7653 3.6367 1.86125 3.6074 1.97033L2.2674 6.97033C2.24701 7.04586 2.24463 7.12512 2.26045 7.20173C2.27627 7.27835 2.30984 7.35018 2.35848 7.41146C2.40711 7.47274 2.46944 7.52175 2.54047 7.55455C2.61149 7.58735 2.68921 7.60303 2.7674 7.60033H4.6924L3.7874 10.9703C3.75775 11.079 3.76566 11.1945 3.80985 11.2981C3.85404 11.4017 3.93192 11.4874 4.03088 11.5412C4.12983 11.595 4.24406 11.6138 4.35505 11.5946C4.46604 11.5754 4.56729 11.5193 4.6424 11.4353L10.0924 5.43533C10.1573 5.36427 10.2003 5.276 10.2163 5.1811C10.2322 5.0862 10.2205 4.98871 10.1824 4.90033ZM5.2874 9.24033L5.8274 7.24033C5.84996 7.16509 5.85447 7.08559 5.84057 7.00827C5.82667 6.93096 5.79475 6.85801 5.7474 6.79533C5.6998 6.73347 5.63837 6.68361 5.56805 6.64975C5.49772 6.61589 5.42044 6.59897 5.3424 6.60033H3.4224L4.4924 2.60033H6.9574L6.3224 4.97033C6.30201 5.04586 6.29963 5.12512 6.31545 5.20173C6.33127 5.27835 6.36484 5.35018 6.41348 5.41146C6.46211 5.47274 6.52444 5.52175 6.59546 5.55455C6.66649 5.58735 6.74421 5.60303 6.8224 5.60033H8.6074L5.2874 9.24033Z" fill="white"/>
</svg>
