<svg width="13" height="13" viewBox="0 0 13 13" fill="none" xmlns="http://www.w3.org/2000/svg">
<path d="M4.95017 4.44977C4.75017 4.24977 4.45017 4.24977 4.25017 4.44977C4.05017 4.64977 4.05017 4.94977 4.25017 5.14977L5.35017 6.29977L4.20017 7.44977C4.10017 7.54977 4.05017 7.64977 4.05017 7.79977C4.05017 8.09977 4.25017 8.29977 4.55017 8.29977C4.70017 8.29977 4.80017 8.24977 4.90017 8.14977L6.40017 6.64977C6.60017 6.44977 6.60017 6.14977 6.40017 5.94977L4.95017 4.44977ZM9.20017 5.94977L7.70017 4.44977C7.50017 4.24977 7.20017 4.24977 7.00017 4.44977C6.80017 4.64977 6.80017 4.94977 7.00017 5.14977L8.15017 6.29977L7.00017 7.44977C6.90017 7.54977 6.85017 7.64977 6.85017 7.79977C6.85017 8.09977 7.05017 8.29977 7.35017 8.29977C7.50017 8.29977 7.60017 8.24977 7.70017 8.14977L9.20017 6.64977C9.35017 6.44977 9.35017 6.14977 9.20017 5.94977Z" fill="white"/>
</svg>
