<svg width="12" height="13" viewBox="0 0 12 13" fill="none" xmlns="http://www.w3.org/2000/svg">
<path d="M9.71993 6.90011C9.60993 6.90011 9.49493 6.86511 9.38493 6.84011C9.16217 6.79102 8.94326 6.72585 8.72993 6.64511C8.49797 6.56073 8.243 6.56511 8.01408 6.65741C7.78516 6.74972 7.59847 6.92343 7.48993 7.14511L7.37993 7.37011C6.89293 7.0992 6.44542 6.76273 6.04993 6.37011C5.65731 5.97462 5.32084 5.52711 5.04993 5.04011L5.25993 4.90011C5.48161 4.79157 5.65532 4.60488 5.74763 4.37596C5.83993 4.14704 5.84431 3.89207 5.75993 3.66011C5.68054 3.44632 5.6154 3.22751 5.56493 3.00511C5.53993 2.89511 5.51993 2.78011 5.50493 2.66511C5.44421 2.31292 5.25974 1.99398 4.98474 1.76573C4.70974 1.53748 4.36228 1.41492 4.00493 1.42011H2.50493C2.28944 1.41809 2.07605 1.46252 1.87928 1.55038C1.68251 1.63823 1.50698 1.76746 1.36464 1.92925C1.2223 2.09105 1.1165 2.28161 1.05442 2.48797C0.992349 2.69433 0.975468 2.91164 1.00493 3.12511C1.2713 5.2198 2.22794 7.16605 3.72375 8.65643C5.21957 10.1468 7.16928 11.0964 9.26493 11.3551H9.45493C9.82364 11.3557 10.1796 11.2204 10.4549 10.9751C10.6131 10.8336 10.7395 10.6602 10.8257 10.4663C10.9119 10.2723 10.9559 10.0623 10.9549 9.85011V8.35011C10.9488 8.0028 10.8223 7.66839 10.5971 7.40394C10.3719 7.1395 10.0618 6.96142 9.71993 6.90011V6.90011ZM9.96993 9.90011C9.96984 9.9711 9.95463 10.0413 9.92532 10.1059C9.89601 10.1706 9.85326 10.2283 9.79993 10.2751C9.74423 10.3236 9.67892 10.3598 9.60827 10.3814C9.53762 10.4029 9.46322 10.4093 9.38993 10.4001C7.51738 10.16 5.77805 9.30335 4.44629 7.96526C3.11453 6.62716 2.26613 4.88378 2.03493 3.01011C2.02697 2.93687 2.03394 2.86278 2.05543 2.79231C2.07691 2.72184 2.11246 2.65645 2.15993 2.60011C2.20678 2.54678 2.26446 2.50403 2.32912 2.47472C2.39378 2.44541 2.46394 2.4302 2.53493 2.43011H4.03493C4.1512 2.42752 4.26474 2.46555 4.356 2.53765C4.44726 2.60974 4.51053 2.7114 4.53493 2.82511C4.55493 2.96178 4.57993 3.09678 4.60993 3.23011C4.66769 3.49368 4.74456 3.7527 4.83993 4.00511L4.13993 4.33011C4.08008 4.35757 4.02624 4.39658 3.98151 4.44491C3.93677 4.49323 3.90203 4.54992 3.87926 4.61171C3.8565 4.6735 3.84616 4.73918 3.84885 4.80497C3.85154 4.87077 3.8672 4.93538 3.89493 4.99511C4.61453 6.53649 5.85355 7.77551 7.39493 8.49511C7.51666 8.54512 7.6532 8.54512 7.77493 8.49511C7.83728 8.47281 7.89459 8.43834 7.94351 8.3937C7.99244 8.34907 8.03201 8.29516 8.05993 8.23511L8.36993 7.53511C8.62841 7.62755 8.89222 7.70435 9.15993 7.76511C9.29326 7.79511 9.42826 7.82011 9.56493 7.84011C9.67864 7.86451 9.7803 7.92778 9.85239 8.01904C9.92449 8.1103 9.96252 8.22384 9.95993 8.34011L9.96993 9.90011Z" fill="#1A365D"/>
</svg>
