<svg width="13" height="13" viewBox="0 0 13 13" fill="none" xmlns="http://www.w3.org/2000/svg">
<path d="M9.94586 5.24027C9.91605 5.17176 9.86766 5.11296 9.80615 5.07054C9.74465 5.02813 9.67249 5.00378 9.59786 5.00027H7.76586L8.27386 3.10427C8.29004 3.04494 8.29232 2.98268 8.28052 2.92232C8.26873 2.86197 8.24318 2.80515 8.20586 2.75627C8.16818 2.70733 8.11969 2.66777 8.06417 2.64071C8.00865 2.61364 7.94762 2.5998 7.88586 2.60027H5.08586C4.99555 2.59718 4.90686 2.62475 4.83423 2.6785C4.76159 2.73225 4.7093 2.80901 4.68586 2.89627L3.61386 6.89627C3.59755 6.95669 3.59564 7.0201 3.6083 7.08139C3.62095 7.14268 3.64781 7.20015 3.68672 7.24917C3.72563 7.2982 3.77549 7.3374 3.83231 7.36365C3.88913 7.38989 3.95131 7.40243 4.01386 7.40027H5.55386L4.82986 10.0963C4.80614 10.1832 4.81247 10.2756 4.84782 10.3585C4.88317 10.4414 4.94548 10.5099 5.02464 10.553C5.1038 10.596 5.19519 10.6111 5.28398 10.5957C5.37277 10.5803 5.45377 10.5354 5.51386 10.4683L9.87386 5.66827C9.92577 5.61143 9.96018 5.5408 9.97295 5.46489C9.98572 5.38897 9.97632 5.31098 9.94586 5.24027ZM6.02986 8.71227L6.46186 7.11227C6.4799 7.05208 6.48351 6.98848 6.4724 6.92662C6.46128 6.86477 6.43574 6.80641 6.39786 6.75627C6.35978 6.70678 6.31064 6.6669 6.25438 6.63981C6.19811 6.61272 6.13629 6.59918 6.07386 6.60027H4.53786L5.39386 3.40027H7.36586L6.85786 5.29627C6.84155 5.35669 6.83964 5.4201 6.8523 5.48139C6.86495 5.54268 6.89181 5.60015 6.93072 5.64917C6.96963 5.6982 7.01949 5.7374 7.07631 5.76365C7.13313 5.78989 7.19531 5.80243 7.25786 5.80027H8.68586L6.02986 8.71227Z" fill="white"/>
</svg>
