<svg width="13" height="12" viewBox="0 0 13 12" fill="none" xmlns="http://www.w3.org/2000/svg">
<path d="M9.9458 5.2403C9.91599 5.17179 9.8676 5.11299 9.80609 5.07057C9.74459 5.02816 9.67243 5.00381 9.5978 5.0003H7.7658L8.2738 3.1043C8.28998 3.04497 8.29226 2.98271 8.28046 2.92236C8.26867 2.862 8.24312 2.80518 8.2058 2.7563C8.16812 2.70736 8.11963 2.6678 8.06411 2.64074C8.00859 2.61367 7.94756 2.59983 7.8858 2.6003H5.0858C4.99549 2.59721 4.9068 2.62478 4.83417 2.67853C4.76153 2.73228 4.70924 2.80904 4.6858 2.8963L3.6138 6.8963C3.59749 6.95672 3.59558 7.02013 3.60824 7.08142C3.62089 7.14271 3.64775 7.20018 3.68666 7.2492C3.72557 7.29823 3.77543 7.33743 3.83225 7.36368C3.88907 7.38992 3.95125 7.40246 4.0138 7.4003H5.5538L4.8298 10.0963C4.80608 10.1832 4.8124 10.2756 4.84776 10.3585C4.88311 10.4414 4.94542 10.5099 5.02458 10.553C5.10374 10.596 5.19513 10.6111 5.28392 10.5957C5.37271 10.5804 5.45371 10.5355 5.5138 10.4683L9.8738 5.6683C9.92571 5.61146 9.96012 5.54083 9.97289 5.46492C9.98566 5.389 9.97626 5.31101 9.9458 5.2403ZM6.0298 8.7123L6.4618 7.1123C6.47984 7.05211 6.48345 6.98851 6.47233 6.92665C6.46122 6.8648 6.43568 6.80644 6.3978 6.7563C6.35972 6.70681 6.31058 6.66693 6.25432 6.63984C6.19805 6.61275 6.13623 6.59921 6.0738 6.6003H4.5378L5.3938 3.4003H7.3658L6.8578 5.2963C6.84149 5.35672 6.83958 5.42013 6.85224 5.48142C6.86489 5.54271 6.89175 5.60018 6.93066 5.6492C6.96957 5.69823 7.01943 5.73743 7.07625 5.76368C7.13307 5.78992 7.19525 5.80246 7.2578 5.8003H8.6858L6.0298 8.7123Z" fill="#A1AEBF"/>
</svg>
