<svg width="13" height="13" viewBox="0 0 13 13" fill="none" xmlns="http://www.w3.org/2000/svg">
<path d="M10.3823 5.10033C10.345 5.01469 10.2845 4.94119 10.2077 4.88817C10.1308 4.83515 10.0406 4.80472 9.94729 4.80033H7.65729L8.29229 2.43033C8.31251 2.35616 8.31536 2.27834 8.30062 2.20289C8.28588 2.12745 8.25394 2.05642 8.20729 1.99533C8.1602 1.93415 8.09958 1.88471 8.03018 1.85087C7.96078 1.81704 7.88449 1.79974 7.80729 1.80033H4.30729C4.19441 1.79646 4.08354 1.83093 3.99275 1.89811C3.90196 1.9653 3.83659 2.06125 3.80729 2.17033L2.46729 7.17033C2.4469 7.24586 2.44452 7.32511 2.46034 7.40173C2.47616 7.47834 2.50973 7.55018 2.55837 7.61146C2.607 7.67273 2.66933 7.72174 2.74036 7.75455C2.81138 7.78735 2.8891 7.80303 2.96729 7.80033H4.89229L3.98729 11.1703C3.95764 11.279 3.96555 11.3945 4.00974 11.4981C4.05393 11.6017 4.13181 11.6874 4.23077 11.7412C4.32972 11.795 4.44395 11.8138 4.55494 11.7946C4.66593 11.7754 4.76718 11.7193 4.84229 11.6353L10.2923 5.63533C10.3572 5.56427 10.4002 5.47599 10.4162 5.38109C10.4321 5.2862 10.4204 5.18871 10.3823 5.10033ZM5.48729 9.44033L6.02729 7.44033C6.04985 7.36508 6.05436 7.28558 6.04046 7.20827C6.02656 7.13095 5.99464 7.058 5.94729 6.99533C5.89969 6.93347 5.83826 6.88361 5.76794 6.84975C5.69761 6.81589 5.62033 6.79896 5.54229 6.80033H3.62229L4.69229 2.80033H7.15729L6.52229 5.17033C6.5019 5.24586 6.49952 5.32511 6.51534 5.40173C6.53116 5.47834 6.56473 5.55018 6.61337 5.61145C6.662 5.67273 6.72433 5.72174 6.79536 5.75455C6.86638 5.78735 6.9441 5.80303 7.02229 5.80033H8.80729L5.48729 9.44033Z" fill="white"/>
</svg>
