<svg width="13" height="13" viewBox="0 0 13 13" fill="none" xmlns="http://www.w3.org/2000/svg">
<path d="M10.5822 5.10039C10.545 5.01475 10.4845 4.94125 10.4076 4.88823C10.3307 4.83521 10.2405 4.80478 10.1472 4.80039H7.85724L8.49224 2.43039C8.51246 2.35623 8.51532 2.2784 8.50057 2.20295C8.48583 2.12751 8.45389 2.05648 8.40724 1.99539C8.36015 1.93421 8.29953 1.88477 8.23013 1.85094C8.16073 1.8171 8.08444 1.7998 8.00724 1.80039H4.50724C4.39436 1.79652 4.28349 1.83099 4.1927 1.89817C4.10191 1.96536 4.03654 2.06131 4.00724 2.17039L2.66724 7.17039C2.64685 7.24592 2.64447 7.32517 2.66029 7.40179C2.67611 7.4784 2.70969 7.55024 2.75832 7.61152C2.80695 7.67279 2.86929 7.7218 2.94031 7.75461C3.01133 7.78741 3.08906 7.80309 3.16724 7.80039H5.09224L4.18724 11.1704C4.15759 11.2791 4.1655 11.3946 4.20969 11.4982C4.25388 11.6018 4.33177 11.6874 4.43072 11.7412C4.52967 11.7951 4.6439 11.8139 4.75489 11.7947C4.86588 11.7755 4.96713 11.7193 5.04224 11.6354L10.4922 5.63539C10.5571 5.56433 10.6001 5.47605 10.6161 5.38116C10.6321 5.28626 10.6203 5.18877 10.5822 5.10039ZM5.68724 9.44039L6.22724 7.44039C6.2498 7.36514 6.25431 7.28564 6.24041 7.20833C6.22651 7.13102 6.19459 7.05806 6.14724 6.99539C6.09964 6.93353 6.03822 6.88367 5.96789 6.84981C5.89756 6.81595 5.82028 6.79902 5.74224 6.80039H3.82224L4.89224 2.80039H7.35724L6.72224 5.17039C6.70185 5.24592 6.69947 5.32517 6.71529 5.40179C6.73111 5.4784 6.76469 5.55024 6.81332 5.61152C6.86195 5.67279 6.92428 5.7218 6.99531 5.75461C7.06633 5.78741 7.14405 5.80309 7.22224 5.80039H9.00724L5.68724 9.44039Z" fill="white"/>
</svg>
