<svg width="13" height="13" viewBox="0 0 13 13" fill="none" xmlns="http://www.w3.org/2000/svg">
<path d="M10.3823 5.10039C10.345 5.01475 10.2845 4.94125 10.2077 4.88823C10.1308 4.83521 10.0406 4.80478 9.94729 4.80039H7.65729L8.29229 2.43039C8.31251 2.35623 8.31536 2.2784 8.30062 2.20295C8.28588 2.12751 8.25394 2.05648 8.20729 1.99539C8.1602 1.93421 8.09958 1.88477 8.03018 1.85094C7.96078 1.8171 7.88449 1.7998 7.80729 1.80039H4.30729C4.19441 1.79652 4.08354 1.83099 3.99275 1.89817C3.90196 1.96536 3.83659 2.06131 3.80729 2.17039L2.46729 7.17039C2.4469 7.24592 2.44452 7.32517 2.46034 7.40179C2.47616 7.4784 2.50973 7.55024 2.55837 7.61152C2.607 7.67279 2.66933 7.7218 2.74036 7.75461C2.81138 7.78741 2.8891 7.80309 2.96729 7.80039H4.89229L3.98729 11.1704C3.95764 11.2791 3.96555 11.3946 4.00974 11.4982C4.05393 11.6018 4.13181 11.6874 4.23077 11.7412C4.32972 11.7951 4.44395 11.8139 4.55494 11.7947C4.66593 11.7755 4.76718 11.7193 4.84229 11.6354L10.2923 5.63539C10.3572 5.56433 10.4002 5.47605 10.4162 5.38116C10.4321 5.28626 10.4204 5.18877 10.3823 5.10039ZM5.48729 9.44039L6.02729 7.44039C6.04985 7.36514 6.05436 7.28564 6.04046 7.20833C6.02656 7.13102 5.99464 7.05806 5.94729 6.99539C5.89969 6.93353 5.83826 6.88367 5.76794 6.84981C5.69761 6.81595 5.62033 6.79902 5.54229 6.80039H3.62229L4.69229 2.80039H7.15729L6.52229 5.17039C6.5019 5.24592 6.49952 5.32517 6.51534 5.40179C6.53116 5.4784 6.56473 5.55024 6.61337 5.61152C6.662 5.67279 6.72433 5.7218 6.79536 5.75461C6.86638 5.78741 6.9441 5.80309 7.02229 5.80039H8.80729L5.48729 9.44039Z" fill="white"/>
</svg>
