<svg width="13" height="13" viewBox="0 0 13 13" fill="none" xmlns="http://www.w3.org/2000/svg">
<path d="M10.5823 5.10039C10.545 5.01475 10.4846 4.94125 10.4077 4.88823C10.3308 4.83521 10.2406 4.80478 10.1473 4.80039H7.8573L8.4923 2.43039C8.51252 2.35623 8.51538 2.2784 8.50063 2.20295C8.48589 2.12751 8.45395 2.05648 8.4073 1.99539C8.36021 1.93421 8.29959 1.88477 8.23019 1.85094C8.16079 1.8171 8.0845 1.7998 8.0073 1.80039H4.5073C4.39442 1.79652 4.28355 1.83099 4.19276 1.89817C4.10197 1.96536 4.0366 2.06131 4.0073 2.17039L2.6673 7.17039C2.64691 7.24592 2.64453 7.32517 2.66035 7.40179C2.67617 7.4784 2.70975 7.55024 2.75838 7.61152C2.80701 7.67279 2.86935 7.7218 2.94037 7.75461C3.01139 7.78741 3.08912 7.80309 3.1673 7.80039H5.0923L4.1873 11.1704C4.15765 11.2791 4.16556 11.3946 4.20975 11.4982C4.25394 11.6018 4.33183 11.6874 4.43078 11.7412C4.52973 11.7951 4.64396 11.8139 4.75495 11.7947C4.86594 11.7755 4.9672 11.7193 5.0423 11.6354L10.4923 5.63539C10.5572 5.56433 10.6002 5.47605 10.6162 5.38116C10.6321 5.28626 10.6204 5.18877 10.5823 5.10039ZM5.6873 9.44039L6.2273 7.44039C6.24986 7.36514 6.25437 7.28564 6.24047 7.20833C6.22657 7.13102 6.19465 7.05806 6.1473 6.99539C6.0997 6.93353 6.03828 6.88367 5.96795 6.84981C5.89762 6.81595 5.82034 6.79902 5.7423 6.80039H3.8223L4.8923 2.80039H7.3573L6.7223 5.17039C6.70191 5.24592 6.69953 5.32517 6.71535 5.40179C6.73117 5.4784 6.76475 5.55024 6.81338 5.61152C6.86201 5.67279 6.92435 5.7218 6.99537 5.75461C7.06639 5.78741 7.14412 5.80309 7.2223 5.80039H9.0073L5.6873 9.44039Z" fill="white"/>
</svg>
