<svg width="13" height="13" viewBox="0 0 13 13" fill="none" xmlns="http://www.w3.org/2000/svg">
<path d="M9.64611 4.93998C9.61631 4.87147 9.56791 4.81267 9.50641 4.77025C9.4449 4.72783 9.37275 4.70349 9.29811 4.69998H7.46611L7.97411 2.80398C7.99029 2.74465 7.99257 2.68239 7.98078 2.62203C7.96899 2.56168 7.94344 2.50485 7.90611 2.45598C7.86844 2.40704 7.81994 2.36748 7.76443 2.34042C7.70891 2.31335 7.64788 2.29951 7.58611 2.29998H4.78611C4.69581 2.29688 4.60712 2.32446 4.53448 2.37821C4.46185 2.43196 4.40955 2.50871 4.38611 2.59598L3.31411 6.59598C3.2978 6.6564 3.2959 6.71981 3.30856 6.7811C3.32121 6.84239 3.34807 6.89986 3.38698 6.94888C3.42588 6.9979 3.47575 7.03711 3.53257 7.06335C3.58938 7.0896 3.65157 7.10214 3.71411 7.09998H5.25411L4.53011 9.79598C4.50639 9.88291 4.51272 9.97531 4.54807 10.0582C4.58343 10.1411 4.64573 10.2096 4.7249 10.2527C4.80406 10.2957 4.89544 10.3108 4.98424 10.2954C5.07303 10.28 5.15403 10.2351 5.21411 10.168L9.57411 5.36798C9.62603 5.31113 9.66044 5.24051 9.67321 5.16459C9.68598 5.08867 9.67657 5.01068 9.64611 4.93998ZM5.73011 8.41198L6.16211 6.81198C6.18016 6.75178 6.18377 6.68818 6.17265 6.62633C6.16153 6.56448 6.136 6.50612 6.09811 6.45598C6.06003 6.40649 6.01089 6.36661 5.95463 6.33952C5.89837 6.31243 5.83655 6.29889 5.77411 6.29998H4.23811L5.09411 3.09998H7.06611L6.55811 4.99598C6.5418 5.0564 6.5399 5.11981 6.55256 5.1811C6.56521 5.24239 6.59207 5.29986 6.63098 5.34888C6.66988 5.3979 6.71975 5.43711 6.77657 5.46335C6.83338 5.4896 6.89557 5.50214 6.95811 5.49998H8.38611L5.73011 8.41198Z" fill="white"/>
</svg>
