<svg width="13" height="13" viewBox="0 0 13 13" fill="none" xmlns="http://www.w3.org/2000/svg">
<path d="M10.3822 4.50025C10.345 4.4146 10.2845 4.34111 10.2076 4.28809C10.1307 4.23506 10.0405 4.20463 9.94723 4.20024H7.65723L8.29223 1.83024C8.31245 1.75608 8.3153 1.67826 8.30056 1.60281C8.28582 1.52737 8.25388 1.45634 8.20723 1.39524C8.16013 1.33407 8.09951 1.28462 8.03012 1.25079C7.96072 1.21696 7.88443 1.19966 7.80723 1.20024H4.30723C4.19435 1.19638 4.08348 1.23084 3.99269 1.29803C3.9019 1.36522 3.83653 1.46116 3.80723 1.57024L2.46723 6.57024C2.44684 6.64577 2.44446 6.72503 2.46028 6.80165C2.4761 6.87826 2.50967 6.9501 2.55831 7.01137C2.60694 7.07265 2.66927 7.12166 2.74029 7.15446C2.81132 7.18727 2.88904 7.20295 2.96723 7.20025H4.89223L3.98723 10.5702C3.95758 10.6789 3.96549 10.7944 4.00968 10.898C4.05387 11.0016 4.13175 11.0873 4.23071 11.1411C4.32966 11.1949 4.44389 11.2137 4.55488 11.1945C4.66587 11.1753 4.76712 11.1192 4.84223 11.0352L10.2922 5.03524C10.3571 4.96419 10.4001 4.87591 10.4161 4.78101C10.4321 4.68611 10.4203 4.58862 10.3822 4.50025ZM5.48723 8.84025L6.02723 6.84024C6.04979 6.765 6.0543 6.6855 6.0404 6.60819C6.0265 6.53087 5.99458 6.45792 5.94723 6.39525C5.89963 6.33339 5.8382 6.28353 5.76788 6.24967C5.69755 6.21581 5.62027 6.19888 5.54223 6.20025H3.62223L4.69223 2.20024H7.15723L6.52223 4.57024C6.50184 4.64577 6.49946 4.72503 6.51528 4.80165C6.5311 4.87826 6.56467 4.9501 6.61331 5.01137C6.66194 5.07265 6.72427 5.12166 6.79529 5.15446C6.86632 5.18727 6.94404 5.20295 7.02223 5.20024H8.80723L5.48723 8.84025Z" fill="white"/>
</svg>
