<svg width="92" height="25" viewBox="0 0 92 25" fill="none" xmlns="http://www.w3.org/2000/svg">
<path d="M17.1644 0.800003L0.399994 14.6838H11.7197L7.19063 24.7858L24.1032 10.9945H12.3135L17.1644 0.800003Z" fill="#3182CE"/>
<path d="M17.1643 0.799957L9.5919 12.0091L20.8435 12.0091L7.19055 24.7857L24.1031 10.9944L12.3134 10.9944L17.1643 0.799957Z" fill="#2B6CB0"/>
<path d="M17.1644 0.800003L0.399994 14.6838H11.7197L7.19063 24.7858L14.3848 13.6692H3.74708L17.1644 0.800003Z" fill="#4299E1"/>
<path d="M64.4176 17.8041C63.6713 17.8041 62.9865 17.7387 62.3631 17.6078C61.7398 17.4682 61.1735 17.2849 60.6643 17.0581C60.1638 16.8225 59.7073 16.5564 59.2946 16.2597L60.3219 14.4797C61.0418 14.9858 61.7661 15.3566 62.4948 15.5922C63.2235 15.8191 63.9215 15.9325 64.5888 15.9325C64.8785 15.9325 65.1814 15.9063 65.4975 15.854C65.8135 15.7929 66.0769 15.6926 66.2876 15.5529C66.5071 15.4046 66.6169 15.2039 66.6169 14.9509C66.6169 14.8026 66.5642 14.6804 66.4588 14.5844C66.3623 14.4797 66.2262 14.3968 66.0506 14.3357C65.875 14.2747 65.6687 14.2267 65.4316 14.1918C65.2033 14.1481 64.9531 14.1176 64.681 14.1002C64.4176 14.074 64.1498 14.0478 63.8776 14.0216C63.263 13.9605 62.7055 13.8602 62.2051 13.7206C61.7047 13.581 61.2745 13.4021 60.9145 13.184C60.5633 12.9571 60.2911 12.6823 60.098 12.3594C59.9048 12.0366 59.8082 11.6657 59.8082 11.2469C59.8082 10.7757 59.9224 10.3569 60.1507 9.99046C60.3877 9.62399 60.7169 9.3186 61.1384 9.07428C61.5598 8.82124 62.0427 8.62928 62.587 8.4984C63.1401 8.36752 63.7328 8.30208 64.3649 8.30208C65.0234 8.30208 65.616 8.36316 66.1428 8.48531C66.6783 8.59874 67.148 8.7558 67.5519 8.95649C67.9645 9.15717 68.307 9.37531 68.5791 9.6109L67.4992 11.1553C67.2271 10.9546 66.911 10.7845 66.551 10.6449C66.1998 10.4965 65.8267 10.3831 65.4316 10.3046C65.0453 10.226 64.659 10.1868 64.2727 10.1868C63.8776 10.1868 63.522 10.2217 63.206 10.2915C62.8987 10.3526 62.6529 10.4485 62.4685 10.5794C62.2929 10.7016 62.2051 10.863 62.2051 11.0637C62.2051 11.2469 62.2797 11.3996 62.429 11.5218C62.587 11.6352 62.7889 11.7268 63.0348 11.7966C63.2806 11.8577 63.5528 11.9057 63.8513 11.9406C64.1498 11.9755 64.4395 12.0104 64.7205 12.0453C65.2472 12.0977 65.7652 12.1675 66.2745 12.2547C66.7837 12.3332 67.2402 12.4641 67.6441 12.6474C68.0567 12.8219 68.386 13.0749 68.6318 13.4065C68.8776 13.7293 69.0005 14.17 69.0005 14.7284C69.0005 15.3741 68.803 15.9281 68.4079 16.3906C68.0128 16.8443 67.4685 17.1933 66.7749 17.4376C66.0901 17.682 65.3043 17.8041 64.4176 17.8041Z" fill="#122743"/>
<path d="M83.8266 17.7796V15.7885H86.3025V10.4747H83.8266L83.7828 8.55508H91.0303V10.4747H88.5413V15.7885H91.0303V17.7796H83.8266Z" fill="#122743"/>
<path d="M27.4694 16.2759L27.4943 17.7796H36.7788L36.7539 15.7785H30.9574L36.609 10.059V8.55508H28.3685V10.6611H33.0287L27.4694 16.2759Z" fill="#122743"/>
<path d="M38.6445 17.7796V8.55508H46.915V10.4093H40.8175V12.1107H46.3223V13.9169H40.8175V15.8571H47.0466V17.7796H38.6445Z" fill="#122743"/>
<path d="M78.1353 17.7518C77.152 17.7518 76.296 17.5598 75.5673 17.1759C74.8386 16.792 74.2723 16.2641 73.8684 15.5922C73.4646 14.9203 73.2626 14.1002 73.2626 13.2363V8.55508H75.5278V13.2363C75.5278 16.4001 80.8087 16.4001 80.8087 13.2363V8.55508H82.9949V13.2363C82.9949 14.1002 82.7929 14.9203 82.3891 15.5922C81.9852 16.2641 81.4189 16.792 80.6902 17.1759C79.9615 17.5598 79.1099 17.7518 78.1353 17.7518Z" fill="#122743"/>
<path d="M48.6702 13.2363V8.55508H50.9353V13.2363C50.9353 16.5046 56.2163 16.5046 56.2163 13.2363V8.55508H58.4024V13.2363C58.4024 19.3306 48.6702 19.2898 48.6702 13.2363Z" fill="#122743"/>
</svg>
