<svg width="82" height="23" viewBox="0 0 82 23" fill="none" xmlns="http://www.w3.org/2000/svg">
<path d="M15.2397 0.600159L0.244873 13.0956H10.3697L6.31872 22.1874L21.4461 9.77519H10.9009L15.2397 0.600159Z" fill="#3182CE"/>
<path d="M15.2397 0.600189L8.4666 10.6884L18.5306 10.6884L6.31873 22.1874L21.4461 9.77522L10.9009 9.77522L15.2397 0.600189Z" fill="#2B6CB0"/>
<path d="M15.2397 0.600159L0.244873 13.0956H10.3697L6.31873 22.1874L12.7535 12.1824H3.23866L15.2397 0.600159Z" fill="#4299E1"/>
<path d="M57.5051 15.9039C56.8376 15.9039 56.2251 15.845 55.6675 15.7272C55.11 15.6016 54.6035 15.4367 54.148 15.2325C53.7004 15.0205 53.292 14.7809 52.9229 14.5139L53.8417 12.912C54.4857 13.3674 55.1335 13.7012 55.7853 13.9132C56.4371 14.1174 57.0614 14.2195 57.6583 14.2195C57.9174 14.2195 58.1883 14.1959 58.471 14.1488C58.7537 14.0938 58.9893 14.0035 59.1778 13.8779C59.3741 13.7444 59.4723 13.5637 59.4723 13.336C59.4723 13.2025 59.4252 13.0926 59.3309 13.0062C59.2445 12.912 59.1228 12.8373 58.9658 12.7824C58.8087 12.7274 58.6242 12.6842 58.4121 12.6528C58.208 12.6135 57.9841 12.5861 57.7407 12.5703C57.5051 12.5468 57.2656 12.5232 57.0222 12.4997C56.4725 12.4447 55.9738 12.3544 55.5262 12.2287C55.0786 12.1031 54.6938 11.9421 54.3718 11.7458C54.0577 11.5416 53.8142 11.2942 53.6415 11.0037C53.4687 10.7131 53.3823 10.3794 53.3823 10.0024C53.3823 9.57838 53.4844 9.20145 53.6886 8.87162C53.9006 8.5418 54.1951 8.26695 54.5721 8.04707C54.949 7.81933 55.3809 7.64657 55.8678 7.52877C56.3625 7.41098 56.8926 7.35208 57.458 7.35208C58.047 7.35208 58.577 7.40705 59.0482 7.51699C59.5272 7.61908 59.9474 7.76043 60.3086 7.94105C60.6777 8.12167 60.984 8.31799 61.2274 8.53002L60.2615 9.91999C60.0181 9.73937 59.7353 9.58624 59.4134 9.46059C59.0993 9.32709 58.7655 9.225 58.4121 9.15433C58.0666 9.08365 57.7211 9.04831 57.3755 9.04831C57.0222 9.04831 56.7041 9.07972 56.4214 9.14255C56.1466 9.19752 55.9267 9.2839 55.7618 9.40169C55.6047 9.51164 55.5262 9.65691 55.5262 9.83753C55.5262 10.0024 55.5929 10.1399 55.7264 10.2498C55.8678 10.3519 56.0484 10.4344 56.2683 10.4972C56.4882 10.5521 56.7316 10.5953 56.9986 10.6268C57.2656 10.6582 57.5248 10.6896 57.776 10.721C58.2472 10.7681 58.7105 10.8309 59.166 10.9095C59.6215 10.9801 60.0298 11.0979 60.3911 11.2628C60.7602 11.4199 61.0546 11.6476 61.2745 11.946C61.4944 12.2366 61.6043 12.6332 61.6043 13.1358C61.6043 13.7169 61.4277 14.2155 61.0743 14.6317C60.7209 15.0401 60.234 15.3542 59.6136 15.5741C59.0011 15.794 58.2983 15.9039 57.5051 15.9039Z" fill="#122743"/>
<path d="M74.8655 15.8818V14.0899H77.08V9.30746H74.8655L74.8262 7.57978H81.3088V9.30746H79.0825V14.0899H81.3088V15.8818H74.8655Z" fill="#122743"/>
<path d="M24.457 14.5285L24.4793 15.8818H32.7837L32.7615 14.0809H27.5768L32.6319 8.93331V7.57978H25.2612V9.47516H29.4295L24.457 14.5285Z" fill="#122743"/>
<path d="M34.4525 15.8818V7.57978H41.85V9.24856H36.3961V10.7799H41.3199V12.4054H36.3961V14.1516H41.9678V15.8818H34.4525Z" fill="#122743"/>
<path d="M69.7749 15.8568C68.8954 15.8568 68.1297 15.684 67.4779 15.3385C66.8261 14.993 66.3196 14.5179 65.9584 13.9132C65.5972 13.3085 65.4165 12.5703 65.4165 11.7929V7.57978H67.4426V11.7929C67.4426 14.6403 72.1661 14.6403 72.1661 11.7929V7.57978H74.1215V11.7929C74.1215 12.5703 73.9409 13.3085 73.5797 13.9132C73.2184 14.5179 72.7119 14.993 72.0601 15.3385C71.4083 15.684 70.6466 15.8568 69.7749 15.8568Z" fill="#122743"/>
<path d="M43.4199 11.7929V7.57978H45.446V11.7929C45.446 14.7344 50.1695 14.7344 50.1695 11.7929V7.57978H52.1249V11.7929C52.1249 17.2777 43.4199 17.241 43.4199 11.7929Z" fill="#122743"/>
</svg>
