<svg width="37" height="15" viewBox="0 0 37 15" fill="none" xmlns="http://www.w3.org/2000/svg">
<path d="M6.66148 0.399963L0.00012207 8.73025H4.49801L2.69839 14.7914L9.41861 6.51665H4.73397L6.66148 0.399963Z" fill="#00B5D8"/>
<path d="M6.66158 0.399963L3.65266 7.12544L8.12351 7.12544L2.69849 14.7914L9.41871 6.51665L4.73406 6.51665L6.66158 0.399963Z" fill="#00A3C4"/>
<path d="M6.66148 0.399963L0.00012207 8.73025H4.49801L2.69839 14.7914L5.55701 8.12146H1.33009L6.66148 0.399963Z" fill="#0BC5EA"/>
<path d="M25.4376 10.6025C25.1411 10.6025 24.869 10.5632 24.6213 10.4847C24.3736 10.4009 24.1486 10.291 23.9462 10.1549C23.7474 10.0135 23.566 9.85382 23.402 9.67582L23.8102 8.60783C24.0962 8.91147 24.384 9.13397 24.6736 9.27532C24.9632 9.41144 25.2405 9.4795 25.5056 9.4795C25.6208 9.4795 25.7411 9.46379 25.8667 9.43238C25.9923 9.39573 26.097 9.33553 26.1807 9.25176C26.2679 9.16277 26.3115 9.04235 26.3115 8.89053C26.3115 8.80153 26.2906 8.72824 26.2487 8.67065C26.2103 8.60782 26.1563 8.55809 26.0865 8.52144C26.0167 8.4848 25.9347 8.456 25.8405 8.43506C25.7498 8.40888 25.6504 8.39056 25.5423 8.38009C25.4376 8.36438 25.3312 8.34868 25.2231 8.33297C24.9789 8.29633 24.7573 8.23612 24.5585 8.15236C24.3596 8.06859 24.1887 7.96127 24.0457 7.83039C23.9061 7.69427 23.798 7.52936 23.7212 7.33565C23.6445 7.14195 23.6061 6.91945 23.6061 6.66815C23.6061 6.38545 23.6514 6.13415 23.7421 5.91427C23.8363 5.69439 23.9672 5.51116 24.1346 5.36457C24.3021 5.21274 24.4939 5.09757 24.7102 5.01904C24.93 4.94051 25.1655 4.90125 25.4167 4.90125C25.6783 4.90125 25.9138 4.93789 26.1231 5.01119C26.3359 5.07924 26.5226 5.17348 26.683 5.29389C26.847 5.4143 26.9831 5.54518 27.0912 5.68654L26.6621 6.61318C26.554 6.49277 26.4284 6.39068 26.2853 6.30692C26.1458 6.21792 25.9975 6.14986 25.8405 6.10274C25.687 6.05562 25.5335 6.03207 25.38 6.03207C25.2231 6.03207 25.0818 6.05301 24.9562 6.09489C24.8341 6.13154 24.7364 6.18912 24.6631 6.26765C24.5934 6.34095 24.5585 6.4378 24.5585 6.55821C24.5585 6.66815 24.5881 6.75977 24.6474 6.83306C24.7102 6.90112 24.7905 6.95609 24.8882 6.99798C24.9858 7.03462 25.094 7.06342 25.2126 7.08436C25.3312 7.1053 25.4463 7.12624 25.558 7.14718C25.7673 7.17859 25.9731 7.22047 26.1754 7.27283C26.3778 7.31995 26.5592 7.39847 26.7197 7.50842C26.8836 7.61312 27.0145 7.76494 27.1121 7.96389C27.2098 8.15759 27.2587 8.42197 27.2587 8.75703C27.2587 9.14444 27.1802 9.47688 27.0232 9.75435C26.8662 10.0266 26.6499 10.236 26.3743 10.3826C26.1022 10.5292 25.79 10.6025 25.4376 10.6025Z" fill="url(#paint0_linear_10_25766)"/>
<path d="M33.1498 10.5877V9.39312H34.1336V6.20483H33.1498L33.1324 5.05304H36.0122V6.20483H35.0232V9.39312H36.0122V10.5877H33.1498Z" fill="url(#paint1_linear_10_25766)"/>
<path d="M10.7562 9.68554L10.7661 10.5877H14.4553L14.4454 9.38713H12.1422L14.3879 5.9554V5.05304H11.1135V6.31663H12.9652L10.7562 9.68554Z" fill="url(#paint2_linear_10_25766)"/>
<path d="M15.1967 10.5877V5.05304H18.4829V6.16557H16.0601V7.18645H18.2474V8.27015H16.0601V9.43424H18.5353V10.5877H15.1967Z" fill="url(#paint3_linear_10_25766)"/>
<path d="M30.8884 10.5711C30.4977 10.5711 30.1575 10.4559 29.868 10.2255C29.5784 9.99517 29.3534 9.67844 29.1929 9.27532C29.0324 8.87221 28.9522 8.38009 28.9522 7.8618V5.05304H29.8523V7.8618C29.8523 9.76003 31.9507 9.76003 31.9507 7.8618V5.05304H32.8193V7.8618C32.8193 8.38009 32.7391 8.87221 32.5786 9.27532C32.4181 9.67844 32.1931 9.99517 31.9036 10.2255C31.614 10.4559 31.2756 10.5711 30.8884 10.5711Z" fill="url(#paint4_linear_10_25766)"/>
<path d="M19.1804 7.8618V5.05304H20.0804V7.8618C20.0804 9.82276 22.1788 9.82276 22.1788 7.8618V5.05304H23.0475V7.8618C23.0475 11.5184 19.1804 11.4939 19.1804 7.8618Z" fill="url(#paint5_linear_10_25766)"/>
<defs>
<linearGradient id="paint0_linear_10_25766" x1="48.4866" y1="7.58725" x2="3.26688" y2="7.58725" gradientUnits="userSpaceOnUse">
<stop stop-color="#0C3C46"/>
<stop offset="1" stop-color="#124B56"/>
</linearGradient>
<linearGradient id="paint1_linear_10_25766" x1="48.4866" y1="7.58725" x2="3.26688" y2="7.58725" gradientUnits="userSpaceOnUse">
<stop stop-color="#0C3C46"/>
<stop offset="1" stop-color="#124B56"/>
</linearGradient>
<linearGradient id="paint2_linear_10_25766" x1="48.4866" y1="7.58725" x2="3.26688" y2="7.58725" gradientUnits="userSpaceOnUse">
<stop stop-color="#0C3C46"/>
<stop offset="1" stop-color="#124B56"/>
</linearGradient>
<linearGradient id="paint3_linear_10_25766" x1="48.4866" y1="7.58725" x2="3.26688" y2="7.58725" gradientUnits="userSpaceOnUse">
<stop stop-color="#0C3C46"/>
<stop offset="1" stop-color="#124B56"/>
</linearGradient>
<linearGradient id="paint4_linear_10_25766" x1="48.4866" y1="7.58725" x2="3.26688" y2="7.58725" gradientUnits="userSpaceOnUse">
<stop stop-color="#0C3C46"/>
<stop offset="1" stop-color="#124B56"/>
</linearGradient>
<linearGradient id="paint5_linear_10_25766" x1="48.4866" y1="7.58725" x2="3.26688" y2="7.58725" gradientUnits="userSpaceOnUse">
<stop stop-color="#0C3C46"/>
<stop offset="1" stop-color="#124B56"/>
</linearGradient>
</defs>
</svg>
