<svg width="37" height="15" viewBox="0 0 37 15" fill="none" xmlns="http://www.w3.org/2000/svg">
<path d="M6.66148 0.399963L0.00012207 8.73025H4.49801L2.69839 14.7914L9.41861 6.51665H4.73397L6.66148 0.399963Z" fill="#00B5D8"/>
<path d="M6.66146 0.399963L3.65254 7.12544L8.12339 7.12544L2.69836 14.7914L9.41858 6.51665L4.73394 6.51665L6.66146 0.399963Z" fill="#00A3C4"/>
<path d="M6.66148 0.399963L0.00012207 8.73025H4.49801L2.69839 14.7914L5.55701 8.12146H1.33009L6.66148 0.399963Z" fill="#0BC5EA"/>
<path d="M25.4375 10.6025C25.141 10.6025 24.8688 10.5632 24.6212 10.4847C24.3735 10.4009 24.1484 10.291 23.9461 10.1549C23.7473 10.0135 23.5658 9.85382 23.4019 9.67582L23.8101 8.60783C24.0961 8.91147 24.3839 9.13397 24.6735 9.27532C24.963 9.41144 25.2404 9.4795 25.5055 9.4795C25.6206 9.4795 25.741 9.46379 25.8666 9.43238C25.9922 9.39573 26.0968 9.33553 26.1806 9.25176C26.2678 9.16277 26.3114 9.04235 26.3114 8.89053C26.3114 8.80153 26.2904 8.72824 26.2486 8.67065C26.2102 8.60782 26.1561 8.55809 26.0864 8.52144C26.0166 8.4848 25.9346 8.456 25.8404 8.43506C25.7497 8.40888 25.6503 8.39056 25.5421 8.38009C25.4375 8.36438 25.3311 8.34868 25.2229 8.33297C24.9787 8.29633 24.7572 8.23612 24.5584 8.15236C24.3595 8.06859 24.1886 7.96127 24.0455 7.83039C23.906 7.69427 23.7978 7.52936 23.7211 7.33565C23.6443 7.14195 23.606 6.91945 23.606 6.66815C23.606 6.38545 23.6513 6.13415 23.742 5.91427C23.8362 5.69439 23.967 5.51116 24.1345 5.36457C24.3019 5.21274 24.4938 5.09757 24.7101 5.01904C24.9299 4.94051 25.1654 4.90125 25.4166 4.90125C25.6782 4.90125 25.9137 4.93789 26.123 5.01119C26.3358 5.07924 26.5224 5.17348 26.6829 5.29389C26.8469 5.4143 26.9829 5.54518 27.0911 5.68654L26.662 6.61318C26.5538 6.49277 26.4282 6.39068 26.2852 6.30692C26.1457 6.21792 25.9974 6.14986 25.8404 6.10274C25.6869 6.05562 25.5334 6.03207 25.3799 6.03207C25.2229 6.03207 25.0816 6.05301 24.9561 6.09489C24.834 6.13154 24.7363 6.18912 24.663 6.26765C24.5932 6.34095 24.5584 6.4378 24.5584 6.55821C24.5584 6.66815 24.588 6.75977 24.6473 6.83306C24.7101 6.90112 24.7903 6.95609 24.888 6.99798C24.9857 7.03462 25.0939 7.06342 25.2125 7.08436C25.3311 7.1053 25.4462 7.12624 25.5578 7.14718C25.7672 7.17859 25.973 7.22047 26.1753 7.27283C26.3777 7.31995 26.5591 7.39847 26.7195 7.50842C26.8835 7.61312 27.0143 7.76494 27.112 7.96389C27.2097 8.15759 27.2585 8.42197 27.2585 8.75703C27.2585 9.14444 27.18 9.47688 27.0231 9.75435C26.8661 10.0266 26.6498 10.236 26.3742 10.3826C26.1021 10.5292 25.7898 10.6025 25.4375 10.6025Z" fill="url(#paint0_linear_10_25778)"/>
<path d="M33.1497 10.5877V9.39312H34.1335V6.20483H33.1497L33.1323 5.05304H36.0121V6.20483H35.0231V9.39312H36.0121V10.5877H33.1497Z" fill="url(#paint1_linear_10_25778)"/>
<path d="M10.7561 9.68554L10.766 10.5877H14.4552L14.4453 9.38713H12.142L14.3877 5.9554V5.05304H11.1134V6.31663H12.9651L10.7561 9.68554Z" fill="url(#paint2_linear_10_25778)"/>
<path d="M15.1965 10.5877V5.05304H18.4828V6.16557H16.06V7.18645H18.2473V8.27015H16.06V9.43424H18.5351V10.5877H15.1965Z" fill="url(#paint3_linear_10_25778)"/>
<path d="M30.8883 10.5711C30.4975 10.5711 30.1574 10.4559 29.8678 10.2255C29.5783 9.99517 29.3533 9.67844 29.1928 9.27532C29.0323 8.87221 28.9521 8.38009 28.9521 7.8618V5.05304H29.8521V7.8618C29.8521 9.76003 31.9505 9.76003 31.9505 7.8618V5.05304H32.8192V7.8618C32.8192 8.38009 32.739 8.87221 32.5785 9.27532C32.418 9.67844 32.193 9.99517 31.9034 10.2255C31.6139 10.4559 31.2755 10.5711 30.8883 10.5711Z" fill="url(#paint4_linear_10_25778)"/>
<path d="M19.1802 7.8618V5.05304H20.0803V7.8618C20.0803 9.82276 22.1787 9.82276 22.1787 7.8618V5.05304H23.0474V7.8618C23.0474 11.5184 19.1802 11.4939 19.1802 7.8618Z" fill="url(#paint5_linear_10_25778)"/>
<defs>
<linearGradient id="paint0_linear_10_25778" x1="48.4865" y1="7.58725" x2="3.26676" y2="7.58725" gradientUnits="userSpaceOnUse">
<stop stop-color="#0C3C46"/>
<stop offset="1" stop-color="#124B56"/>
</linearGradient>
<linearGradient id="paint1_linear_10_25778" x1="48.4865" y1="7.58725" x2="3.26676" y2="7.58725" gradientUnits="userSpaceOnUse">
<stop stop-color="#0C3C46"/>
<stop offset="1" stop-color="#124B56"/>
</linearGradient>
<linearGradient id="paint2_linear_10_25778" x1="48.4865" y1="7.58725" x2="3.26676" y2="7.58725" gradientUnits="userSpaceOnUse">
<stop stop-color="#0C3C46"/>
<stop offset="1" stop-color="#124B56"/>
</linearGradient>
<linearGradient id="paint3_linear_10_25778" x1="48.4865" y1="7.58725" x2="3.26676" y2="7.58725" gradientUnits="userSpaceOnUse">
<stop stop-color="#0C3C46"/>
<stop offset="1" stop-color="#124B56"/>
</linearGradient>
<linearGradient id="paint4_linear_10_25778" x1="48.4865" y1="7.58725" x2="3.26676" y2="7.58725" gradientUnits="userSpaceOnUse">
<stop stop-color="#0C3C46"/>
<stop offset="1" stop-color="#124B56"/>
</linearGradient>
<linearGradient id="paint5_linear_10_25778" x1="48.4865" y1="7.58725" x2="3.26676" y2="7.58725" gradientUnits="userSpaceOnUse">
<stop stop-color="#0C3C46"/>
<stop offset="1" stop-color="#124B56"/>
</linearGradient>
</defs>
</svg>
