<svg width="37" height="15" viewBox="0 0 37 15" fill="none" xmlns="http://www.w3.org/2000/svg">
<path d="M7.46153 0.399963L0.800171 8.73025H5.29806L3.49844 14.7914L10.2187 6.51665H5.53402L7.46153 0.399963Z" fill="#3182CE"/>
<path d="M7.46151 0.399963L4.45259 7.12544L8.92344 7.12544L3.49841 14.7914L10.2186 6.51665L5.53399 6.51665L7.46151 0.399963Z" fill="#2B6CB0"/>
<path d="M7.46153 0.399963L0.800171 8.73025H5.29806L3.49844 14.7914L6.35705 8.12146H2.13014L7.46153 0.399963Z" fill="#4299E1"/>
<path d="M26.2377 10.6025C25.9411 10.6025 25.669 10.5632 25.4213 10.4847C25.1736 10.4009 24.9486 10.291 24.7463 10.1549C24.5474 10.0135 24.366 9.85382 24.2021 9.67582L24.6102 8.60783C24.8963 8.91147 25.1841 9.13397 25.4737 9.27532C25.7632 9.41144 26.0406 9.4795 26.3057 9.4795C26.4208 9.4795 26.5412 9.46379 26.6668 9.43238C26.7923 9.39573 26.897 9.33553 26.9807 9.25176C27.0679 9.16277 27.1116 9.04235 27.1116 8.89053C27.1116 8.80153 27.0906 8.72824 27.0488 8.67065C27.0104 8.60782 26.9563 8.55809 26.8865 8.52144C26.8168 8.4848 26.7348 8.456 26.6406 8.43506C26.5499 8.40888 26.4505 8.39056 26.3423 8.38009C26.2377 8.36438 26.1313 8.34868 26.0231 8.33297C25.7789 8.29633 25.5574 8.23612 25.3585 8.15236C25.1597 8.06859 24.9887 7.96127 24.8457 7.83039C24.7062 7.69427 24.598 7.52936 24.5213 7.33565C24.4445 7.14195 24.4061 6.91945 24.4061 6.66815C24.4061 6.38545 24.4515 6.13415 24.5422 5.91427C24.6364 5.69439 24.7672 5.51116 24.9347 5.36457C25.1021 5.21274 25.294 5.09757 25.5103 5.01904C25.7301 4.94051 25.9655 4.90125 26.2167 4.90125C26.4784 4.90125 26.7139 4.93789 26.9232 5.01119C27.136 5.07924 27.3226 5.17348 27.4831 5.29389C27.6471 5.4143 27.7831 5.54518 27.8913 5.68654L27.4622 6.61318C27.354 6.49277 27.2284 6.39068 27.0854 6.30692C26.9458 6.21792 26.7976 6.14986 26.6406 6.10274C26.4871 6.05562 26.3336 6.03207 26.1801 6.03207C26.0231 6.03207 25.8818 6.05301 25.7562 6.09489C25.6341 6.13154 25.5364 6.18912 25.4632 6.26765C25.3934 6.34095 25.3585 6.4378 25.3585 6.55821C25.3585 6.66815 25.3882 6.75977 25.4475 6.83306C25.5103 6.90112 25.5905 6.95609 25.6882 6.99798C25.7859 7.03462 25.894 7.06342 26.0126 7.08436C26.1313 7.1053 26.2464 7.12624 26.358 7.14718C26.5673 7.17859 26.7732 7.22047 26.9755 7.27283C27.1778 7.31995 27.3592 7.39847 27.5197 7.50842C27.6837 7.61312 27.8145 7.76494 27.9122 7.96389C28.0099 8.15759 28.0587 8.42197 28.0587 8.75703C28.0587 9.14444 27.9802 9.47688 27.8232 9.75435C27.6662 10.0266 27.4499 10.236 27.1743 10.3826C26.9022 10.5292 26.59 10.6025 26.2377 10.6025Z" fill="#122743"/>
<path d="M33.9499 10.5877V9.39312H34.9337V6.20483H33.9499L33.9324 5.05304H36.8123V6.20483H35.8232V9.39312H36.8123V10.5877H33.9499Z" fill="#122743"/>
<path d="M11.5563 9.68554L11.5662 10.5877H15.2554L15.2455 9.38713H12.9422L15.1879 5.9554V5.05304H11.9135V6.31663H13.7653L11.5563 9.68554Z" fill="#122743"/>
<path d="M15.9967 10.5877V5.05304H19.283V6.16557H16.8601V7.18645H19.0475V8.27015H16.8601V9.43424H19.3353V10.5877H15.9967Z" fill="#122743"/>
<path d="M31.6884 10.5711C31.2977 10.5711 30.9576 10.4559 30.668 10.2255C30.3785 9.99517 30.1534 9.67844 29.993 9.27532C29.8325 8.87221 29.7522 8.38009 29.7522 7.8618V5.05304H30.6523V7.8618C30.6523 9.76003 32.7507 9.76003 32.7507 7.8618V5.05304H33.6194V7.8618C33.6194 8.38009 33.5391 8.87221 33.3787 9.27532C33.2182 9.67844 32.9932 9.99517 32.7036 10.2255C32.4141 10.4559 32.0757 10.5711 31.6884 10.5711Z" fill="#122743"/>
<path d="M19.9804 7.8618V5.05304H20.8805V7.8618C20.8805 9.82276 22.9789 9.82276 22.9789 7.8618V5.05304H23.8475V7.8618C23.8475 11.5184 19.9804 11.4939 19.9804 7.8618Z" fill="#122743"/>
</svg>
