<svg width="52" height="15" viewBox="0 0 52 15" fill="none" xmlns="http://www.w3.org/2000/svg">
<path d="M9.47406 0.399963L0.00012207 8.73025H6.39712L3.83766 14.7914L13.3953 6.51665H6.7327L9.47406 0.399963Z" fill="#3182CE"/>
<path d="M9.47393 0.399963L5.19458 7.12544L11.5531 7.12544L3.83752 14.7914L13.3952 6.51665L6.73257 6.51665L9.47393 0.399963Z" fill="#2B6CB0"/>
<path d="M9.47406 0.399963L0.00012207 8.73025H6.39712L3.83766 14.7914L7.90324 8.12146H1.89163L9.47406 0.399963Z" fill="#4299E1"/>
<path d="M36.1778 10.6025C35.7561 10.6025 35.3691 10.5632 35.0168 10.4847C34.6645 10.4009 34.3445 10.291 34.0567 10.1549C33.7739 10.0135 33.5159 9.85382 33.2827 9.67582L33.8632 8.60783C34.2701 8.91147 34.6794 9.13397 35.0912 9.27532C35.503 9.41144 35.8975 9.4795 36.2745 9.4795C36.4383 9.4795 36.6095 9.46379 36.7881 9.43238C36.9667 9.39573 37.1155 9.33553 37.2346 9.25176C37.3587 9.16277 37.4207 9.04235 37.4207 8.89053C37.4207 8.80153 37.3909 8.72824 37.3314 8.67065C37.2768 8.60782 37.1999 8.55809 37.1007 8.52144C37.0014 8.4848 36.8848 8.456 36.7509 8.43506C36.6219 8.40888 36.4805 8.39056 36.3266 8.38009C36.1778 8.36438 36.0265 8.34868 35.8727 8.33297C35.5254 8.29633 35.2103 8.23612 34.9275 8.15236C34.6447 8.06859 34.4016 7.96127 34.1981 7.83039C33.9997 7.69427 33.8459 7.52936 33.7367 7.33565C33.6275 7.14195 33.573 6.91945 33.573 6.66815C33.573 6.38545 33.6375 6.13415 33.7665 5.91427C33.9004 5.69439 34.0865 5.51116 34.3246 5.36457C34.5628 5.21274 34.8357 5.09757 35.1433 5.01904C35.4559 4.94051 35.7908 4.90125 36.148 4.90125C36.5201 4.90125 36.8551 4.93789 37.1527 5.01119C37.4554 5.07924 37.7208 5.17348 37.9491 5.29389C38.1823 5.4143 38.3758 5.54518 38.5296 5.68654L37.9193 6.61318C37.7655 6.49277 37.5869 6.39068 37.3835 6.30692C37.185 6.21792 36.9741 6.14986 36.7509 6.10274C36.5325 6.05562 36.3142 6.03207 36.0959 6.03207C35.8727 6.03207 35.6717 6.05301 35.4931 6.09489C35.3194 6.13154 35.1805 6.18912 35.0763 6.26765C34.9771 6.34095 34.9275 6.4378 34.9275 6.55821C34.9275 6.66815 34.9697 6.75977 35.054 6.83306C35.1433 6.90112 35.2574 6.95609 35.3963 6.99798C35.5353 7.03462 35.6891 7.06342 35.8578 7.08436C36.0265 7.1053 36.1902 7.12624 36.349 7.14718C36.6467 7.17859 36.9394 7.22047 37.2272 7.27283C37.5149 7.31995 37.7729 7.39847 38.0012 7.50842C38.2344 7.61312 38.4204 7.76494 38.5594 7.96389C38.6983 8.15759 38.7677 8.42197 38.7677 8.75703C38.7677 9.14444 38.6561 9.47688 38.4328 9.75435C38.2096 10.0266 37.9019 10.236 37.51 10.3826C37.123 10.5292 36.6789 10.6025 36.1778 10.6025Z" fill="#122743"/>
<path d="M47.1463 10.5877V9.39312H48.5454V6.20483H47.1463L47.1215 5.05304H51.2172V6.20483H49.8106V9.39312H51.2172V10.5877H47.1463Z" fill="#122743"/>
<path d="M15.2976 9.68554L15.3117 10.5877H20.5585L20.5445 9.38713H17.2687L20.4626 5.9554V5.05304H15.8057V6.31663H18.4393L15.2976 9.68554Z" fill="#122743"/>
<path d="M21.6129 10.5877V5.05304H26.2867V6.16557H22.8409V7.18645H25.9518V8.27015H22.8409V9.43424H26.3611V10.5877H21.6129Z" fill="#122743"/>
<path d="M43.93 10.5711C43.3743 10.5711 42.8906 10.4559 42.4787 10.2255C42.0669 9.99517 41.7469 9.67844 41.5187 9.27532C41.2904 8.87221 41.1763 8.38009 41.1763 7.8618V5.05304H42.4564V7.8618C42.4564 9.76003 45.4408 9.76003 45.4408 7.8618V5.05304H46.6762V7.8618C46.6762 8.38009 46.5621 8.87221 46.3339 9.27532C46.1057 9.67844 45.7856 9.99517 45.3738 10.2255C44.962 10.4559 44.4807 10.5711 43.93 10.5711Z" fill="#122743"/>
<path d="M27.2786 7.8618V5.05304H28.5587V7.8618C28.5587 9.82276 31.5431 9.82276 31.5431 7.8618V5.05304H32.7785V7.8618C32.7785 11.5184 27.2786 11.4939 27.2786 7.8618Z" fill="#122743"/>
</svg>
