<svg width="501" height="46" viewBox="0 0 501 46" fill="none" xmlns="http://www.w3.org/2000/svg">
<mask id="path-1-inside-1_10_54980" fill="white">
<path d="M0 0H500.4V45.6H0V0Z"/>
</mask>
<path d="M0 0H500.4V45.6H0V0Z" fill="white"/>
<path d="M31.125 22.2H21.675C21.496 22.2 21.3243 22.2632 21.1977 22.3758C21.0711 22.4883 21 22.6409 21 22.8C21 22.9591 21.0711 23.1118 21.1977 23.2243C21.3243 23.3368 21.496 23.4 21.675 23.4H31.125C31.304 23.4 31.4757 23.3368 31.6023 23.2243C31.7289 23.1118 31.8 22.9591 31.8 22.8C31.8 22.6409 31.7289 22.4883 31.6023 22.3758C31.4757 22.2632 31.304 22.2 31.125 22.2Z" fill="black"/>
<path d="M31.125 25.2H21.675C21.496 25.2 21.3243 25.2632 21.1977 25.3758C21.0711 25.4883 21 25.6409 21 25.8C21 25.9591 21.0711 26.1118 21.1977 26.2243C21.3243 26.3368 21.496 26.4 21.675 26.4H31.125C31.304 26.4 31.4757 26.3368 31.6023 26.2243C31.7289 26.1118 31.8 25.9591 31.8 25.8C31.8 25.6409 31.7289 25.4883 31.6023 25.3758C31.4757 25.2632 31.304 25.2 31.125 25.2Z" fill="black"/>
<path d="M31.125 19.2H21.675C21.496 19.2 21.3243 19.2632 21.1977 19.3758C21.0711 19.4883 21 19.6409 21 19.8C21 19.9591 21.0711 20.1118 21.1977 20.2243C21.3243 20.3368 21.496 20.4 21.675 20.4H31.125C31.304 20.4 31.4757 20.3368 31.6023 20.2243C31.7289 20.1118 31.8 19.9591 31.8 19.8C31.8 19.6409 31.7289 19.4883 31.6023 19.3758C31.4757 19.2632 31.304 19.2 31.125 19.2Z" fill="black"/>
<path d="M221.964 10.8L205.2 24.6838H216.52L211.991 34.7858L228.903 20.9945H217.113L221.964 10.8Z" fill="#3182CE"/>
<path d="M221.964 10.8L214.392 22.0091H225.644L211.991 34.7857L228.903 20.9944H217.113L221.964 10.8Z" fill="#2B6CB0"/>
<path d="M221.964 10.8L205.2 24.6838H216.52L211.991 34.7858L219.185 23.6692H208.547L221.964 10.8Z" fill="#4299E1"/>
<path d="M269.218 27.8041C268.471 27.8041 267.786 27.7387 267.163 27.6078C266.54 27.4682 265.973 27.2849 265.464 27.0581C264.964 26.8225 264.507 26.5564 264.095 26.2597L265.122 24.4797C265.842 24.9858 266.566 25.3566 267.295 25.5922C268.024 25.8191 268.722 25.9325 269.389 25.9325C269.678 25.9325 269.981 25.9063 270.297 25.854C270.614 25.7929 270.877 25.6926 271.088 25.5529C271.307 25.4046 271.417 25.2039 271.417 24.9509C271.417 24.8026 271.364 24.6804 271.259 24.5844C271.162 24.4797 271.026 24.3968 270.851 24.3357C270.675 24.2747 270.469 24.2267 270.232 24.1918C270.003 24.1481 269.753 24.1176 269.481 24.1002C269.218 24.074 268.95 24.0478 268.678 24.0216C268.063 23.9605 267.506 23.8602 267.005 23.7206C266.505 23.581 266.074 23.4021 265.714 23.184C265.363 22.9571 265.091 22.6823 264.898 22.3594C264.705 22.0366 264.608 21.6657 264.608 21.2469C264.608 20.7757 264.722 20.3569 264.951 19.9905C265.188 19.624 265.517 19.3186 265.938 19.0743C266.36 18.8212 266.843 18.6293 267.387 18.4984C267.94 18.3675 268.533 18.3021 269.165 18.3021C269.823 18.3021 270.416 18.3632 270.943 18.4853C271.478 18.5987 271.948 18.7558 272.352 18.9565C272.765 19.1572 273.107 19.3753 273.379 19.6109L272.299 21.1553C272.027 20.9546 271.711 20.7845 271.351 20.6449C271 20.4965 270.627 20.3831 270.232 20.3046C269.845 20.226 269.459 20.1868 269.073 20.1868C268.678 20.1868 268.322 20.2217 268.006 20.2915C267.699 20.3526 267.453 20.4485 267.268 20.5794C267.093 20.7016 267.005 20.863 267.005 21.0637C267.005 21.2469 267.08 21.3996 267.229 21.5218C267.387 21.6352 267.589 21.7268 267.835 21.7966C268.081 21.8577 268.353 21.9057 268.651 21.9406C268.95 21.9755 269.24 22.0104 269.52 22.0453C270.047 22.0977 270.565 22.1675 271.074 22.2547C271.584 22.3332 272.04 22.4641 272.444 22.6474C272.857 22.8219 273.186 23.0749 273.432 23.4065C273.678 23.7293 273.801 24.17 273.801 24.7284C273.801 25.3741 273.603 25.9281 273.208 26.3906C272.813 26.8443 272.268 27.1933 271.575 27.4376C270.89 27.682 270.104 27.8041 269.218 27.8041Z" fill="#122743"/>
<path d="M288.627 27.7796V25.7885H291.102V20.4747H288.627L288.583 18.5551H295.83V20.4747H293.341V25.7885H295.83V27.7796H288.627Z" fill="#122743"/>
<path d="M232.269 26.2759L232.294 27.7796H241.579L241.554 25.7785H235.757L241.409 20.059V18.5551H233.169V20.6611H237.829L232.269 26.2759Z" fill="#122743"/>
<path d="M243.445 27.7796V18.5551H251.715V20.4093H245.617V22.1107H251.122V23.9169H245.617V25.8571H251.847V27.7796H243.445Z" fill="#122743"/>
<path d="M282.935 27.7518C281.952 27.7518 281.096 27.5598 280.367 27.1759C279.639 26.792 279.072 26.2641 278.668 25.5922C278.265 24.9203 278.063 24.1002 278.063 23.2363V18.5551H280.328V23.2363C280.328 26.4001 285.609 26.4001 285.609 23.2363V18.5551H287.795V23.2363C287.795 24.1002 287.593 24.9203 287.189 25.5922C286.785 26.2641 286.219 26.792 285.49 27.1759C284.761 27.5598 283.91 27.7518 282.935 27.7518Z" fill="#122743"/>
<path d="M253.47 23.2363V18.5551H255.735V23.2363C255.735 26.5046 261.016 26.5046 261.016 23.2363V18.5551H263.202V23.2363C263.202 29.3306 253.47 29.2898 253.47 23.2363Z" fill="#122743"/>
<path d="M500.4 45H0V46.2H500.4V45Z" fill="#F8E0FB" style="mix-blend-mode:multiply" mask="url(#path-1-inside-1_10_54980)"/>
</svg>
